SplineFontDB: 3.2
FontName: glyphsmore
FullName: glyphsmore
FamilyName: glyphsmore
Weight: Book
Copyright: Copyright (c) Niskala Huruf
Version: 1.000
ItalicAngle: 0
UnderlinePosition: -125
UnderlineWidth: 50
Ascent: 800
Descent: 200
InvalidEm: 0
sfntRevision: 0x00010000
LayerCount: 2
Layer: 0 1 "Back" 1
Layer: 1 1 "Fore" 0
XUID: [1021 238 -758118090 7475505]
StyleMap: 0x0040
FSType: 4
OS2Version: 4
OS2_WeightWidthSlopeOnly: 0
OS2_UseTypoMetrics: 1
CreationTime: 1633150134
ModificationTime: 1744819524
PfmFamily: 81
TTFWeight: 400
TTFWidth: 5
LineGap: 399
VLineGap: 0
Panose: 0 0 0 0 0 0 0 0 0 0
OS2TypoAscent: 677
OS2TypoAOffset: 0
OS2TypoDescent: -124
OS2TypoDOffset: 0
OS2TypoLinegap: 399
OS2WinAscent: 1076
OS2WinAOffset: 0
OS2WinDescent: 523
OS2WinDOffset: 0
HheadAscent: 677
HheadAOffset: 0
HheadDescent: -124
HheadDOffset: 0
OS2SubXSize: 650
OS2SubYSize: 600
OS2SubXOff: 0
OS2SubYOff: 75
OS2SupXSize: 650
OS2SupYSize: 600
OS2SupXOff: 0
OS2SupYOff: 350
OS2StrikeYSize: 50
OS2StrikeYPos: 300
OS2CapHeight: 616
OS2XHeight: 616
OS2Vendor: '    '
OS2CodePages: 00000001.00000000
OS2UnicodeRanges: 00000003.00000000.00000000.00000000
Lookup: 1 0 0 "'aalt' Access All Alternates lookup 0" { "'aalt' Access All Alternates lookup 0 subtable"  } ['aalt' ('DFLT' <'dflt' > 'grek' <'dflt' > 'latn' <'dflt' > ) ]
Lookup: 1 0 0 "'sups' Superscript lookup 1" { "'sups' Superscript lookup 1 subtable" ("superior") } ['sups' ('DFLT' <'dflt' > 'grek' <'dflt' > 'latn' <'dflt' > ) ]
Lookup: 4 0 0 "'frac' Diagonal Fractions lookup 2" { "'frac' Diagonal Fractions lookup 2 subtable"  } ['frac' ('DFLT' <'dflt' > 'grek' <'dflt' > 'latn' <'dflt' > ) ]
Lookup: 6 0 0 "'ordn' Ordinals lookup 3" { "'ordn' Ordinals lookup 3 contextual 0"  "'ordn' Ordinals lookup 3 contextual 1"  } ['ordn' ('DFLT' <'dflt' > 'grek' <'dflt' > 'latn' <'dflt' > ) ]
Lookup: 4 0 1 "'liga' Standard Ligatures lookup 4" { "'liga' Standard Ligatures lookup 4 subtable"  } ['liga' ('DFLT' <'dflt' > 'grek' <'dflt' > 'latn' <'dflt' > ) ]

StartChar: period
Encoding: 46 46 3
Width: 146
GlyphClass: 2
Flags: W
LayerCount: 2
Fore
SplineSet
66 -6 m 0,0,1
 41 -6 41 -6 23.5 9.5 c 128,-1,2
 6 25 6 25 6 52 c 0,3,4
 6 78 6 78 23.5 99.5 c 128,-1,5
 41 121 41 121 69 121 c 0,6,7
 128 121 128 121 128 61 c 0,8,9
 128 37 128 37 110.5 15.5 c 128,-1,10
 93 -6 93 -6 66 -6 c 0,0,1
32 41 m 256,11,12
 37 41 37 41 37.5 48 c 128,-1,13
 38 55 38 55 40 59 c 0,14,15
 44 70 44 70 51 78 c 128,-1,16
 58 86 58 86 64 97 c 0,17,18
 65 99 65 99 63.5 102 c 128,-1,19
 62 105 62 105 60 105 c 0,20,21
 54 105 54 105 48 99 c 128,-1,22
 42 93 42 93 37 84.5 c 128,-1,23
 32 76 32 76 29 67 c 128,-1,24
 26 58 26 58 26 53 c 0,25,26
 26 51 26 51 26.5 46 c 128,-1,27
 27 41 27 41 32 41 c 256,11,12
EndSplineSet
EndChar

StartChar: A
Encoding: 65 65 4
Width: 451
GlyphClass: 2
Flags: W
LayerCount: 2
Fore
SplineSet
231 621 m 0,0,1
 263 621 263 621 284 611 c 128,-1,2
 305 601 305 601 313 587 c 0,3,4
 319 575 319 575 330.5 534 c 128,-1,5
 342 493 342 493 355.5 437 c 128,-1,6
 369 381 369 381 383.5 318 c 128,-1,7
 398 255 398 255 410 199 c 128,-1,8
 422 143 422 143 429.5 101.5 c 128,-1,9
 437 60 437 60 437 48 c 0,10,11
 437 28 437 28 416 12.5 c 128,-1,12
 395 -3 395 -3 371 -3 c 256,13,14
 347 -3 347 -3 338 11 c 0,15,16
 334 17 334 17 328 32 c 128,-1,17
 322 47 322 47 316 67 c 128,-1,18
 310 87 310 87 304.5 109 c 128,-1,19
 299 131 299 131 295 152 c 0,20,21
 291 172 291 172 283.5 176.5 c 128,-1,22
 276 181 276 181 266 181 c 0,23,24
 237 181 237 181 215 181.5 c 128,-1,25
 193 182 193 182 182 182 c 0,26,27
 162 182 162 182 152.5 177.5 c 128,-1,28
 143 173 143 173 140 162 c 2,29,-1
 114 62 l 2,30,31
 106 33 106 33 88.5 15.5 c 128,-1,32
 71 -2 71 -2 49 -2 c 0,33,34
 13 -2 13 -2 13 48 c 0,35,36
 13 65 13 65 17 95.5 c 128,-1,37
 21 126 21 126 27.5 164.5 c 128,-1,38
 34 203 34 203 43.5 246.5 c 128,-1,39
 53 290 53 290 63.5 334.5 c 128,-1,40
 74 379 74 379 85 421 c 128,-1,41
 96 463 96 463 107 497 c 0,42,43
 119 535 119 535 131.5 559 c 128,-1,44
 144 583 144 583 158 597 c 128,-1,45
 172 611 172 611 189.5 616 c 128,-1,46
 207 621 207 621 231 621 c 0,0,1
170 561 m 0,47,48
 181 574 181 574 190 585.5 c 128,-1,49
 199 597 199 597 192 598 c 0,50,51
 176 601 176 601 160 579 c 0,52,53
 149 562 149 562 144 543 c 128,-1,54
 139 524 139 524 147 522 c 0,55,56
 149 522 149 522 151 525.5 c 128,-1,57
 153 529 153 529 155 535 c 128,-1,58
 157 541 157 541 160.5 548 c 128,-1,59
 164 555 164 555 170 561 c 0,47,48
186 377 m 0,60,61
 175 320 175 320 171.5 298.5 c 128,-1,62
 168 277 168 277 177 277 c 2,63,-1
 265 277 l 2,64,65
 273 277 273 277 269 296.5 c 128,-1,66
 265 316 265 316 257 357 c 0,67,68
 255 368 255 368 252 393.5 c 128,-1,69
 249 419 249 419 244.5 445 c 128,-1,70
 240 471 240 471 235 491.5 c 128,-1,71
 230 512 230 512 224 512 c 0,72,73
 219 512 219 512 213 494 c 128,-1,74
 207 476 207 476 201.5 452.5 c 128,-1,75
 196 429 196 429 192 407 c 128,-1,76
 188 385 188 385 186 377 c 0,60,61
45 63 m 0,77,78
 47 75 47 75 45 82 c 128,-1,79
 43 89 43 89 39 90 c 0,80,81
 37 90 37 90 34.5 87.5 c 128,-1,82
 32 85 32 85 30 77 c 0,83,84
 26 57 26 57 29 38.5 c 128,-1,85
 32 20 32 20 40 18 c 0,86,87
 50 16 50 16 44 33 c 0,88,89
 42 39 42 39 42.5 46.5 c 128,-1,90
 43 54 43 54 45 63 c 0,77,78
350 64 m 0,91,92
 343 78 343 78 341 83 c 128,-1,93
 339 88 339 88 337 88 c 0,94,95
 334 88 334 88 332 78 c 0,96,97
 332 74 332 74 334.5 63.5 c 128,-1,98
 337 53 337 53 341 42.5 c 128,-1,99
 345 32 345 32 350.5 24 c 128,-1,100
 356 16 356 16 361 16 c 0,101,102
 364 16 364 16 364 21 c 128,-1,103
 364 26 364 26 361.5 34 c 128,-1,104
 359 42 359 42 356 50 c 128,-1,105
 353 58 353 58 350 64 c 0,91,92
EndSplineSet
Substitution2: "Single Substitution lookup 5 subtable" ordfeminine
EndChar

StartChar: B
Encoding: 66 66 5
Width: 406
GlyphClass: 2
Flags: W
LayerCount: 2
Fore
SplineSet
66 0 m 2,0,1
 38 0 38 0 27.5 22 c 128,-1,2
 17 44 17 44 17 103 c 2,3,-1
 17 531 l 2,4,5
 17 574 17 574 30 595 c 128,-1,6
 43 616 43 616 77 616 c 0,7,8
 96 616 96 616 106.5 605.5 c 128,-1,9
 117 595 117 595 117 586 c 0,10,11
 117 570 117 570 117.5 561 c 128,-1,12
 118 552 118 552 123 552 c 0,13,14
 126 552 126 552 132 563 c 128,-1,15
 138 574 138 574 150 587.5 c 128,-1,16
 162 601 162 601 180 612 c 128,-1,17
 198 623 198 623 225 623 c 0,18,19
 258 623 258 623 285 610.5 c 128,-1,20
 312 598 312 598 331.5 576 c 128,-1,21
 351 554 351 554 362 524.5 c 128,-1,22
 373 495 373 495 373 461 c 0,23,24
 373 421 373 421 362 394.5 c 128,-1,25
 351 368 351 368 334 352 c 128,-1,26
 317 336 317 336 298 328 c 128,-1,27
 279 320 279 320 262 317 c 128,-1,28
 245 314 245 314 234 313 c 128,-1,29
 223 312 223 312 223 310 c 256,30,31
 223 308 223 308 235.5 307 c 128,-1,32
 248 306 248 306 267 303.5 c 128,-1,33
 286 301 286 301 307.5 293.5 c 128,-1,34
 329 286 329 286 348 270.5 c 128,-1,35
 367 255 367 255 379.5 229.5 c 128,-1,36
 392 204 392 204 392 164 c 256,37,38
 392 124 392 124 374 93.5 c 128,-1,39
 356 63 356 63 327.5 42 c 128,-1,40
 299 21 299 21 264 10.5 c 128,-1,41
 229 0 229 0 196 0 c 2,42,-1
 66 0 l 2,0,1
53 535 m 0,43,44
 52 537 52 537 51 539 c 0,45,46
 48 544 48 544 48 552 c 0,47,48
 48 561 48 561 52.5 568.5 c 128,-1,49
 57 576 57 576 62.5 582 c 128,-1,50
 68 588 68 588 72.5 592 c 128,-1,51
 77 596 77 596 77 598 c 0,52,53
 77 603 77 603 67 603 c 0,54,55
 53 603 53 603 42 586.5 c 128,-1,56
 31 570 31 570 31 545 c 0,57,58
 31 534 31 534 34 526.5 c 128,-1,59
 37 519 37 519 42 519 c 0,60,61
 45 519 45 519 49 523.5 c 128,-1,62
 53 528 53 528 53 535 c 0,43,44
180 361 m 2,63,64
 214 361 214 361 236.5 387 c 128,-1,65
 259 413 259 413 259 456 c 0,66,67
 259 486 259 486 245.5 506 c 128,-1,68
 232 526 232 526 205 526 c 0,69,70
 187 526 187 526 173 519 c 128,-1,71
 159 512 159 512 150 500.5 c 128,-1,72
 141 489 141 489 136 474.5 c 128,-1,73
 131 460 131 460 131 445 c 2,74,-1
 131 393 l 2,75,76
 131 379 131 379 136.5 370 c 128,-1,77
 142 361 142 361 150 361 c 2,78,-1
 180 361 l 2,63,64
187 91 m 2,79,80
 223 91 223 91 250.5 111 c 128,-1,81
 278 131 278 131 278 175 c 256,82,83
 278 219 278 219 248 236.5 c 128,-1,84
 218 254 218 254 175 254 c 2,85,-1
 150 254 l 2,86,87
 131 254 131 254 131 214 c 2,88,-1
 131 127 l 2,89,90
 131 103 131 103 135.5 97 c 128,-1,91
 140 91 140 91 159 91 c 2,92,-1
 187 91 l 2,79,80
43 73 m 0,93,94
 45 73 45 73 46.5 83 c 128,-1,95
 48 93 48 93 48.5 106 c 128,-1,96
 49 119 49 119 49 131.5 c 128,-1,97
 49 144 49 144 49 148 c 0,98,99
 49 177 49 177 46.5 183.5 c 128,-1,100
 44 190 44 190 41 190 c 0,101,102
 39 190 39 190 36.5 183.5 c 128,-1,103
 34 177 34 177 34 148 c 0,104,105
 34 105 34 105 35.5 89 c 128,-1,106
 37 73 37 73 43 73 c 0,93,94
43 59 m 0,107,108
 35 59 35 59 35 48 c 0,109,110
 35 40 35 40 38 37.5 c 128,-1,111
 41 35 41 35 44 35 c 0,112,113
 50 35 50 35 50 48 c 0,114,115
 50 55 50 55 49 57 c 128,-1,116
 48 59 48 59 43 59 c 0,107,108
EndSplineSet
EndChar

StartChar: C
Encoding: 67 67 6
Width: 386
GlyphClass: 2
Flags: W
LayerCount: 2
Fore
SplineSet
212 -10 m 0,0,1
 166 -10 166 -10 129 12 c 128,-1,2
 92 34 92 34 66 74 c 128,-1,3
 40 114 40 114 25.5 169.5 c 128,-1,4
 11 225 11 225 11 292 c 0,5,6
 11 363 11 363 26.5 423.5 c 128,-1,7
 42 484 42 484 70.5 528.5 c 128,-1,8
 99 573 99 573 138 598 c 128,-1,9
 177 623 177 623 223 623 c 0,10,11
 254 623 254 623 281 612 c 128,-1,12
 308 601 308 601 328.5 581.5 c 128,-1,13
 349 562 349 562 360.5 536.5 c 128,-1,14
 372 511 372 511 372 481 c 0,15,16
 372 424 372 424 331 424 c 0,17,18
 308 424 308 424 292.5 442 c 128,-1,19
 277 460 277 460 276 487 c 0,20,21
 274 528 274 528 237 528 c 0,22,23
 212 528 212 528 192.5 510.5 c 128,-1,24
 173 493 173 493 159 461.5 c 128,-1,25
 145 430 145 430 137.5 386.5 c 128,-1,26
 130 343 130 343 130 290 c 0,27,28
 130 195 130 195 153.5 141.5 c 128,-1,29
 177 88 177 88 223 88 c 0,30,31
 245 88 245 88 260 100 c 128,-1,32
 275 112 275 112 275 130 c 0,33,34
 275 140 275 140 280 149.5 c 128,-1,35
 285 159 285 159 293 166.5 c 128,-1,36
 301 174 301 174 311 178.5 c 128,-1,37
 321 183 321 183 331 183 c 0,38,39
 349 183 349 183 360 167.5 c 128,-1,40
 371 152 371 152 371 126 c 0,41,42
 371 98 371 98 358.5 73.5 c 128,-1,43
 346 49 346 49 324 30.5 c 128,-1,44
 302 12 302 12 273 1 c 128,-1,45
 244 -10 244 -10 212 -10 c 0,0,1
95 513 m 0,46,47
 98 513 98 513 110 525.5 c 128,-1,48
 122 538 122 538 137.5 553 c 128,-1,49
 153 568 153 568 171 580 c 128,-1,50
 189 592 189 592 204 591 c 0,51,52
 209 590 209 590 213.5 592.5 c 128,-1,53
 218 595 218 595 218 598 c 0,54,55
 220 606 220 606 207 608 c 0,56,57
 190 610 190 610 170.5 600 c 128,-1,58
 151 590 151 590 133.5 575.5 c 128,-1,59
 116 561 116 561 104 545 c 128,-1,60
 92 529 92 529 91 518 c 0,61,62
 91 513 91 513 95 513 c 0,46,47
85 502 m 0,63,64
 80 502 80 502 76 496 c 128,-1,65
 72 490 72 490 71 482 c 0,66,67
 71 473 71 473 74 473 c 256,68,69
 77 473 77 473 81 477 c 128,-1,70
 85 481 85 481 87 486.5 c 128,-1,71
 89 492 89 492 89 497 c 128,-1,72
 89 502 89 502 85 502 c 0,63,64
EndSplineSet
EndChar

StartChar: D
Encoding: 68 68 7
Width: 409
GlyphClass: 2
Flags: W
LayerCount: 2
Fore
SplineSet
107 0 m 2,0,1
 89 0 89 0 72.5 4 c 128,-1,2
 56 8 56 8 43.5 18 c 128,-1,3
 31 28 31 28 23.5 45 c 128,-1,4
 16 62 16 62 16 88 c 2,5,-1
 16 516 l 2,6,7
 16 543 16 543 25.5 562.5 c 128,-1,8
 35 582 35 582 50.5 594.5 c 128,-1,9
 66 607 66 607 87 612.5 c 128,-1,10
 108 618 108 618 131 618 c 2,11,-1
 176 618 l 2,12,13
 219 618 219 618 259 598.5 c 128,-1,14
 299 579 299 579 329.5 541.5 c 128,-1,15
 360 504 360 504 378.5 449.5 c 128,-1,16
 397 395 397 395 397 326 c 0,17,18
 397 253 397 253 378 192.5 c 128,-1,19
 359 132 359 132 327 89.5 c 128,-1,20
 295 47 295 47 252 23.5 c 128,-1,21
 209 0 209 0 162 0 c 2,22,-1
 107 0 l 2,0,1
157 96 m 2,23,24
 183 96 183 96 206 112.5 c 128,-1,25
 229 129 229 129 245.5 159.5 c 128,-1,26
 262 190 262 190 271.5 233 c 128,-1,27
 281 276 281 276 281 329 c 0,28,29
 281 424 281 424 251 472 c 128,-1,30
 221 520 221 520 173 520 c 2,31,-1
 158 520 l 2,32,33
 141 520 141 520 135.5 512.5 c 128,-1,34
 130 505 130 505 130 480 c 2,35,-1
 130 132 l 2,36,37
 130 112 130 112 133.5 104 c 128,-1,38
 137 96 137 96 144 96 c 2,39,-1
 157 96 l 2,23,24
47 83 m 0,40,41
 51 83 51 83 52.5 93.5 c 128,-1,42
 54 104 54 104 54 117.5 c 128,-1,43
 54 131 54 131 53.5 143.5 c 128,-1,44
 53 156 53 156 53 161 c 0,45,46
 53 216 53 216 47 216 c 0,47,48
 44 216 44 216 41 203.5 c 128,-1,49
 38 191 38 191 38 161 c 0,50,51
 38 116 38 116 38.5 99.5 c 128,-1,52
 39 83 39 83 47 83 c 0,40,41
46 69 m 0,53,54
 39 69 39 69 39 58 c 0,55,56
 39 40 39 40 47 40 c 0,57,58
 50 40 50 40 52 46 c 128,-1,59
 54 52 54 52 54 58 c 0,60,61
 54 69 54 69 46 69 c 0,53,54
EndSplineSet
EndChar

StartChar: E
Encoding: 69 69 8
Width: 362
GlyphClass: 2
Flags: W
LayerCount: 2
Fore
SplineSet
195 -4 m 0,0,1
 157 -4 157 -4 125.5 1.5 c 128,-1,2
 94 7 94 7 71 21 c 128,-1,3
 48 35 48 35 35.5 58.5 c 128,-1,4
 23 82 23 82 23 118 c 2,5,-1
 23 527 l 2,6,7
 23 553 23 553 30.5 570.5 c 128,-1,8
 38 588 38 588 49.5 598 c 128,-1,9
 61 608 61 608 74.5 612 c 128,-1,10
 88 616 88 616 101 616 c 2,11,-1
 296 616 l 2,12,13
 314 616 314 616 323 602 c 128,-1,14
 332 588 332 588 332 571 c 256,15,16
 332 554 332 554 324 537.5 c 128,-1,17
 316 521 316 521 300 520 c 2,18,-1
 159 516 l 2,19,20
 149 516 149 516 143 509 c 128,-1,21
 137 502 137 502 137 492 c 2,22,-1
 137 400 l 2,23,24
 137 370 137 370 159 370 c 2,25,-1
 278 371 l 2,26,27
 298 371 298 371 304.5 355 c 128,-1,28
 311 339 311 339 311 319 c 0,29,30
 311 306 311 306 305 293 c 128,-1,31
 299 280 299 280 279 279 c 2,32,-1
 164 275 l 2,33,34
 148 274 148 274 142.5 267 c 128,-1,35
 137 260 137 260 137 244 c 2,36,-1
 137 178 l 2,37,38
 137 157 137 157 138 140.5 c 128,-1,39
 139 124 139 124 145 112.5 c 128,-1,40
 151 101 151 101 164.5 95 c 128,-1,41
 178 89 178 89 203 89 c 0,42,43
 220 89 220 89 236.5 93.5 c 128,-1,44
 253 98 253 98 268.5 104 c 128,-1,45
 284 110 284 110 297 114.5 c 128,-1,46
 310 119 310 119 320 119 c 0,47,48
 327 119 327 119 332 113.5 c 128,-1,49
 337 108 337 108 340 99.5 c 128,-1,50
 343 91 343 91 344.5 82 c 128,-1,51
 346 73 346 73 346 65 c 0,52,53
 346 45 346 45 328 31.5 c 128,-1,54
 310 18 310 18 285.5 10 c 128,-1,55
 261 2 261 2 235.5 -1 c 128,-1,56
 210 -4 210 -4 195 -4 c 0,0,1
87 60 m 0,57,58
 75 76 75 76 66 91.5 c 128,-1,59
 57 107 57 107 55 122 c 0,60,61
 52 136 52 136 46 135 c 0,62,63
 38 135 38 135 41 117 c 0,64,65
 42 108 42 108 46.5 95 c 128,-1,66
 51 82 51 82 57 71 c 128,-1,67
 63 60 63 60 71 52.5 c 128,-1,68
 79 45 79 45 88 46 c 0,69,70
 96 48 96 48 87 60 c 0,57,58
EndSplineSet
EndChar

StartChar: F
Encoding: 70 70 9
Width: 337
GlyphClass: 2
Flags: W
LayerCount: 2
Fore
SplineSet
85 0 m 0,0,1
 58 0 58 0 40.5 9.5 c 128,-1,2
 23 19 23 19 23 49 c 2,3,-1
 23 543 l 2,4,5
 23 582 23 582 51.5 599.5 c 128,-1,6
 80 617 80 617 125 617 c 2,7,-1
 295 616 l 2,8,9
 306 616 306 616 315 604.5 c 128,-1,10
 324 593 324 593 324 579 c 0,11,12
 324 572 324 572 322.5 561.5 c 128,-1,13
 321 551 321 551 318 541.5 c 128,-1,14
 315 532 315 532 310.5 525.5 c 128,-1,15
 306 519 306 519 300 519 c 2,16,-1
 163 520 l 2,17,18
 137 520 137 520 137 494 c 2,19,-1
 137 345 l 2,20,21
 137 335 137 335 143.5 330.5 c 128,-1,22
 150 326 150 326 160 326 c 2,23,-1
 266 329 l 2,24,25
 274 329 274 329 280 324 c 128,-1,26
 286 319 286 319 291 310.5 c 128,-1,27
 296 302 296 302 298.5 293 c 128,-1,28
 301 284 301 284 301 276 c 0,29,30
 301 237 301 237 263 236 c 2,31,-1
 157 233 l 2,32,33
 149 233 149 233 143 227 c 128,-1,34
 137 221 137 221 137 213 c 2,35,-1
 137 48 l 2,36,37
 137 32 137 32 132.5 22.5 c 128,-1,38
 128 13 128 13 120.5 8 c 128,-1,39
 113 3 113 3 103.5 1.5 c 128,-1,40
 94 0 94 0 85 0 c 0,0,1
73 26 m 0,41,42
 72 31 72 31 63.5 42 c 128,-1,43
 55 53 55 53 53 78 c 0,44,45
 51 91 51 91 47.5 94 c 128,-1,46
 44 97 44 97 42 97 c 256,47,48
 40 97 40 97 38.5 91 c 128,-1,49
 37 85 37 85 39 75 c 0,50,51
 39 70 39 70 41 60.5 c 128,-1,52
 43 51 43 51 46.5 41.5 c 128,-1,53
 50 32 50 32 55 25 c 128,-1,54
 60 18 60 18 67 19 c 0,55,56
 73 19 73 19 73 26 c 0,41,42
EndSplineSet
EndChar

StartChar: G
Encoding: 71 71 10
Width: 439
GlyphClass: 2
Flags: W
LayerCount: 2
Fore
SplineSet
241 -5 m 0,0,1
 174 -5 174 -5 130 28 c 128,-1,2
 86 61 86 61 60 111 c 128,-1,3
 34 161 34 161 24 219 c 128,-1,4
 14 277 14 277 14 328 c 0,5,6
 14 384 14 384 25.5 437.5 c 128,-1,7
 37 491 37 491 64 532.5 c 128,-1,8
 91 574 91 574 134.5 599.5 c 128,-1,9
 178 625 178 625 242 625 c 0,10,11
 273 625 273 625 301.5 616.5 c 128,-1,12
 330 608 330 608 352 589.5 c 128,-1,13
 374 571 374 571 387 540.5 c 128,-1,14
 400 510 400 510 400 466 c 0,15,16
 400 450 400 450 393.5 440.5 c 128,-1,17
 387 431 387 431 377.5 425.5 c 128,-1,18
 368 420 368 420 358 418.5 c 128,-1,19
 348 417 348 417 342 417 c 0,20,21
 328 417 328 417 315.5 427 c 128,-1,22
 303 437 303 437 303 466 c 0,23,24
 303 511 303 511 282.5 529 c 128,-1,25
 262 547 262 547 233 547 c 0,26,27
 213 547 213 547 194.5 530.5 c 128,-1,28
 176 514 176 514 162 483.5 c 128,-1,29
 148 453 148 453 140 410 c 128,-1,30
 132 367 132 367 132 314 c 0,31,32
 132 285 132 285 135.5 245 c 128,-1,33
 139 205 139 205 151 169 c 128,-1,34
 163 133 163 133 185 107.5 c 128,-1,35
 207 82 207 82 243 82 c 0,36,37
 272 82 272 82 288.5 96.5 c 128,-1,38
 305 111 305 111 312.5 132 c 128,-1,39
 320 153 320 153 321.5 175.5 c 128,-1,40
 323 198 323 198 322 214 c 256,41,42
 321 230 321 230 308.5 231.5 c 128,-1,43
 296 233 296 233 273 233 c 2,44,-1
 222 233 l 2,45,46
 216 233 216 233 211 239 c 128,-1,47
 206 245 206 245 203 253.5 c 128,-1,48
 200 262 200 262 198 271 c 128,-1,49
 196 280 196 280 196 286 c 0,50,51
 196 302 196 302 206.5 314.5 c 128,-1,52
 217 327 217 327 240 327 c 2,53,-1
 348 326 l 2,54,55
 379 326 379 326 404 306 c 128,-1,56
 429 286 429 286 429 249 c 0,57,58
 429 206 429 206 419.5 161 c 128,-1,59
 410 116 410 116 388 79 c 128,-1,60
 366 42 366 42 330 18.5 c 128,-1,61
 294 -5 294 -5 241 -5 c 0,0,1
146 58 m 0,62,63
 146 62 146 62 126 84 c 0,64,65
 117 93 117 93 108 106.5 c 128,-1,66
 99 120 99 120 91.5 133 c 128,-1,67
 84 146 84 146 79.5 157.5 c 128,-1,68
 75 169 75 169 75 173 c 0,69,70
 75 178 75 178 72 179.5 c 128,-1,71
 69 181 69 181 68 181 c 0,72,73
 60 181 60 181 60 170 c 256,74,75
 60 159 60 159 69 139 c 128,-1,76
 78 119 78 119 90.5 99.5 c 128,-1,77
 103 80 103 80 116.5 66 c 128,-1,78
 130 52 130 52 140 52 c 0,79,80
 146 52 146 52 146 58 c 0,62,63
169 45 m 0,81,82
 169 52 169 52 162 52 c 0,83,84
 158 52 158 52 156.5 49 c 128,-1,85
 155 46 155 46 155 44 c 0,86,87
 155 39 155 39 157.5 38 c 128,-1,88
 160 37 160 37 162 37 c 0,89,90
 169 37 169 37 169 45 c 0,81,82
EndSplineSet
EndChar

StartChar: H
Encoding: 72 72 11
Width: 382
GlyphClass: 2
Flags: W
LayerCount: 2
Fore
SplineSet
310 0 m 0,0,1
 293 0 293 0 283 9.5 c 128,-1,2
 273 19 273 19 268 32.5 c 128,-1,3
 263 46 263 46 261.5 62.5 c 128,-1,4
 260 79 260 79 260 92 c 2,5,-1
 260 237 l 2,6,7
 260 250 260 250 257.5 256.5 c 128,-1,8
 255 263 255 263 247 263 c 2,9,-1
 140 263 l 2,10,11
 130 263 130 263 126 260 c 128,-1,12
 122 257 122 257 122 247 c 2,13,-1
 122 105 l 2,14,15
 122 91 122 91 120 72.5 c 128,-1,16
 118 54 118 54 112 38 c 128,-1,17
 106 22 106 22 96 11 c 128,-1,18
 86 0 86 0 70 0 c 0,19,20
 52 0 52 0 40 8.5 c 128,-1,21
 28 17 28 17 21.5 31 c 128,-1,22
 15 45 15 45 12.5 64 c 128,-1,23
 10 83 10 83 10 105 c 2,24,-1
 10 546 l 2,25,26
 10 552 10 552 12.5 563.5 c 128,-1,27
 15 575 15 575 21 587 c 128,-1,28
 27 599 27 599 38 607.5 c 128,-1,29
 49 616 49 616 67 616 c 0,30,31
 82 616 82 616 92.5 609 c 128,-1,32
 103 602 103 602 109.5 591 c 128,-1,33
 116 580 116 580 119 567.5 c 128,-1,34
 122 555 122 555 122 544 c 2,35,-1
 122 369 l 2,36,37
 122 361 122 361 124.5 355 c 128,-1,38
 127 349 127 349 135 349 c 2,39,-1
 249 348 l 2,40,41
 254 348 254 348 257 350.5 c 128,-1,42
 260 353 260 353 260 367 c 2,43,-1
 260 540 l 2,44,45
 260 578 260 578 272 597 c 128,-1,46
 284 616 284 616 305 616 c 0,47,48
 316 616 316 616 327.5 612 c 128,-1,49
 339 608 339 608 349 598.5 c 128,-1,50
 359 589 359 589 365.5 574 c 128,-1,51
 372 559 372 559 372 537 c 2,52,-1
 372 91 l 2,53,54
 372 77 372 77 368.5 61 c 128,-1,55
 365 45 365 45 357.5 31.5 c 128,-1,56
 350 18 350 18 338 9 c 128,-1,57
 326 0 326 0 310 0 c 0,0,1
27 555 m 0,58,59
 30 555 30 555 34.5 559.5 c 128,-1,60
 39 564 39 564 43.5 570.5 c 128,-1,61
 48 577 48 577 52 583.5 c 128,-1,62
 56 590 56 590 57 593 c 256,63,64
 58 596 58 596 57.5 600.5 c 128,-1,65
 57 605 57 605 54 604 c 0,66,67
 47 603 47 603 42 597.5 c 128,-1,68
 37 592 37 592 33 585 c 128,-1,69
 29 578 29 578 27 572 c 128,-1,70
 25 566 25 566 25 563 c 0,71,72
 25 561 25 561 25 558.5 c 128,-1,73
 25 556 25 556 27 555 c 0,58,59
297 575 m 0,74,75
 298 583 298 583 303.5 591 c 128,-1,76
 309 599 309 599 303 600 c 0,77,78
 295 601 295 601 286.5 591.5 c 128,-1,79
 278 582 278 582 276 568 c 0,80,81
 275 554 275 554 281 552 c 0,82,83
 289 551 289 551 292.5 561 c 128,-1,84
 296 571 296 571 297 575 c 0,74,75
52 30 m 0,85,86
 52 35 52 35 48 39 c 0,87,88
 43 44 43 44 41 59.5 c 128,-1,89
 39 75 39 75 39 86 c 0,90,91
 39 103 39 103 32 103 c 0,92,93
 28 103 28 103 27 96 c 128,-1,94
 26 89 26 89 26 86 c 0,95,96
 26 82 26 82 27 72 c 128,-1,97
 28 62 28 62 30 52 c 128,-1,98
 32 42 32 42 36 34.5 c 128,-1,99
 40 27 40 27 46 27 c 256,100,101
 52 27 52 27 52 30 c 0,85,86
298 26 m 0,102,103
 292 32 292 32 287.5 50 c 128,-1,104
 283 68 283 68 283 77 c 0,105,106
 283 81 283 81 281 81 c 0,107,108
 278 81 278 81 276 73.5 c 128,-1,109
 274 66 274 66 274 58 c 0,110,111
 274 46 274 46 279 31.5 c 128,-1,112
 284 17 284 17 298 17 c 0,113,114
 301 17 301 17 300.5 20.5 c 128,-1,115
 300 24 300 24 298 26 c 0,102,103
EndSplineSet
EndChar

StartChar: I
Encoding: 73 73 12
Width: 232
GlyphClass: 2
Flags: W
LayerCount: 2
Fore
SplineSet
53 1 m 0,0,1
 42 1 42 1 30 5.5 c 128,-1,2
 18 10 18 10 18 24 c 0,3,4
 18 34 18 34 27.5 42 c 128,-1,5
 37 50 37 50 54 50 c 0,6,7
 61 50 61 50 64.5 55.5 c 128,-1,8
 68 61 68 61 68 68 c 2,9,-1
 68 548 l 2,10,11
 68 556 68 556 60 561.5 c 128,-1,12
 52 567 52 567 44 567 c 0,13,14
 23 567 23 567 16 575 c 128,-1,15
 9 583 9 583 9 594 c 0,16,17
 9 608 9 608 32.5 613.5 c 128,-1,18
 56 619 56 619 122 619 c 0,19,20
 152 619 152 619 170.5 618 c 128,-1,21
 189 617 189 617 199.5 615 c 128,-1,22
 210 613 210 613 214 609.5 c 128,-1,23
 218 606 218 606 218 601 c 0,24,25
 218 587 218 587 206.5 578 c 128,-1,26
 195 569 195 569 186 566 c 0,27,28
 175 562 175 562 175 547 c 2,29,-1
 175 68 l 2,30,31
 175 63 175 63 176 56.5 c 128,-1,32
 177 50 177 50 182 48 c 0,33,34
 192 45 192 45 199.5 43 c 128,-1,35
 207 41 207 41 210 39 c 0,36,37
 215 34 215 34 215 27 c 0,38,39
 215 14 215 14 207 8 c 0,40,41
 201 3 201 3 180 2 c 128,-1,42
 159 1 159 1 133 0 c 0,43,44
 110 -1 110 -1 86.5 0 c 128,-1,45
 63 1 63 1 53 1 c 0,0,1
102 149 m 0,46,47
 102 170 102 170 100 184 c 128,-1,48
 98 198 98 198 93 198 c 0,49,50
 90 198 90 198 87.5 183.5 c 128,-1,51
 85 169 85 169 84.5 151.5 c 128,-1,52
 84 134 84 134 85 118 c 128,-1,53
 86 102 86 102 89 99 c 0,54,55
 95 93 95 93 98.5 102.5 c 128,-1,56
 102 112 102 112 102 149 c 0,46,47
102 77 m 0,57,58
 102 81 102 81 98 83 c 0,59,60
 96 84 96 84 94 84 c 0,61,62
 90 84 90 84 87 83 c 128,-1,63
 84 82 84 82 84 77 c 0,64,65
 84 69 84 69 93 69 c 256,66,67
 102 69 102 69 102 77 c 0,57,58
EndSplineSet
EndChar

StartChar: J
Encoding: 74 74 13
Width: 538
GlyphClass: 2
Flags: W
LayerCount: 2
Fore
SplineSet
219.5 4 m 0,0,1
 257 2 257 2 284 22.5 c 0,2,3
 303.91943128 39.0995260664 303.91943128 39.0995260664 314.5 67.5 c 0,4,5
 324 93 324 93 325.5 130 c 128,-1,6
 327 167 327 167 327 206 c 2,7,-1
 327 541 l 1,8,-1
 487 541 l 2,9,10
 509 541 509 541 517 552 c 128,-1,11
 525 563 525 563 525 580 c 256,12,13
 525 597 525 597 518.5 607 c 128,-1,14
 512 617 512 617 487 617 c 2,15,-1
 41 617 l 2,16,17
 23 617 23 617 15.5 608.5 c 128,-1,18
 8 600 8 600 8 586 c 0,19,20
 8 566 8 566 14.5 553.5 c 128,-1,21
 21 541 21 541 37 541 c 2,22,-1
 224 541 l 1,23,-1
 224 156 l 2,24,25
 224 119 224 119 221.5 96 c 128,-1,26
 219 73 219 73 208 73 c 2,27,-1
 200 73 l 1,28,-1
 117 71 l 0,29,30
 108 56 108 56 109 4 c 0,31,-1
 219.5 4 l 0,0,1
505 587 m 0,32,33
 505 592 505 592 503.5 598.5 c 128,-1,34
 502 605 502 605 504 605 c 0,35,36
 509 605 509 605 512.5 597.5 c 128,-1,37
 516 590 516 590 516 579 c 0,38,39
 516 572 516 572 513.5 564.5 c 128,-1,40
 511 557 511 557 506 557 c 256,41,42
 501 557 501 557 503 567.5 c 128,-1,43
 505 578 505 578 505 587 c 0,32,33
278.553710938 33.8388671875 m 0,44,-1
 252 42 l 0,45,46
 245 45 245 45 234.180664062 52.5595703125 c 0,47,48
 227 58 227 58 223.321289062 63.1533203125 c 0,49,50
 220 69 220 69 221.837890625 71.267578125 c 0,51,52
 224 77 224 77 233.841796875 72.251953125 c 0,53,54
 248 66 248 66 248.322265625 65.6904296875 c 0,55,56
 262 60 262 60 264 60 c 0,57,58
 277 55 l 0,59,60
 287 55 287 55 291.638671875 47.486328125 c 0,61,62
 295 42 295 42 294.361328125 35.599609375 c 0,63,64
 294 32 294 32 287.325129982 32.741881111 c 0,65,66
 281 33 281 33 278.553710938 33.8388671875 c 0,44,-1
EndSplineSet
EndChar

StartChar: K
Encoding: 75 75 14
Width: 389
GlyphClass: 2
Flags: W
LayerCount: 2
Fore
SplineSet
68 0 m 0,0,1
 47 0 47 0 37 11 c 128,-1,2
 27 22 27 22 23.5 38.5 c 128,-1,3
 20 55 20 55 20 73 c 128,-1,4
 20 91 20 91 20 105 c 2,5,-1
 20 204 l 1,6,-1
 19 402 l 1,7,-1
 19 501 l 2,8,9
 19 528 19 528 21 549 c 128,-1,10
 23 570 23 570 29 585 c 128,-1,11
 35 600 35 600 46.5 608 c 128,-1,12
 58 616 58 616 78 616 c 0,13,14
 101 616 101 616 118.5 597.5 c 128,-1,15
 136 579 136 579 136 549 c 0,16,17
 136 544 136 544 135.5 529 c 128,-1,18
 135 514 135 514 135 493.5 c 128,-1,19
 135 473 135 473 135 451 c 128,-1,20
 135 429 135 429 135 410 c 128,-1,21
 135 391 135 391 136.5 379 c 128,-1,22
 138 367 138 367 140 367 c 0,23,24
 144 367 144 367 155.5 385.5 c 128,-1,25
 167 404 167 404 182.5 431.5 c 128,-1,26
 198 459 198 459 216 491.5 c 128,-1,27
 234 524 234 524 252 551.5 c 128,-1,28
 270 579 270 579 286.5 597.5 c 128,-1,29
 303 616 303 616 314 616 c 0,30,31
 323 616 323 616 334 613 c 128,-1,32
 345 610 345 610 354 604 c 128,-1,33
 363 598 363 598 369 589 c 128,-1,34
 375 580 375 580 375 567 c 0,35,36
 375 559 375 559 364 537.5 c 128,-1,37
 353 516 353 516 337 489 c 128,-1,38
 321 462 321 462 302 432 c 128,-1,39
 283 402 283 402 267 376.5 c 128,-1,40
 251 351 251 351 240 333.5 c 128,-1,41
 229 316 229 316 229 313 c 0,42,43
 229 309 229 309 240.5 290 c 128,-1,44
 252 271 252 271 269 245 c 128,-1,45
 286 219 286 219 306.5 188.5 c 128,-1,46
 327 158 327 158 344 130 c 128,-1,47
 361 102 361 102 372.5 80 c 128,-1,48
 384 58 384 58 384 48 c 0,49,50
 384 35 384 35 375.5 26 c 128,-1,51
 367 17 367 17 355 11 c 128,-1,52
 343 5 343 5 331 2 c 128,-1,53
 319 -1 319 -1 311 -1 c 0,54,55
 297 -1 297 -1 282 17.5 c 128,-1,56
 267 36 267 36 255 57 c 0,57,58
 251 64 251 64 242.5 80.5 c 128,-1,59
 234 97 234 97 222.5 118 c 128,-1,60
 211 139 211 139 198.5 161.5 c 128,-1,61
 186 184 186 184 174.5 203 c 128,-1,62
 163 222 163 222 154.5 234 c 128,-1,63
 146 246 146 246 142 246 c 0,64,65
 134 246 134 246 134 234.5 c 128,-1,66
 134 223 134 223 134 215 c 2,67,-1
 134 164 l 1,68,-1
 135 125 l 1,69,-1
 135 102 l 2,70,71
 135 51 135 51 119 25.5 c 128,-1,72
 103 0 103 0 68 0 c 0,0,1
38 561 m 0,73,74
 43 560 43 560 47.5 564 c 128,-1,75
 52 568 52 568 55.5 573.5 c 128,-1,76
 59 579 59 579 62 585.5 c 128,-1,77
 65 592 65 592 66 596 c 0,78,79
 67 599 67 599 64 601.5 c 128,-1,80
 61 604 61 604 58 604 c 0,81,82
 54 604 54 604 50 599 c 128,-1,83
 46 594 46 594 42.5 587.5 c 128,-1,84
 39 581 39 581 37 574.5 c 128,-1,85
 35 568 35 568 35 565 c 0,86,87
 35 561 35 561 38 561 c 0,73,74
288 558 m 0,88,89
 291 558 291 558 297 562.5 c 128,-1,90
 303 567 303 567 309 573 c 128,-1,91
 315 579 315 579 319 585.5 c 128,-1,92
 323 592 323 592 322 596 c 0,93,94
 322 600 322 600 318 600 c 0,95,96
 315 601 315 601 308.5 596.5 c 128,-1,97
 302 592 302 592 295.5 585.5 c 128,-1,98
 289 579 289 579 284.5 573 c 128,-1,99
 280 567 280 567 281 564 c 0,100,101
 283 559 283 559 288 558 c 0,88,89
53 70 m 0,102,103
 53 74 53 74 53 84.5 c 128,-1,104
 53 95 53 95 52 106 c 128,-1,105
 51 117 51 117 49 125.5 c 128,-1,106
 47 134 47 134 43 134 c 0,107,108
 40 134 40 134 37.5 129 c 128,-1,109
 35 124 35 124 34 117 c 128,-1,110
 33 110 33 110 32.5 103.5 c 128,-1,111
 32 97 32 97 32 95 c 0,112,113
 32 91 32 91 32 82.5 c 128,-1,114
 32 74 32 74 33.5 65 c 128,-1,115
 35 56 35 56 38 49.5 c 128,-1,116
 41 43 41 43 47 43 c 0,117,118
 49 43 49 43 50.5 47 c 128,-1,119
 52 51 52 51 52.5 55.5 c 128,-1,120
 53 60 53 60 53 64.5 c 128,-1,121
 53 69 53 69 53 70 c 0,102,103
314 21 m 0,122,123
 314 24 314 24 311 30.5 c 128,-1,124
 308 37 308 37 303.5 43 c 128,-1,125
 299 49 299 49 294 54 c 128,-1,126
 289 59 289 59 286 59 c 0,127,128
 284 59 284 59 283 55.5 c 128,-1,129
 282 52 282 52 282 50 c 0,130,131
 282 47 282 47 284.5 41 c 128,-1,132
 287 35 287 35 290.5 29 c 128,-1,133
 294 23 294 23 299 19 c 128,-1,134
 304 15 304 15 308 15 c 0,135,136
 314 15 314 15 314 21 c 0,122,123
63 25 m 0,137,138
 65 29 65 29 62 32.5 c 128,-1,139
 59 36 59 36 55 36 c 0,140,141
 50 36 50 36 47.5 32.5 c 128,-1,142
 45 29 45 29 47 25 c 0,143,144
 49 17 49 17 55 17 c 256,145,146
 61 17 61 17 63 25 c 0,137,138
EndSplineSet
EndChar

StartChar: L
Encoding: 76 76 15
Width: 321
GlyphClass: 2
Flags: W
LayerCount: 2
Fore
SplineSet
60 0 m 2,0,1
 49 0 49 0 40.5 8 c 128,-1,2
 32 16 32 16 32 27 c 2,3,-1
 32 553 l 2,4,5
 32 564 32 564 33.5 575 c 128,-1,6
 35 586 35 586 41 595 c 128,-1,7
 47 604 47 604 58.5 610 c 128,-1,8
 70 616 70 616 90 616 c 0,9,10
 113 616 113 616 129.5 598 c 128,-1,11
 146 580 146 580 146 560 c 2,12,-1
 146 121 l 2,13,14
 146 103 146 103 153 98.5 c 128,-1,15
 160 94 160 94 169 94 c 0,16,17
 186 94 186 94 199.5 94.5 c 128,-1,18
 213 95 213 95 225.5 95.5 c 128,-1,19
 238 96 238 96 251.5 96.5 c 128,-1,20
 265 97 265 97 282 97 c 0,21,22
 296 97 296 97 301 82.5 c 128,-1,23
 306 68 306 68 306 54 c 0,24,25
 306 34 306 34 293.5 16.5 c 128,-1,26
 281 -1 281 -1 267 -1 c 2,27,-1
 220 -1 l 1,28,-1
 137 0 l 1,29,-1
 60 0 l 2,0,1
50 549 m 0,30,31
 53 549 53 549 57.5 555.5 c 128,-1,32
 62 562 62 562 66.5 571 c 128,-1,33
 71 580 71 580 74.5 588 c 128,-1,34
 78 596 78 596 78 599 c 0,35,36
 78 604 78 604 70 604 c 0,37,38
 65 604 65 604 60 597.5 c 128,-1,39
 55 591 55 591 51.5 583 c 128,-1,40
 48 575 48 575 46 567 c 128,-1,41
 44 559 44 559 45 555 c 0,42,43
 45 549 45 549 50 549 c 0,30,31
61 59 m 0,44,45
 66 59 66 59 68 70 c 128,-1,46
 70 81 70 81 71 96.5 c 128,-1,47
 72 112 72 112 71.5 128.5 c 128,-1,48
 71 145 71 145 71 155 c 0,49,50
 71 159 71 159 70.5 165 c 128,-1,51
 70 171 70 171 68.5 177 c 128,-1,52
 67 183 67 183 64.5 187 c 128,-1,53
 62 191 62 191 57 191 c 0,54,55
 54 191 54 191 52.5 182.5 c 128,-1,56
 51 174 51 174 50 163 c 128,-1,57
 49 152 49 152 49 142.5 c 128,-1,58
 49 133 49 133 49 130 c 256,59,60
 49 127 49 127 49.5 115.5 c 128,-1,61
 50 104 50 104 51.5 91.5 c 128,-1,62
 53 79 53 79 55 69 c 128,-1,63
 57 59 57 59 61 59 c 0,44,45
78 30 m 0,64,65
 78 41 78 41 71 41 c 0,66,67
 61 41 61 41 61 30 c 0,68,69
 61 22 61 22 69 22 c 0,70,71
 72 22 72 22 75 24 c 128,-1,72
 78 26 78 26 78 30 c 0,64,65
EndSplineSet
EndChar

StartChar: M
Encoding: 77 77 16
Width: 492
GlyphClass: 2
Flags: W
LayerCount: 2
Fore
SplineSet
410 0 m 0,0,1
 392 0 392 0 382.5 10 c 128,-1,2
 373 20 373 20 368.5 34.5 c 128,-1,3
 364 49 364 49 363 65 c 128,-1,4
 362 81 362 81 362 92 c 2,5,-1
 365 386 l 2,6,7
 365 393 365 393 363 401.5 c 128,-1,8
 361 410 361 410 355 410 c 0,9,10
 348 410 348 410 334 388 c 128,-1,11
 320 366 320 366 304 339 c 128,-1,12
 288 312 288 312 270.5 290 c 128,-1,13
 253 268 253 268 238 268 c 0,14,15
 226 268 226 268 212 283 c 128,-1,16
 198 298 198 298 183.5 319 c 128,-1,17
 169 340 169 340 156.5 362 c 128,-1,18
 144 384 144 384 135 398 c 0,19,20
 131 405 131 405 128 405 c 256,21,22
 125 405 125 405 124 397.5 c 128,-1,23
 123 390 123 390 123 383 c 2,24,-1
 123 88 l 2,25,26
 123 43 123 43 103.5 21.5 c 128,-1,27
 84 0 84 0 57 0 c 0,28,29
 42 0 42 0 32 18.5 c 128,-1,30
 22 37 22 37 22 84 c 2,31,-1
 22 447 l 2,32,33
 22 467 22 467 22 487.5 c 128,-1,34
 22 508 22 508 23.5 527.5 c 128,-1,35
 25 547 25 547 28.5 563.5 c 128,-1,36
 32 580 32 580 38 590 c 256,37,38
 44 600 44 600 53.5 608 c 128,-1,39
 63 616 63 616 75 616 c 0,40,41
 91 616 91 616 107.5 603 c 128,-1,42
 124 590 124 590 139 570 c 128,-1,43
 154 550 154 550 168 525.5 c 128,-1,44
 182 501 182 501 193.5 479 c 128,-1,45
 205 457 205 457 214.5 439.5 c 128,-1,46
 224 422 224 422 230 415 c 0,47,48
 235 409 235 409 240 409 c 256,49,50
 245 409 245 409 248 415 c 0,51,52
 257 429 257 429 274.5 462.5 c 128,-1,53
 292 496 292 496 313 530 c 128,-1,54
 334 564 334 564 356 590 c 128,-1,55
 378 616 378 616 397 616 c 0,56,57
 424 616 424 616 439.5 599 c 128,-1,58
 455 582 455 582 463 559.5 c 128,-1,59
 471 537 471 537 473 514.5 c 128,-1,60
 475 492 475 492 475 480 c 2,61,-1
 475 88 l 2,62,63
 475 72 475 72 470 56 c 128,-1,64
 465 40 465 40 456.5 27.5 c 128,-1,65
 448 15 448 15 436 7.5 c 128,-1,66
 424 0 424 0 410 0 c 0,0,1
47 514 m 0,67,68
 49 530 49 530 56 552 c 128,-1,69
 63 574 63 574 75 593 c 0,70,71
 77 596 77 596 73.5 598 c 128,-1,72
 70 600 70 600 68 600 c 0,73,74
 62 600 62 600 56 593 c 128,-1,75
 50 586 50 586 45.5 575 c 128,-1,76
 41 564 41 564 37.5 552.5 c 128,-1,77
 34 541 34 541 34 532 c 0,78,79
 33 524 33 524 33.5 516 c 128,-1,80
 34 508 34 508 38 507 c 0,81,82
 41 507 41 507 44 509 c 128,-1,83
 47 511 47 511 47 514 c 0,67,68
406 22 m 0,84,85
 406 33 406 33 399.5 46 c 128,-1,86
 393 59 393 59 393 77 c 0,87,88
 393 82 393 82 391 86.5 c 128,-1,89
 389 91 389 91 382 91 c 0,90,91
 378 91 378 91 376.5 87 c 128,-1,92
 375 83 375 83 375 79 c 0,93,94
 375 74 375 74 377 63.5 c 128,-1,95
 379 53 379 53 382.5 42.5 c 128,-1,96
 386 32 386 32 391.5 24.5 c 128,-1,97
 397 17 397 17 403 17 c 0,98,99
 406 17 406 17 406 22 c 0,84,85
60 19 m 0,100,101
 60 22 60 22 57.5 29.5 c 128,-1,102
 55 37 55 37 51.5 44.5 c 128,-1,103
 48 52 48 52 44 58 c 128,-1,104
 40 64 40 64 36 64 c 0,105,106
 34 64 34 64 34 56 c 128,-1,107
 34 48 34 48 36 38 c 128,-1,108
 38 28 38 28 43 20 c 128,-1,109
 48 12 48 12 55 12 c 0,110,111
 60 12 60 12 60 19 c 0,100,101
EndSplineSet
EndChar

StartChar: N
Encoding: 78 78 17
Width: 439
GlyphClass: 2
Flags: W
LayerCount: 2
Fore
SplineSet
72 0 m 0,0,1
 55 0 55 0 44.5 9.5 c 128,-1,2
 34 19 34 19 28.5 34 c 128,-1,3
 23 49 23 49 21 67.5 c 128,-1,4
 19 86 19 86 19 103 c 2,5,-1
 19 563 l 2,6,7
 19 590 19 590 34.5 603 c 128,-1,8
 50 616 50 616 67 616 c 0,9,10
 93 616 93 616 116.5 603.5 c 128,-1,11
 140 591 140 591 159 553 c 0,12,13
 177 518 177 518 192 487.5 c 128,-1,14
 207 457 207 457 221.5 427 c 128,-1,15
 236 397 236 397 250.5 366 c 128,-1,16
 265 335 265 335 282 300 c 0,17,18
 287 289 287 289 292 282 c 128,-1,19
 297 275 297 275 302 275 c 0,20,21
 309 275 309 275 309 293 c 2,22,-1
 309 539 l 2,23,24
 309 555 309 555 310.5 569 c 128,-1,25
 312 583 312 583 318 593.5 c 128,-1,26
 324 604 324 604 335.5 610 c 128,-1,27
 347 616 347 616 366 616 c 256,28,29
 385 616 385 616 395 610.5 c 128,-1,30
 405 605 405 605 409.5 597 c 128,-1,31
 414 589 414 589 414.5 579.5 c 128,-1,32
 415 570 415 570 415 562 c 2,33,-1
 415 113 l 2,34,35
 415 63 415 63 407 31.5 c 128,-1,36
 399 0 399 0 376 0 c 0,37,38
 356 0 356 0 339 13.5 c 128,-1,39
 322 27 322 27 313 41 c 0,40,41
 310 46 310 46 299.5 63 c 128,-1,42
 289 80 289 80 274.5 105.5 c 128,-1,43
 260 131 260 131 242.5 162 c 128,-1,44
 225 193 225 193 207.5 225.5 c 128,-1,45
 190 258 190 258 174 290 c 128,-1,46
 158 322 158 322 147 349 c 0,47,48
 138 371 138 371 133 371 c 0,49,50
 126 371 126 371 126 304 c 2,51,-1
 126 145 l 2,52,53
 126 67 126 67 113.5 33.5 c 128,-1,54
 101 0 101 0 72 0 c 0,0,1
340 547 m 0,55,56
 343 555 343 555 345.5 568 c 128,-1,57
 348 581 348 581 353 588 c 256,58,59
 358 595 358 595 354.5 598.5 c 128,-1,60
 351 602 351 602 348 603 c 0,61,62
 342 604 342 604 337 593 c 128,-1,63
 332 582 332 582 329 568 c 128,-1,64
 326 554 326 554 326 542.5 c 128,-1,65
 326 531 326 531 331 530 c 0,66,67
 332 530 332 530 334.5 533 c 128,-1,68
 337 536 337 536 340 547 c 0,55,56
44 544 m 0,69,70
 46 554 46 554 49 566.5 c 128,-1,71
 52 579 52 579 55 586 c 0,72,73
 62 600 62 600 55 600 c 0,74,75
 52 600 52 600 47.5 597 c 128,-1,76
 43 594 43 594 38 581 c 0,77,78
 35 575 35 575 33.5 564 c 128,-1,79
 32 553 32 553 31 543 c 128,-1,80
 30 533 30 533 31 525.5 c 128,-1,81
 32 518 32 518 35 518 c 0,82,83
 41 518 41 518 44 544 c 0,69,70
44 490 m 0,84,85
 44 492 44 492 43 494.5 c 128,-1,86
 42 497 42 497 39 497 c 0,87,88
 35 497 35 497 33.5 494 c 128,-1,89
 32 491 32 491 32 490 c 0,90,91
 32 481 32 481 37 481 c 0,92,93
 44 481 44 481 44 490 c 0,84,85
69 23 m 0,94,95
 69 27 69 27 59 39 c 128,-1,96
 49 51 49 51 49 74 c 0,97,98
 49 85 49 85 44 85 c 256,99,100
 39 85 39 85 39 71 c 0,101,102
 39 51 39 51 47.5 34.5 c 128,-1,103
 56 18 56 18 64 18 c 0,104,105
 69 18 69 18 69 23 c 0,94,95
EndSplineSet
EndChar

StartChar: O
Encoding: 79 79 18
Width: 444
GlyphClass: 2
Flags: W
LayerCount: 2
Fore
SplineSet
231 -9 m 0,0,1
 176 -9 176 -9 135.5 17.5 c 128,-1,2
 95 44 95 44 68.5 87.5 c 128,-1,3
 42 131 42 131 29 185.5 c 128,-1,4
 16 240 16 240 16 296 c 256,5,6
 16 352 16 352 28 410.5 c 128,-1,7
 40 469 40 469 66 516.5 c 128,-1,8
 92 564 92 564 133 594.5 c 128,-1,9
 174 625 174 625 232 625 c 0,10,11
 285 625 285 625 323 597.5 c 128,-1,12
 361 570 361 570 385.5 524 c 128,-1,13
 410 478 410 478 422 417.5 c 128,-1,14
 434 357 434 357 434 291 c 0,15,16
 434 236 434 236 422 182 c 128,-1,17
 410 128 410 128 385.5 85.5 c 128,-1,18
 361 43 361 43 322.5 17 c 128,-1,19
 284 -9 284 -9 231 -9 c 0,0,1
79 468 m 0,20,21
 82 468 82 468 86 473.5 c 128,-1,22
 90 479 90 479 94.5 487.5 c 128,-1,23
 99 496 99 496 104.5 505 c 128,-1,24
 110 514 110 514 115 521 c 0,25,26
 137 550 137 550 156.5 567 c 128,-1,27
 176 584 176 584 176 589 c 0,28,29
 176 592 176 592 171 593 c 0,30,31
 159 593 159 593 142.5 579 c 128,-1,32
 126 565 126 565 111 545.5 c 128,-1,33
 96 526 96 526 85.5 505.5 c 128,-1,34
 75 485 75 485 75 473 c 0,35,36
 75 468 75 468 79 468 c 0,20,21
231 71 m 0,37,38
 261 71 261 71 279.5 93.5 c 128,-1,39
 298 116 298 116 308.5 149.5 c 128,-1,40
 319 183 319 183 323 223 c 128,-1,41
 327 263 327 263 327 299 c 256,42,43
 327 335 327 335 324.5 376 c 128,-1,44
 322 417 322 417 312 452 c 128,-1,45
 302 487 302 487 283 510 c 128,-1,46
 264 533 264 533 232 533 c 0,47,48
 201 533 201 533 181 505 c 128,-1,49
 161 477 161 477 149.5 438.5 c 128,-1,50
 138 400 138 400 134 360 c 128,-1,51
 130 320 130 320 130 296 c 256,52,53
 130 272 130 272 133 233.5 c 128,-1,54
 136 195 136 195 146.5 159 c 128,-1,55
 157 123 157 123 177 97 c 128,-1,56
 197 71 197 71 231 71 c 0,37,38
80 446 m 256,57,58
 80 454 80 454 73 456 c 0,59,60
 70 456 70 456 65 452.5 c 128,-1,61
 60 449 60 449 60 441 c 0,62,63
 60 432 60 432 68 432 c 0,64,65
 71 432 71 432 75.5 435 c 128,-1,66
 80 438 80 438 80 446 c 256,57,58
EndSplineSet
Substitution2: "Single Substitution lookup 5 subtable" ordmasculine
EndChar

StartChar: P
Encoding: 80 80 19
Width: 396
GlyphClass: 2
Flags: W
LayerCount: 2
Fore
SplineSet
71 0 m 0,0,1
 51 0 51 0 34 15 c 128,-1,2
 17 30 17 30 17 69 c 2,3,-1
 17 526 l 2,4,5
 17 547 17 547 25.5 564 c 128,-1,6
 34 581 34 581 48.5 592.5 c 128,-1,7
 63 604 63 604 81.5 610 c 128,-1,8
 100 616 100 616 120 616 c 2,9,-1
 179 616 l 2,10,11
 210 616 210 616 245.5 604 c 128,-1,12
 281 592 281 592 311 566 c 128,-1,13
 341 540 341 540 361 498 c 128,-1,14
 381 456 381 456 381 397 c 256,15,16
 381 338 381 338 361.5 291.5 c 128,-1,17
 342 245 342 245 313 213.5 c 128,-1,18
 284 182 284 182 250 165.5 c 128,-1,19
 216 149 216 149 186 149 c 2,20,-1
 157 149 l 2,21,22
 148 149 148 149 139.5 145 c 128,-1,23
 131 141 131 141 131 132 c 2,24,-1
 131 65 l 2,25,26
 131 47 131 47 125.5 35 c 128,-1,27
 120 23 120 23 111 15 c 128,-1,28
 102 7 102 7 91.5 3.5 c 128,-1,29
 81 0 81 0 71 0 c 0,0,1
175 238 m 2,30,31
 192 238 192 238 208 246 c 128,-1,32
 224 254 224 254 237.5 271.5 c 128,-1,33
 251 289 251 289 259 317 c 128,-1,34
 267 345 267 345 267 385 c 0,35,36
 267 428 267 428 259 456.5 c 128,-1,37
 251 485 251 485 238 501.5 c 128,-1,38
 225 518 225 518 209 525 c 128,-1,39
 193 532 193 532 178 532 c 2,40,-1
 156 532 l 2,41,42
 131 532 131 532 131 498 c 2,43,-1
 131 261 l 2,44,45
 131 238 131 238 162 238 c 2,46,-1
 175 238 l 2,30,31
57 35 m 256,47,48
 52 40 52 40 48.5 53 c 128,-1,49
 45 66 45 66 45 80 c 0,50,51
 45 105 45 105 38 105 c 0,52,53
 33 105 33 105 31.5 96.5 c 128,-1,54
 30 88 30 88 30 76 c 0,55,56
 30 52 30 52 37 36 c 128,-1,57
 44 20 44 20 54 20 c 0,58,59
 56 20 56 20 59 22 c 128,-1,60
 62 24 62 24 62 26 c 0,61,62
 62 30 62 30 57 35 c 256,47,48
EndSplineSet
EndChar

StartChar: Q
Encoding: 81 81 20
Width: 454
GlyphClass: 2
Flags: W
LayerCount: 2
Fore
SplineSet
438 291 m 0,0,1
 438 236 438 236 426.5 195.5 c 128,-1,2
 415 155 415 155 401 128 c 128,-1,3
 387 101 387 101 375.5 85.5 c 128,-1,4
 364 70 364 70 364 64 c 0,5,6
 364 61 364 61 372 60 c 128,-1,7
 380 59 380 59 390.5 58.5 c 128,-1,8
 401 58 401 58 410.5 58.5 c 128,-1,9
 420 59 420 59 423 59 c 0,10,11
 437 59 437 59 439 45 c 128,-1,12
 441 31 441 31 441 20 c 0,13,14
 441 5 441 5 437.5 -1.5 c 128,-1,15
 434 -8 434 -8 427.5 -10 c 128,-1,16
 421 -12 421 -12 411 -11 c 128,-1,17
 401 -10 401 -10 388 -10 c 2,18,-1
 350 -10 l 1,19,-1
 273 -9 l 1,20,-1
 235 -9 l 2,21,22
 179 -9 179 -9 138.5 21 c 128,-1,23
 98 51 98 51 71.5 96.5 c 128,-1,24
 45 142 45 142 32.5 195.5 c 128,-1,25
 20 249 20 249 20 296 c 256,26,27
 20 343 20 343 32 400.5 c 128,-1,28
 44 458 44 458 70 508 c 128,-1,29
 96 558 96 558 137 591.5 c 128,-1,30
 178 625 178 625 236 625 c 0,31,32
 301 625 301 625 340.5 591.5 c 128,-1,33
 380 558 380 558 401.5 508 c 128,-1,34
 423 458 423 458 430.5 399.5 c 128,-1,35
 438 341 438 341 438 291 c 0,0,1
87 483 m 0,36,37
 90 483 90 483 94 488 c 128,-1,38
 98 493 98 493 103 501 c 128,-1,39
 108 509 108 509 114 518 c 128,-1,40
 120 527 120 527 126 534 c 0,41,42
 149 561 149 561 170 577 c 128,-1,43
 191 593 191 593 192 597 c 0,44,45
 192 602 192 602 188 602 c 0,46,47
 181 603 181 603 172 598 c 128,-1,48
 163 593 163 593 153 585.5 c 128,-1,49
 143 578 143 578 133.5 568 c 128,-1,50
 124 558 124 558 116 549 c 0,51,52
 99 526 99 526 91.5 510.5 c 128,-1,53
 84 495 84 495 83 487 c 0,54,55
 83 483 83 483 87 483 c 0,36,37
235 71 m 0,56,57
 271 71 271 71 290.5 97 c 128,-1,58
 310 123 310 123 319 159.5 c 128,-1,59
 328 196 328 196 329.5 235 c 128,-1,60
 331 274 331 274 331 299 c 0,61,62
 331 335 331 335 328.5 376 c 128,-1,63
 326 417 326 417 316 452 c 128,-1,64
 306 487 306 487 287 510 c 128,-1,65
 268 533 268 533 236 533 c 0,66,67
 205 533 205 533 185 505 c 128,-1,68
 165 477 165 477 153.5 438.5 c 128,-1,69
 142 400 142 400 138 360 c 128,-1,70
 134 320 134 320 134 296 c 256,71,72
 134 272 134 272 137 233.5 c 128,-1,73
 140 195 140 195 150.5 159 c 128,-1,74
 161 123 161 123 181 97 c 128,-1,75
 201 71 201 71 235 71 c 0,56,57
86 460 m 0,76,77
 86 464 86 464 84 467.5 c 128,-1,78
 82 471 82 471 80 471 c 0,79,80
 77 471 77 471 72 468 c 128,-1,81
 67 465 67 465 66 457 c 0,82,83
 65 448 65 448 73 448 c 0,84,85
 76 447 76 447 80.5 450 c 128,-1,86
 85 453 85 453 86 460 c 0,76,77
EndSplineSet
EndChar

StartChar: R
Encoding: 82 82 21
Width: 365
GlyphClass: 2
Flags: W
LayerCount: 2
Fore
SplineSet
313 0 m 0,0,1
 302 0 302 0 294 4.5 c 128,-1,2
 286 9 286 9 280.5 15.5 c 128,-1,3
 275 22 275 22 271 29.5 c 128,-1,4
 267 37 267 37 264 44 c 0,5,6
 260 53 260 53 252 70.5 c 128,-1,7
 244 88 244 88 234.5 109.5 c 128,-1,8
 225 131 225 131 214 153 c 128,-1,9
 203 175 203 175 192 193.5 c 128,-1,10
 181 212 181 212 170.5 223.5 c 128,-1,11
 160 235 160 235 152 235 c 2,12,-1
 142 235 l 2,13,14
 137 235 137 235 133 227.5 c 128,-1,15
 129 220 129 220 129 208 c 2,16,-1
 129 68 l 2,17,18
 129 37 129 37 113.5 18.5 c 128,-1,19
 98 0 98 0 69 0 c 0,20,21
 54 0 54 0 44 7.5 c 128,-1,22
 34 15 34 15 28.5 26 c 128,-1,23
 23 37 23 37 21 48.5 c 128,-1,24
 19 60 19 60 19 69 c 2,25,-1
 19 527 l 2,26,27
 19 553 19 553 21 570 c 128,-1,28
 23 587 23 587 30 597.5 c 128,-1,29
 37 608 37 608 50 612 c 128,-1,30
 63 616 63 616 85 616 c 2,31,-1
 168 616 l 2,32,33
 201 616 201 616 232.5 606 c 128,-1,34
 264 596 264 596 289 575.5 c 128,-1,35
 314 555 314 555 329 522.5 c 128,-1,36
 344 490 344 490 344 445 c 0,37,38
 344 407 344 407 334.5 377 c 128,-1,39
 325 347 325 347 310 325 c 128,-1,40
 295 303 295 303 277.5 289 c 128,-1,41
 260 275 260 275 243 269 c 0,42,43
 237 267 237 267 237 261 c 0,44,45
 237 257 237 257 242 252 c 0,46,47
 263 231 263 231 284.5 208 c 128,-1,48
 306 185 306 185 324 159 c 128,-1,49
 342 133 342 133 353.5 103.5 c 128,-1,50
 365 74 365 74 365 40 c 0,51,52
 365 20 365 20 348 10 c 128,-1,53
 331 0 331 0 313 0 c 0,0,1
173 331 m 2,54,55
 203 331 203 331 224 363.5 c 128,-1,56
 245 396 245 396 245 445 c 0,57,58
 245 484 245 484 230 504 c 128,-1,59
 215 524 215 524 176 526 c 2,60,-1
 152 527 l 2,61,62
 139 528 139 528 136 523 c 128,-1,63
 133 518 133 518 133 503 c 2,64,-1
 133 344 l 2,65,66
 133 331 133 331 151 331 c 2,67,-1
 173 331 l 2,54,55
67 27 m 256,68,69
 67 32 67 32 63 33 c 128,-1,70
 59 34 59 34 57 39 c 0,71,72
 53 49 53 49 50.5 59 c 128,-1,73
 48 69 48 69 46.5 77.5 c 128,-1,74
 45 86 45 86 43.5 91 c 128,-1,75
 42 96 42 96 39 96 c 0,76,77
 32 96 32 96 32 78 c 0,78,79
 32 74 32 74 34 64 c 128,-1,80
 36 54 36 54 39.5 43.5 c 128,-1,81
 43 33 43 33 48 25 c 128,-1,82
 53 17 53 17 59 17 c 0,83,84
 61 17 61 17 64 19.5 c 128,-1,85
 67 22 67 22 67 27 c 256,68,69
310 20 m 0,86,87
 309 23 309 23 303.5 27 c 128,-1,88
 298 31 298 31 296 35 c 256,89,90
 294 39 294 39 289.5 50.5 c 128,-1,91
 285 62 285 62 284 72 c 0,92,93
 284 80 284 80 281 87.5 c 128,-1,94
 278 95 278 95 276 95 c 0,95,96
 272 94 272 94 270.5 84 c 128,-1,97
 269 74 269 74 270 60 c 0,98,99
 270 53 270 53 272.5 45 c 128,-1,100
 275 37 275 37 279 30 c 128,-1,101
 283 23 283 23 288.5 18.5 c 128,-1,102
 294 14 294 14 301 14 c 0,103,104
 310 14 310 14 310 20 c 0,86,87
EndSplineSet
EndChar

StartChar: S
Encoding: 83 83 22
Width: 357
GlyphClass: 2
Flags: W
LayerCount: 2
Fore
SplineSet
175 -9 m 0,0,1
 144 -9 144 -9 114.5 2.5 c 128,-1,2
 85 14 85 14 62.5 33 c 128,-1,3
 40 52 40 52 26 76.5 c 128,-1,4
 12 101 12 101 12 127 c 0,5,6
 12 158 12 158 30 178 c 128,-1,7
 48 198 48 198 75 196 c 0,8,9
 92 195 92 195 99.5 183.5 c 128,-1,10
 107 172 107 172 107 146 c 0,11,12
 107 109 107 109 120.5 92.5 c 128,-1,13
 134 76 134 76 165 76 c 0,14,15
 229 76 229 76 229 141 c 0,16,17
 229 162 229 162 222.5 180 c 128,-1,18
 216 198 216 198 205.5 213 c 128,-1,19
 195 228 195 228 182 242 c 128,-1,20
 169 256 169 256 155 269 c 0,21,22
 83 341 83 341 52.5 389 c 128,-1,23
 22 437 22 437 22 477 c 0,24,25
 22 546 22 546 64.5 585 c 128,-1,26
 107 624 107 624 181 624 c 0,27,28
 207 624 207 624 232.5 615.5 c 128,-1,29
 258 607 258 607 278.5 594 c 128,-1,30
 299 581 299 581 312 564.5 c 128,-1,31
 325 548 325 548 325 531 c 0,32,33
 325 501 325 501 307.5 476.5 c 128,-1,34
 290 452 290 452 264 452 c 0,35,36
 252 452 252 452 238.5 462 c 128,-1,37
 225 472 225 472 224 489 c 0,38,39
 222 531 222 531 177 531 c 0,40,41
 135 531 135 531 135 483 c 0,42,43
 135 468 135 468 139 453.5 c 128,-1,44
 143 439 143 439 153.5 422 c 128,-1,45
 164 405 164 405 181.5 384.5 c 128,-1,46
 199 364 199 364 226 337 c 0,47,48
 259 304 259 304 281 278 c 128,-1,49
 303 252 303 252 316.5 230 c 128,-1,50
 330 208 330 208 335.5 189 c 128,-1,51
 341 170 341 170 341 151 c 0,52,53
 341 116 341 116 328.5 86.5 c 128,-1,54
 316 57 316 57 294 36 c 128,-1,55
 272 15 272 15 241.5 3 c 128,-1,56
 211 -9 211 -9 175 -9 c 0,0,1
80 543 m 0,57,58
 84 550 84 550 91 559.5 c 128,-1,59
 98 569 98 569 106 575 c 0,60,61
 114 580 114 580 116.5 586.5 c 128,-1,62
 119 593 119 593 116 593 c 0,63,64
 110 594 110 594 100 586.5 c 128,-1,65
 90 579 90 579 81 568 c 128,-1,66
 72 557 72 557 65 545 c 128,-1,67
 58 533 58 533 57 524 c 0,68,69
 57 518 57 518 63 518 c 0,70,71
 68 517 68 517 71 525 c 128,-1,72
 74 533 74 533 80 543 c 0,57,58
64 498 m 0,73,74
 64 505 64 505 58 505 c 0,75,76
 55 505 55 505 52.5 502 c 128,-1,77
 50 499 50 499 50 497 c 0,78,79
 50 492 50 492 57 491 c 0,80,81
 62 491 62 491 64 498 c 0,73,74
49 129 m 256,82,83
 54 143 54 143 59.5 152 c 128,-1,84
 65 161 65 161 66 169 c 0,85,86
 66 174 66 174 63 174 c 0,87,88
 55 175 55 175 48 168.5 c 128,-1,89
 41 162 41 162 36.5 152 c 128,-1,90
 32 142 32 142 31 129.5 c 128,-1,91
 30 117 30 117 34 105 c 0,92,93
 38 95 38 95 42 95 c 0,94,95
 47 95 47 95 45.5 105 c 128,-1,96
 44 115 44 115 49 129 c 256,82,83
EndSplineSet
EndChar

StartChar: T
Encoding: 84 84 23
Width: 323
GlyphClass: 2
Flags: W
LayerCount: 2
Fore
SplineSet
162 0 m 0,0,1
 154 0 154 0 145 3 c 128,-1,2
 136 6 136 6 128 11 c 128,-1,3
 120 16 120 16 114.5 23.5 c 128,-1,4
 109 31 109 31 109 40 c 2,5,-1
 109 525 l 1,6,7
 97 525 97 525 79 525 c 128,-1,8
 61 525 61 525 44.5 529 c 128,-1,9
 28 533 28 533 16.5 542.5 c 128,-1,10
 5 552 5 552 5 570 c 0,11,12
 5 592 5 592 19 604 c 128,-1,13
 33 616 33 616 54 616 c 2,14,-1
 284 616 l 2,15,16
 300 616 300 616 308.5 602 c 128,-1,17
 317 588 317 588 317 574 c 0,18,19
 317 556 317 556 308.5 546.5 c 128,-1,20
 300 537 300 537 287 532 c 128,-1,21
 274 527 274 527 258.5 526 c 128,-1,22
 243 525 243 525 230 525 c 2,23,-1
 222 525 l 1,24,-1
 222 47 l 2,25,26
 222 24 222 24 202 12 c 128,-1,27
 182 0 182 0 162 0 c 0,0,1
28 553 m 256,28,29
 33 553 33 553 33 560 c 0,30,31
 33 568 33 568 36 578.5 c 128,-1,32
 39 589 39 589 45 598 c 0,33,34
 48 603 48 603 40 603 c 0,35,36
 31 603 31 603 25 591.5 c 128,-1,37
 19 580 19 580 19 569 c 0,38,39
 19 565 19 565 21 559 c 128,-1,40
 23 553 23 553 28 553 c 256,28,29
143 23 m 0,41,42
 152 23 152 23 152 32 c 0,43,44
 152 36 152 36 148 37 c 0,45,46
 142 39 142 39 139.5 49.5 c 128,-1,47
 137 60 137 60 137 65 c 0,48,49
 137 67 137 67 137.5 73 c 128,-1,50
 138 79 138 79 138 85 c 128,-1,51
 138 91 138 91 137 95.5 c 128,-1,52
 136 100 136 100 132 100 c 256,53,54
 128 100 128 100 126 96 c 128,-1,55
 124 92 124 92 123 86.5 c 128,-1,56
 122 81 122 81 121.5 75.5 c 128,-1,57
 121 70 121 70 121 68 c 0,58,59
 121 64 121 64 122 56 c 128,-1,60
 123 48 123 48 125.5 41 c 128,-1,61
 128 34 128 34 132.5 28.5 c 128,-1,62
 137 23 137 23 143 23 c 0,41,42
EndSplineSet
EndChar

StartChar: U
Encoding: 85 85 24
Width: 423
GlyphClass: 2
Flags: W
LayerCount: 2
Fore
SplineSet
208 -4 m 0,0,1
 163 -4 163 -4 126.5 12.5 c 128,-1,2
 90 29 90 29 65 58.5 c 128,-1,3
 40 88 40 88 26.5 129.5 c 128,-1,4
 13 171 13 171 13 221 c 2,5,-1
 13 530 l 2,6,7
 13 540 13 540 15 555 c 128,-1,8
 17 570 17 570 23 583.5 c 128,-1,9
 29 597 29 597 39.5 606.5 c 128,-1,10
 50 616 50 616 66 616 c 0,11,12
 99 616 99 616 113 599 c 128,-1,13
 127 582 127 582 127 528 c 2,14,-1
 127 228 l 2,15,16
 127 204 127 204 127 179.5 c 128,-1,17
 127 155 127 155 134.5 135.5 c 128,-1,18
 142 116 142 116 159.5 103.5 c 128,-1,19
 177 91 177 91 212 91 c 0,20,21
 245 91 245 91 262 110 c 128,-1,22
 279 129 279 129 286.5 157.5 c 128,-1,23
 294 186 294 186 294.5 220 c 128,-1,24
 295 254 295 254 295 284 c 2,25,-1
 295 531 l 2,26,27
 295 541 295 541 297 556 c 128,-1,28
 299 571 299 571 304.5 584.5 c 128,-1,29
 310 598 310 598 319.5 608 c 128,-1,30
 329 618 329 618 345 618 c 0,31,32
 376 618 376 618 392 597.5 c 128,-1,33
 408 577 408 577 408 532 c 2,34,-1
 408 246 l 2,35,36
 408 189 408 189 395.5 143 c 128,-1,37
 383 97 383 97 357.5 64.5 c 128,-1,38
 332 32 332 32 295 14 c 128,-1,39
 258 -4 258 -4 208 -4 c 0,0,1
323 556 m 0,40,41
 323 560 323 560 326 568 c 128,-1,42
 329 576 329 576 336 584 c 0,43,44
 344 595 344 595 344.5 599 c 128,-1,45
 345 603 345 603 336 603 c 0,46,47
 331 603 331 603 326.5 598 c 128,-1,48
 322 593 322 593 319 588 c 0,49,50
 317 583 317 583 313.5 575 c 128,-1,51
 310 567 310 567 309 558 c 0,52,53
 309 553 309 553 310 548.5 c 128,-1,54
 311 544 311 544 316 544 c 256,55,56
 321 544 321 544 322 547.5 c 128,-1,57
 323 551 323 551 323 556 c 0,40,41
55 570 m 0,58,59
 59 579 59 579 64.5 585 c 128,-1,60
 70 591 70 591 70 598 c 0,61,62
 70 603 70 603 67 603 c 256,63,64
 64 603 64 603 58 600.5 c 128,-1,65
 52 598 52 598 47 590 c 0,66,67
 32 569 32 569 30 552 c 128,-1,68
 28 535 28 535 34 535 c 0,69,70
 39 535 39 535 44.5 545.5 c 128,-1,71
 50 556 50 556 55 570 c 0,58,59
124 48 m 0,72,73
 124 51 124 51 116.5 57 c 128,-1,74
 109 63 109 63 101 72 c 0,75,76
 93 80 93 80 82.5 93.5 c 128,-1,77
 72 107 72 107 65 122 c 0,78,79
 60 132 60 132 55.5 136 c 128,-1,80
 51 140 51 140 49 140 c 0,81,82
 45 140 45 140 45 133 c 0,83,84
 45 125 45 125 53 109.5 c 128,-1,85
 61 94 61 94 72 79 c 128,-1,86
 83 64 83 64 95.5 53 c 128,-1,87
 108 42 108 42 118 42 c 0,88,89
 124 42 124 42 124 48 c 0,72,73
147 39 m 0,90,91
 147 40 147 40 144.5 43 c 128,-1,92
 142 46 142 46 139 46 c 0,93,94
 134 45 134 45 132 42 c 128,-1,95
 130 39 130 39 130 37 c 0,96,97
 131 34 131 34 132 31.5 c 128,-1,98
 133 29 133 29 138 30 c 0,99,100
 147 30 147 30 147 39 c 0,90,91
EndSplineSet
EndChar

StartChar: V
Encoding: 86 86 25
Width: 432
GlyphClass: 2
Flags: W
LayerCount: 2
Fore
SplineSet
219 -5 m 256,0,1
 196 -5 196 -5 181 0.5 c 128,-1,2
 166 6 166 6 156.5 14.5 c 128,-1,3
 147 23 147 23 142 33 c 128,-1,4
 137 43 137 43 134 52 c 0,5,6
 111 125 111 125 88.5 203.5 c 128,-1,7
 66 282 66 282 48.5 353 c 128,-1,8
 31 424 31 424 20.5 482 c 128,-1,9
 10 540 10 540 10 571 c 0,10,11
 10 586 10 586 16 594.5 c 128,-1,12
 22 603 22 603 31 608 c 128,-1,13
 40 613 40 613 51.5 614.5 c 128,-1,14
 63 616 63 616 73 616 c 0,15,16
 88 616 88 616 97.5 600 c 128,-1,17
 107 584 107 584 116 543 c 0,18,19
 121 520 121 520 129.5 482.5 c 128,-1,20
 138 445 138 445 148.5 402 c 128,-1,21
 159 359 159 359 169.5 315.5 c 128,-1,22
 180 272 180 272 188.5 235.5 c 128,-1,23
 197 199 197 199 203.5 174.5 c 128,-1,24
 210 150 210 150 211 146 c 0,25,26
 213 138 213 138 215.5 132 c 128,-1,27
 218 126 218 126 220 126 c 0,28,29
 226 126 226 126 231 146 c 0,30,31
 238 170 238 170 247.5 211 c 128,-1,32
 257 252 257 252 268 300.5 c 128,-1,33
 279 349 279 349 290.5 399.5 c 128,-1,34
 302 450 302 450 312.5 493.5 c 128,-1,35
 323 537 323 537 332.5 567.5 c 128,-1,36
 342 598 342 598 348 607 c 0,37,38
 355 617 355 617 369 617 c 0,39,40
 372 617 372 617 381 615 c 128,-1,41
 390 613 390 613 399 610 c 128,-1,42
 408 607 408 607 415 602 c 128,-1,43
 422 597 422 597 422 591 c 0,44,45
 422 579 422 579 413.5 536 c 128,-1,46
 405 493 405 493 391 435 c 128,-1,47
 377 377 377 377 360.5 310.5 c 128,-1,48
 344 244 344 244 327.5 185.5 c 128,-1,49
 311 127 311 127 297.5 83.5 c 128,-1,50
 284 40 284 40 277 27 c 0,51,52
 271 16 271 16 256.5 5.5 c 128,-1,53
 242 -5 242 -5 219 -5 c 256,0,1
359 569 m 0,54,55
 364 582 364 582 366 592 c 128,-1,56
 368 602 368 602 363 601 c 0,57,58
 359 600 359 600 354.5 594.5 c 128,-1,59
 350 589 350 589 347 581 c 128,-1,60
 344 573 344 573 342.5 565 c 128,-1,61
 341 557 341 557 342 552 c 0,62,63
 344 544 344 544 348 544 c 0,64,65
 353 546 353 546 353.5 550.5 c 128,-1,66
 354 555 354 555 359 569 c 0,54,55
38 556 m 0,67,68
 37 564 37 564 37 572 c 128,-1,69
 37 580 37 580 40 585 c 0,70,71
 48 602 48 602 39 600 c 0,72,73
 31 599 31 599 27 582.5 c 128,-1,74
 23 566 23 566 25 546 c 0,75,76
 26 531 26 531 33 533 c 0,77,78
 39 533 39 533 38 556 c 0,67,68
174 46 m 0,79,80
 164 58 164 58 161 72 c 128,-1,81
 158 86 158 86 152 86 c 0,82,83
 149 86 149 86 149 80.5 c 128,-1,84
 149 75 149 75 150.5 67.5 c 128,-1,85
 152 60 152 60 155.5 51.5 c 128,-1,86
 159 43 159 43 163 36 c 0,87,88
 171 22 171 22 184.5 17.5 c 128,-1,89
 198 13 198 13 200 13 c 0,90,91
 205 14 205 14 195 23 c 128,-1,92
 185 32 185 32 174 46 c 0,79,80
EndSplineSet
EndChar

StartChar: W
Encoding: 87 87 26
Width: 579
GlyphClass: 2
Flags: W
LayerCount: 2
Fore
SplineSet
392 0 m 0,0,1
 369 0 369 0 352.5 6 c 128,-1,2
 336 12 336 12 324.5 23.5 c 128,-1,3
 313 35 313 35 305 51 c 128,-1,4
 297 67 297 67 290 87 c 0,5,6
 289 91 289 91 288 97 c 128,-1,7
 287 103 287 103 285.5 109 c 128,-1,8
 284 115 284 115 282.5 119 c 128,-1,9
 281 123 281 123 279 123 c 256,10,11
 277 123 277 123 275 115.5 c 128,-1,12
 273 108 273 108 269 97 c 0,13,14
 259 71 259 71 250 52.5 c 128,-1,15
 241 34 241 34 229.5 22.5 c 128,-1,16
 218 11 218 11 204 5.5 c 128,-1,17
 190 0 190 0 170 0 c 0,18,19
 130 0 130 0 100.5 13.5 c 128,-1,20
 71 27 71 27 52 51.5 c 128,-1,21
 33 76 33 76 24 109.5 c 128,-1,22
 15 143 15 143 15 183 c 2,23,-1
 15 538 l 2,24,25
 15 548 15 548 18 561.5 c 128,-1,26
 21 575 21 575 28 587 c 128,-1,27
 35 599 35 599 46.5 607.5 c 128,-1,28
 58 616 58 616 76 616 c 0,29,30
 105 616 105 616 116 595.5 c 128,-1,31
 127 575 127 575 127 543 c 2,32,-1
 128 193 l 2,33,34
 128 183 128 183 130 166.5 c 128,-1,35
 132 150 132 150 136.5 134 c 128,-1,36
 141 118 141 118 150 106.5 c 128,-1,37
 159 95 159 95 172 95 c 0,38,39
 195 95 195 95 208.5 129 c 128,-1,40
 222 163 222 163 229 219 c 128,-1,41
 236 275 236 275 237.5 346.5 c 128,-1,42
 239 418 239 418 239 494 c 0,43,44
 239 558 239 558 249 582.5 c 128,-1,45
 259 607 259 607 289 607 c 0,46,47
 303 607 303 607 312 602 c 128,-1,48
 321 597 321 597 327 581 c 128,-1,49
 333 565 333 565 335.5 535 c 128,-1,50
 338 505 338 505 338 455 c 0,51,52
 338 376 338 376 338 323.5 c 128,-1,53
 338 271 338 271 339.5 236.5 c 128,-1,54
 341 202 341 202 343.5 181.5 c 128,-1,55
 346 161 346 161 351 146 c 0,56,57
 360 117 360 117 370 105.5 c 128,-1,58
 380 94 380 94 393 94 c 0,59,60
 452 94 452 94 452 239 c 2,61,-1
 452 555 l 2,62,63
 452 566 452 566 454 577 c 128,-1,64
 456 588 456 588 461.5 596.5 c 128,-1,65
 467 605 467 605 477 610.5 c 128,-1,66
 487 616 487 616 502 616 c 0,67,68
 534 616 534 616 548.5 598.5 c 128,-1,69
 563 581 563 581 563 555 c 2,70,-1
 563 220 l 2,71,72
 563 178 563 178 551.5 138.5 c 128,-1,73
 540 99 540 99 518.5 68 c 128,-1,74
 497 37 497 37 465 18.5 c 128,-1,75
 433 0 433 0 392 0 c 0,0,1
40 531 m 0,76,77
 47 531 47 531 49.5 538 c 128,-1,78
 52 545 52 545 53 550 c 0,79,80
 55 564 55 564 64 573.5 c 128,-1,81
 73 583 73 583 79 595 c 0,82,83
 79 597 79 597 77 600 c 128,-1,84
 75 603 75 603 72 603 c 0,85,86
 66 603 66 603 59 596.5 c 128,-1,87
 52 590 52 590 46 581 c 128,-1,88
 40 572 40 572 36.5 561.5 c 128,-1,89
 33 551 33 551 33 543 c 0,90,91
 33 539 33 539 34 535 c 128,-1,92
 35 531 35 531 40 531 c 0,76,77
485 549 m 0,93,94
 485 559 485 559 488 567 c 128,-1,95
 491 575 491 575 495 582 c 0,96,97
 500 590 500 590 499 595 c 128,-1,98
 498 600 498 600 495 600 c 0,99,100
 490 600 490 600 483.5 596.5 c 128,-1,101
 477 593 477 593 473 583 c 0,102,103
 468 567 468 567 469.5 552 c 128,-1,104
 471 537 471 537 479 537 c 0,105,106
 481 537 481 537 483 540.5 c 128,-1,107
 485 544 485 544 485 549 c 0,93,94
266 543 m 0,108,109
 266 544 266 544 268 553.5 c 128,-1,110
 270 563 270 563 273 569 c 0,111,112
 280 582 280 582 282 587 c 128,-1,113
 284 592 284 592 281 592 c 0,114,115
 279 592 279 592 273.5 590 c 128,-1,116
 268 588 268 588 263 581 c 0,117,118
 252 566 252 566 252.5 549 c 128,-1,119
 253 532 253 532 261 532 c 0,120,121
 266 532 266 532 266 543 c 0,108,109
117 37 m 0,122,123
 116 42 116 42 103 51 c 128,-1,124
 90 60 90 60 84 67 c 0,125,126
 73 78 73 78 68.5 89 c 128,-1,127
 64 100 64 100 59 99 c 0,128,129
 55 99 55 99 55.5 92 c 128,-1,130
 56 85 56 85 60.5 75 c 128,-1,131
 65 65 65 65 74 54 c 128,-1,132
 83 43 83 43 96 34 c 0,133,134
 105 27 105 27 112 29 c 0,135,136
 117 29 117 29 117 37 c 0,122,123
383 22 m 0,137,138
 383 26 383 26 379.5 27 c 128,-1,139
 376 28 376 28 373 28 c 0,140,141
 368 29 368 29 358 38 c 128,-1,142
 348 47 348 47 342 57 c 0,143,144
 332 72 332 72 324 74 c 0,145,146
 321 74 321 74 321 69 c 0,147,148
 321 67 321 67 324.5 59 c 128,-1,149
 328 51 328 51 335 42 c 128,-1,150
 342 33 342 33 351.5 25.5 c 128,-1,151
 361 18 361 18 372 17 c 0,152,153
 376 17 376 17 379 17 c 128,-1,154
 382 17 382 17 383 22 c 0,137,138
EndSplineSet
EndChar

StartChar: X
Encoding: 88 88 27
Width: 424
GlyphClass: 2
Flags: W
LayerCount: 2
Fore
SplineSet
42 -3 m 0,0,1
 27 -3 27 -3 15.5 7.5 c 128,-1,2
 4 18 4 18 4 29 c 0,3,4
 4 36 4 36 8 43 c 2,5,-1
 137 265 l 2,6,7
 153 293 153 293 153 304 c 0,8,9
 153 310 153 310 149 318.5 c 128,-1,10
 145 327 145 327 140 335 c 2,11,-1
 28 526 l 2,12,13
 23 535 23 535 18.5 547 c 128,-1,14
 14 559 14 559 14 574 c 0,15,16
 14 588 14 588 28.5 602 c 128,-1,17
 43 616 43 616 70 616 c 0,18,19
 76 616 76 616 81.5 614 c 128,-1,20
 87 612 87 612 93 606 c 128,-1,21
 99 600 99 600 106 589.5 c 128,-1,22
 113 579 113 579 123 562 c 2,23,-1
 201 430 l 2,24,25
 207 420 207 420 210.5 414 c 128,-1,26
 214 408 214 408 216 408 c 256,27,28
 218 408 218 408 230 430 c 2,29,-1
 325 602 l 2,30,31
 329 610 329 610 336 613 c 128,-1,32
 343 616 343 616 350 616 c 256,33,34
 357 616 357 616 368.5 613 c 128,-1,35
 380 610 380 610 390 603 c 128,-1,36
 400 596 400 596 404.5 586 c 128,-1,37
 409 576 409 576 401 561 c 2,38,-1
 288 353 l 2,39,40
 272 324 272 324 272 316 c 0,41,42
 272 312 272 312 278.5 301.5 c 128,-1,43
 285 291 285 291 299 265 c 2,44,-1
 422 43 l 2,45,46
 425 39 425 39 421 31.5 c 128,-1,47
 417 24 417 24 408 17 c 128,-1,48
 399 10 399 10 386 5 c 128,-1,49
 373 0 373 0 358 0 c 0,50,51
 353 0 353 0 345.5 2 c 128,-1,52
 338 4 338 4 334 11 c 2,53,-1
 231 189 l 2,54,55
 226 198 226 198 221.5 205.5 c 128,-1,56
 217 213 217 213 213 213 c 256,57,58
 209 213 209 213 205.5 207 c 128,-1,59
 202 201 202 201 193 186 c 2,60,-1
 100 34 l 2,61,62
 87 13 87 13 73 5 c 128,-1,63
 59 -3 59 -3 42 -3 c 0,0,1
344 576 m 0,64,65
 344 582 344 582 355 593 c 256,66,67
 366 604 366 604 360 604 c 0,68,69
 355 604 355 604 349 601.5 c 128,-1,70
 343 599 343 599 338 591 c 0,71,72
 332 580 332 580 333.5 575.5 c 128,-1,73
 335 571 335 571 338 571 c 0,74,75
 344 571 344 571 344 576 c 0,64,65
45 563 m 0,76,77
 45 575 45 575 50.5 579.5 c 128,-1,78
 56 584 56 584 55 588 c 0,79,80
 53 596 53 596 46 596 c 0,81,82
 42 596 42 596 38 590.5 c 128,-1,83
 34 585 34 585 32 577 c 128,-1,84
 30 569 30 569 30.5 560 c 128,-1,85
 31 551 31 551 35 544 c 0,86,87
 39 538 39 538 43 539 c 0,88,89
 48 541 48 541 46.5 549.5 c 128,-1,90
 45 558 45 558 45 563 c 0,76,77
365 13 m 0,91,92
 368 18 368 18 354 27 c 0,93,94
 351 29 351 29 347 34.5 c 128,-1,95
 343 40 343 40 340 46 c 128,-1,96
 337 52 337 52 334 57 c 128,-1,97
 331 62 331 62 329 62 c 0,98,99
 324 62 324 62 324 56 c 0,100,101
 324 52 324 52 326.5 45 c 128,-1,102
 329 38 329 38 333.5 30.5 c 128,-1,103
 338 23 338 23 343.5 17 c 128,-1,104
 349 11 349 11 355 10 c 0,105,106
 358 10 358 10 361.5 10 c 128,-1,107
 365 10 365 10 365 13 c 0,91,92
33 20 m 0,108,109
 31 24 31 24 26.5 30 c 128,-1,110
 22 36 22 36 24 41 c 0,111,112
 26 49 26 49 23.5 49 c 128,-1,113
 21 49 21 49 18 43 c 0,114,115
 14 35 14 35 17.5 25 c 128,-1,116
 21 15 21 15 26 13 c 0,117,118
 30 11 30 11 33 12.5 c 128,-1,119
 36 14 36 14 33 20 c 0,108,109
EndSplineSet
EndChar

StartChar: Y
Encoding: 89 89 28
Width: 417
GlyphClass: 2
Flags: W
LayerCount: 2
Fore
SplineSet
208 0 m 0,0,1
 182 0 182 0 168.5 16.5 c 128,-1,2
 155 33 155 33 155 52 c 2,3,-1
 155 191 l 2,4,5
 155 204 155 204 153.5 214.5 c 128,-1,6
 152 225 152 225 148.5 236 c 128,-1,7
 145 247 145 247 139 260.5 c 128,-1,8
 133 274 133 274 124 294 c 2,9,-1
 5 556 l 2,10,11
 2 563 2 563 4.5 573.5 c 128,-1,12
 7 584 7 584 14.5 593.5 c 128,-1,13
 22 603 22 603 34 609.5 c 128,-1,14
 46 616 46 616 62 616 c 0,15,16
 71 616 71 616 79.5 611.5 c 128,-1,17
 88 607 88 607 93 595 c 2,18,-1
 186 377 l 2,19,20
 191 366 191 366 197.5 354 c 128,-1,21
 204 342 204 342 210 342 c 256,22,23
 216 342 216 342 222 351.5 c 128,-1,24
 228 361 228 361 235 377 c 2,25,-1
 335 600 l 2,26,27
 340 611 340 611 350 613.5 c 128,-1,28
 360 616 360 616 367 616 c 0,29,30
 380 616 380 616 389.5 609 c 128,-1,31
 399 602 399 602 404.5 592 c 128,-1,32
 410 582 410 582 411.5 571 c 128,-1,33
 413 560 413 560 409 552 c 2,34,-1
 284 281 l 2,35,36
 277 266 277 266 273 255.5 c 128,-1,37
 269 245 269 245 267.5 234 c 128,-1,38
 266 223 266 223 265.5 209.5 c 128,-1,39
 265 196 265 196 265 174 c 2,40,-1
 265 52 l 2,41,42
 265 37 265 37 259.5 27 c 128,-1,43
 254 17 254 17 245.5 11 c 128,-1,44
 237 5 237 5 227 2.5 c 128,-1,45
 217 0 217 0 208 0 c 0,0,1
36 551 m 0,46,47
 34 559 34 559 34.5 564.5 c 128,-1,48
 35 570 35 570 34 575 c 256,49,50
 33 580 33 580 31 584 c 128,-1,51
 29 588 29 588 27 587 c 0,52,53
 16 582 16 582 17.5 568 c 128,-1,54
 19 554 19 554 22 546 c 0,55,56
 27 535 27 535 34 537 c 0,57,58
 38 539 38 539 38 543 c 128,-1,59
 38 547 38 547 36 551 c 0,46,47
192 33 m 0,60,61
 190 37 190 37 186.5 47 c 128,-1,62
 183 57 183 57 181 74 c 0,63,64
 180 97 180 97 176 97 c 0,65,66
 175 97 175 97 173 93.5 c 128,-1,67
 171 90 171 90 170 81 c 0,68,69
 168 49 168 49 175.5 35 c 128,-1,70
 183 21 183 21 192 21 c 0,71,72
 196 21 196 21 195 24.5 c 128,-1,73
 194 28 194 28 192 33 c 0,60,61
EndSplineSet
EndChar

StartChar: Z
Encoding: 90 90 29
Width: 355
GlyphClass: 2
Flags: W
LayerCount: 2
Fore
SplineSet
78 0 m 2,0,1
 67 0 67 0 54.5 2.5 c 128,-1,2
 42 5 42 5 32 11.5 c 128,-1,3
 22 18 22 18 15.5 28.5 c 128,-1,4
 9 39 9 39 9 55 c 0,5,6
 9 65 9 65 10.5 76 c 128,-1,7
 12 87 12 87 20 102 c 2,8,-1
 228 513 l 2,9,10
 231 519 231 519 231 525 c 0,11,12
 230 531 230 531 220 531 c 2,13,-1
 42 533 l 2,14,15
 29 533 29 533 20.5 543.5 c 128,-1,16
 12 554 12 554 12 569 c 0,17,18
 12 598 12 598 26.5 608 c 128,-1,19
 41 618 41 618 60 618 c 2,20,-1
 306 616 l 2,21,22
 318 616 318 616 326 609.5 c 128,-1,23
 334 603 334 603 338.5 593.5 c 128,-1,24
 343 584 343 584 345 572 c 128,-1,25
 347 560 347 560 347 548 c 0,26,27
 347 518 347 518 332 488 c 2,28,-1
 158 158 l 2,29,30
 146 135 146 135 139.5 121.5 c 128,-1,31
 133 108 133 108 133 100 c 0,32,33
 133 87 133 87 161 87 c 2,34,-1
 309 86 l 2,35,36
 329 86 329 86 338.5 72 c 128,-1,37
 348 58 348 58 348 35 c 0,38,39
 348 21 348 21 338.5 10.5 c 128,-1,40
 329 0 329 0 321 0 c 2,41,-1
 78 0 l 2,0,1
42 574 m 0,42,43
 44 578 44 578 48 585 c 128,-1,44
 52 592 52 592 51 595 c 0,45,46
 51 597 51 597 47.5 599.5 c 128,-1,47
 44 602 44 602 42 602 c 0,48,49
 31 600 31 600 28 586 c 128,-1,50
 25 572 25 572 27 560 c 0,51,52
 27 558 27 558 29 555 c 128,-1,53
 31 552 31 552 33 552 c 0,54,55
 37 553 37 553 39 562.5 c 128,-1,56
 41 572 41 572 42 574 c 0,42,43
35 49 m 0,57,58
 39 49 39 49 43 57.5 c 128,-1,59
 47 66 47 66 51 77.5 c 128,-1,60
 55 89 55 89 57.5 100.5 c 128,-1,61
 60 112 60 112 60 117 c 0,62,63
 60 121 60 121 56 121 c 0,64,65
 51 121 51 121 46 114 c 128,-1,66
 41 107 41 107 36.5 99 c 128,-1,67
 32 91 32 91 29 82.5 c 128,-1,68
 26 74 26 74 26 71 c 0,69,70
 25 63 25 63 27.5 56 c 128,-1,71
 30 49 30 49 35 49 c 0,57,58
50 27 m 0,72,73
 50 34 50 34 45 34 c 0,74,75
 36 34 36 34 36 25 c 0,76,77
 36 19 36 19 41 19 c 0,78,79
 44 19 44 19 47 21.5 c 128,-1,80
 50 24 50 24 50 27 c 0,72,73
EndSplineSet
EndChar

StartChar: a
Encoding: 97 97 30
Width: 408
GlyphClass: 2
Flags: W
LayerCount: 2
Fore
SplineSet
158 -8 m 0,0,1
 91 -8 91 -8 53.5 71 c 128,-1,2
 16 150 16 150 16 291 c 0,3,4
 16 444 16 444 60 530 c 128,-1,5
 104 616 104 616 184 621 c 0,6,7
 213 623 213 623 231.5 614.5 c 128,-1,8
 250 606 250 606 262 595 c 128,-1,9
 274 584 274 584 280 575 c 128,-1,10
 286 566 286 566 289 566 c 256,11,12
 292 566 292 566 293 575 c 128,-1,13
 294 584 294 584 298 595 c 128,-1,14
 302 606 302 606 310.5 615 c 128,-1,15
 319 624 319 624 338 624 c 256,16,17
 357 624 357 624 370 615 c 128,-1,18
 383 606 383 606 383 592 c 2,19,-1
 383 204 l 2,20,21
 383 163 383 163 386 126.5 c 128,-1,22
 389 90 389 90 389 71 c 0,23,24
 389 36 389 36 375.5 14 c 128,-1,25
 362 -8 362 -8 341 -8 c 0,26,27
 317 -8 317 -8 302 19 c 128,-1,28
 287 46 287 46 287 88 c 0,29,30
 287 114 287 114 282 114 c 0,31,32
 278 114 278 114 271 95 c 128,-1,33
 264 76 264 76 250.5 53 c 128,-1,34
 237 30 237 30 215 11 c 128,-1,35
 193 -8 193 -8 158 -8 c 0,0,1
312 557 m 0,36,37
 316 557 316 557 317.5 563.5 c 128,-1,38
 319 570 319 570 321 577 c 0,39,40
 324 587 324 587 327 594 c 128,-1,41
 330 601 330 601 330 606 c 256,42,43
 330 611 330 611 326 611 c 0,44,45
 321 611 321 611 313 601 c 128,-1,46
 305 591 305 591 305 575 c 0,47,48
 305 567 305 567 307 562 c 128,-1,49
 309 557 309 557 312 557 c 0,36,37
182 90 m 0,50,51
 196 90 196 90 212 117 c 128,-1,52
 228 144 228 144 241.5 185.5 c 128,-1,53
 255 227 255 227 264 275.5 c 128,-1,54
 273 324 273 324 273 366 c 0,55,56
 273 399 273 399 267.5 428.5 c 128,-1,57
 262 458 262 458 252 480.5 c 128,-1,58
 242 503 242 503 229.5 516 c 128,-1,59
 217 529 217 529 203 529 c 0,60,61
 187 529 187 529 172 511.5 c 128,-1,62
 157 494 157 494 146.5 463.5 c 128,-1,63
 136 433 136 433 129.5 392.5 c 128,-1,64
 123 352 123 352 123 306 c 0,65,66
 123 265 123 265 128 226 c 128,-1,67
 133 187 133 187 141.5 157 c 128,-1,68
 150 127 150 127 160.5 108.5 c 128,-1,69
 171 90 171 90 182 90 c 0,50,51
110 33 m 0,70,71
 114 33 114 33 116.5 36.5 c 128,-1,72
 119 40 119 40 118 43 c 256,73,74
 117 46 117 46 112.5 51.5 c 128,-1,75
 108 57 108 57 102 64.5 c 128,-1,76
 96 72 96 72 90.5 80.5 c 128,-1,77
 85 89 85 89 83 97 c 0,78,79
 82 101 82 101 80.5 107.5 c 128,-1,80
 79 114 79 114 77 120.5 c 128,-1,81
 75 127 75 127 73 131.5 c 128,-1,82
 71 136 71 136 68 136 c 0,83,84
 63 136 63 136 63 122.5 c 128,-1,85
 63 109 63 109 70 89 c 0,86,87
 78 69 78 69 90 51 c 128,-1,88
 102 33 102 33 110 33 c 0,70,71
339 22 m 256,89,90
 339 25 339 25 335.5 29 c 128,-1,91
 332 33 332 33 327.5 38 c 128,-1,92
 323 43 323 43 319.5 49.5 c 128,-1,93
 316 56 316 56 316 63 c 0,94,95
 316 66 316 66 315 69 c 0,96,97
 313 74 313 74 309 74 c 0,98,99
 302 74 302 74 302 62 c 0,100,101
 302 46 302 46 311 29.5 c 128,-1,102
 320 13 320 13 329 13 c 0,103,104
 333 13 333 13 336 16 c 128,-1,105
 339 19 339 19 339 22 c 256,89,90
135 17 m 256,106,107
 138 17 138 17 141.5 21 c 128,-1,108
 145 25 145 25 146.5 29.5 c 128,-1,109
 148 34 148 34 146.5 38 c 128,-1,110
 145 42 145 42 139 42 c 0,111,112
 127 42 127 42 127 30 c 0,113,114
 127 25 127 25 129.5 21 c 128,-1,115
 132 17 132 17 135 17 c 256,106,107
EndSplineSet
Substitution2: "Single Substitution lookup 5 subtable" ordfeminine
EndChar

StartChar: b
Encoding: 98 98 31
Width: 399
GlyphClass: 2
Flags: W
LayerCount: 2
Fore
SplineSet
66 0 m 2,0,1
 38 0 38 0 27.5 22 c 128,-1,2
 17 44 17 44 17 103 c 2,3,-1
 17 531 l 2,4,5
 17 574 17 574 30 595 c 128,-1,6
 43 616 43 616 77 616 c 0,7,8
 96 616 96 616 135 617.5 c 128,-1,9
 174 619 174 619 225 619 c 0,10,11
 258 619 258 619 285 607 c 128,-1,12
 312 595 312 595 331.5 574 c 128,-1,13
 351 553 351 553 362 524 c 128,-1,14
 373 495 373 495 373 461 c 0,15,16
 373 421 373 421 362 394 c 128,-1,17
 351 367 351 367 334 350.5 c 128,-1,18
 317 334 317 334 298 325.5 c 128,-1,19
 279 317 279 317 262 313.5 c 128,-1,20
 245 310 245 310 234 308.5 c 128,-1,21
 223 307 223 307 223 305 c 256,22,23
 223 303 223 303 235 303 c 128,-1,24
 247 303 247 303 265 301.5 c 128,-1,25
 283 300 283 300 304 293.5 c 128,-1,26
 325 287 325 287 343 272 c 128,-1,27
 361 257 361 257 373 230.5 c 128,-1,28
 385 204 385 204 385 162 c 0,29,30
 385 122 385 122 368 91.5 c 128,-1,31
 351 61 351 61 323.5 41 c 128,-1,32
 296 21 296 21 262.5 10.5 c 128,-1,33
 229 0 229 0 196 0 c 2,34,-1
 66 0 l 2,0,1
53 535 m 0,35,36
 52 537 52 537 51 539 c 0,37,38
 48 544 48 544 48 552 c 0,39,40
 48 565 48 565 58.5 577.5 c 128,-1,41
 69 590 69 590 82 589 c 0,42,43
 88 589 88 589 91 592.5 c 128,-1,44
 94 596 94 596 94 598 c 0,45,46
 94 601 94 601 89.5 603 c 128,-1,47
 85 605 85 605 80 605 c 0,48,49
 60 605 60 605 45.5 587.5 c 128,-1,50
 31 570 31 570 31 545 c 0,51,52
 31 534 31 534 34 526.5 c 128,-1,53
 37 519 37 519 42 519 c 0,54,55
 45 519 45 519 49 523.5 c 128,-1,56
 53 528 53 528 53 535 c 0,35,36
180 356 m 2,57,58
 214 356 214 356 236.5 384.5 c 128,-1,59
 259 413 259 413 259 456 c 0,60,61
 259 486 259 486 245 506 c 128,-1,62
 231 526 231 526 199 526 c 2,63,-1
 146 526 l 2,64,65
 129 526 129 526 127 514 c 128,-1,66
 125 502 125 502 125 492 c 2,67,-1
 125 388 l 2,68,69
 125 374 125 374 130.5 365 c 128,-1,70
 136 356 136 356 144 356 c 2,71,-1
 180 356 l 2,57,58
187 91 m 2,72,73
 223 91 223 91 247 109.5 c 128,-1,74
 271 128 271 128 271 173 c 0,75,76
 271 217 271 217 244.5 233 c 128,-1,77
 218 249 218 249 175 249 c 2,78,-1
 144 249 l 2,79,80
 125 249 125 249 125 209 c 2,81,-1
 125 127 l 2,82,83
 125 103 125 103 129.5 97 c 128,-1,84
 134 91 134 91 153 91 c 2,85,-1
 187 91 l 2,72,73
43 73 m 0,86,87
 45 73 45 73 46.5 83 c 128,-1,88
 48 93 48 93 48.5 106 c 128,-1,89
 49 119 49 119 49 131.5 c 128,-1,90
 49 144 49 144 49 148 c 0,91,92
 49 177 49 177 46.5 183.5 c 128,-1,93
 44 190 44 190 41 190 c 0,94,95
 39 190 39 190 36.5 183.5 c 128,-1,96
 34 177 34 177 34 148 c 0,97,98
 34 105 34 105 35.5 89 c 128,-1,99
 37 73 37 73 43 73 c 0,86,87
43 59 m 0,100,101
 35 59 35 59 35 48 c 0,102,103
 35 40 35 40 38 37.5 c 128,-1,104
 41 35 41 35 44 35 c 0,105,106
 50 35 50 35 50 48 c 0,107,108
 50 55 50 55 49 57 c 128,-1,109
 48 59 48 59 43 59 c 0,100,101
EndSplineSet
EndChar

StartChar: c
Encoding: 99 99 32
Width: 386
GlyphClass: 2
Flags: W
LayerCount: 2
Fore
SplineSet
212 -10 m 0,0,1
 166 -10 166 -10 129 12 c 128,-1,2
 92 34 92 34 66 74 c 128,-1,3
 40 114 40 114 25.5 169.5 c 128,-1,4
 11 225 11 225 11 292 c 0,5,6
 11 363 11 363 26.5 423.5 c 128,-1,7
 42 484 42 484 70.5 528.5 c 128,-1,8
 99 573 99 573 138 598 c 128,-1,9
 177 623 177 623 223 623 c 0,10,11
 298 623 298 623 338 565 c 128,-1,12
 378 507 378 507 372 398 c 0,13,14
 369 341 369 341 331 341 c 0,15,16
 304 341 304 341 292.5 351.5 c 128,-1,17
 281 362 281 362 278 377.5 c 128,-1,18
 275 393 275 393 277 412 c 128,-1,19
 279 431 279 431 279 448 c 0,20,21
 279 481 279 481 265.5 504.5 c 128,-1,22
 252 528 252 528 226 528 c 0,23,24
 205 528 205 528 187.5 510.5 c 128,-1,25
 170 493 170 493 157.5 461.5 c 128,-1,26
 145 430 145 430 137.5 386.5 c 128,-1,27
 130 343 130 343 130 290 c 0,28,29
 130 195 130 195 153.5 141.5 c 128,-1,30
 177 88 177 88 223 88 c 0,31,32
 245 88 245 88 261 107 c 128,-1,33
 277 126 277 126 277 149 c 256,34,35
 277 172 277 172 287.5 190 c 128,-1,36
 298 208 298 208 322 208 c 256,37,38
 346 208 346 208 359.5 189.5 c 128,-1,39
 373 171 373 171 373 145 c 0,40,41
 373 114 373 114 361 86 c 128,-1,42
 349 58 349 58 327.5 36.5 c 128,-1,43
 306 15 306 15 276.5 2.5 c 128,-1,44
 247 -10 247 -10 212 -10 c 0,0,1
79 480 m 0,45,46
 82 480 82 480 91.5 494.5 c 128,-1,47
 101 509 101 509 114 526.5 c 128,-1,48
 127 544 127 544 142 559.5 c 128,-1,49
 157 575 157 575 172 576 c 0,50,51
 177 577 177 577 181.5 579.5 c 128,-1,52
 186 582 186 582 185 585 c 0,53,54
 185 595 185 595 172 593 c 0,55,56
 155 592 155 592 137.5 579 c 128,-1,57
 120 566 120 566 105.5 548.5 c 128,-1,58
 91 531 91 531 82 513 c 128,-1,59
 73 495 73 495 74 484 c 0,60,61
 76 477 76 477 79 480 c 0,45,46
66 470 m 0,62,63
 61 469 61 469 58 462.5 c 128,-1,64
 55 456 55 456 56 448 c 0,65,66
 58 439 58 439 60 440 c 0,67,68
 65 440 65 440 69 449 c 128,-1,69
 73 458 73 458 71 465 c 0,70,71
 69 471 69 471 66 470 c 0,62,63
EndSplineSet
EndChar

StartChar: d
Encoding: 100 100 33
Width: 410
GlyphClass: 2
Flags: W
LayerCount: 2
Fore
SplineSet
66 0 m 2,0,1
 38 0 38 0 27.5 22 c 128,-1,2
 17 44 17 44 17 103 c 2,3,-1
 17 531 l 2,4,5
 17 576 17 576 29.5 596 c 128,-1,6
 42 616 42 616 71 616 c 0,7,8
 117 616 117 616 117 572 c 0,9,10
 117 567 117 567 117 559.5 c 128,-1,11
 117 552 117 552 120 552 c 0,12,13
 124 552 124 552 131 563 c 128,-1,14
 138 574 138 574 149.5 587.5 c 128,-1,15
 161 601 161 601 179 612 c 128,-1,16
 197 623 197 623 224 623 c 0,17,18
 262 623 262 623 293.5 598.5 c 128,-1,19
 325 574 325 574 348.5 531 c 128,-1,20
 372 488 372 488 385 428.5 c 128,-1,21
 398 369 398 369 398 300 c 0,22,23
 398 159 398 159 339 79.5 c 128,-1,24
 280 0 280 0 153 0 c 2,25,-1
 66 0 l 2,0,1
53 526 m 0,26,27
 52 528 52 528 51 530 c 0,28,29
 48 535 48 535 48 543 c 0,30,31
 48 552 48 552 52.5 559.5 c 128,-1,32
 57 567 57 567 62.5 573 c 128,-1,33
 68 579 68 579 72.5 583 c 128,-1,34
 77 587 77 587 77 589 c 0,35,36
 77 594 77 594 67 594 c 0,37,38
 53 594 53 594 42 577.5 c 128,-1,39
 31 561 31 561 31 536 c 0,40,41
 31 525 31 525 34 517.5 c 128,-1,42
 37 510 37 510 42 510 c 0,43,44
 45 510 45 510 49 514.5 c 128,-1,45
 53 519 53 519 53 526 c 0,26,27
187 91 m 2,46,47
 232 91 232 91 257.5 146 c 128,-1,48
 283 201 283 201 283 297 c 0,49,50
 283 346 283 346 277.5 388 c 128,-1,51
 272 430 272 430 261 460.5 c 128,-1,52
 250 491 250 491 235 508.5 c 128,-1,53
 220 526 220 526 200 526 c 0,54,55
 188 526 188 526 175.5 520 c 128,-1,56
 163 514 163 514 153.5 502.5 c 128,-1,57
 144 491 144 491 137.5 475 c 128,-1,58
 131 459 131 459 131 439 c 2,59,-1
 131 127 l 2,60,61
 131 103 131 103 135.5 97 c 128,-1,62
 140 91 140 91 159 91 c 2,63,-1
 187 91 l 2,46,47
43 73 m 0,64,65
 45 73 45 73 46.5 83 c 128,-1,66
 48 93 48 93 48.5 106 c 128,-1,67
 49 119 49 119 49 131.5 c 128,-1,68
 49 144 49 144 49 148 c 0,69,70
 49 177 49 177 46.5 183.5 c 128,-1,71
 44 190 44 190 41 190 c 0,72,73
 39 190 39 190 36.5 183.5 c 128,-1,74
 34 177 34 177 34 148 c 0,75,76
 34 105 34 105 35.5 89 c 128,-1,77
 37 73 37 73 43 73 c 0,64,65
43 59 m 0,78,79
 35 59 35 59 35 48 c 0,80,81
 35 40 35 40 38 37.5 c 128,-1,82
 41 35 41 35 44 35 c 0,83,84
 50 35 50 35 50 48 c 0,85,86
 50 55 50 55 49 57 c 128,-1,87
 48 59 48 59 43 59 c 0,78,79
EndSplineSet
EndChar

StartChar: e
Encoding: 101 101 34
Width: 392
GlyphClass: 2
Flags: W
LayerCount: 2
Fore
SplineSet
210 -10 m 0,0,1
 165 -10 165 -10 128.5 11.5 c 128,-1,2
 92 33 92 33 66 73 c 128,-1,3
 40 113 40 113 25.5 168.5 c 128,-1,4
 11 224 11 224 11 292 c 0,5,6
 11 364 11 364 27 424.5 c 128,-1,7
 43 485 43 485 71.5 529.5 c 128,-1,8
 100 574 100 574 139.5 598.5 c 128,-1,9
 179 623 179 623 225 623 c 0,10,11
 259 623 259 623 287.5 610 c 128,-1,12
 316 597 316 597 336 573.5 c 128,-1,13
 356 550 356 550 366.5 518.5 c 128,-1,14
 377 487 377 487 375 450 c 0,15,16
 373 407 373 407 355 366.5 c 128,-1,17
 337 326 337 326 307 295 c 128,-1,18
 277 264 277 264 237.5 245.5 c 128,-1,19
 198 227 198 227 153 227 c 0,20,21
 136 227 136 227 136 213 c 0,22,23
 136 149 136 149 158.5 118.5 c 128,-1,24
 181 88 181 88 216 88 c 0,25,26
 242 88 242 88 259.5 107 c 128,-1,27
 277 126 277 126 277 155 c 0,28,29
 277 179 277 179 290 193.5 c 128,-1,30
 303 208 303 208 323 208 c 0,31,32
 346 208 346 208 359.5 189.5 c 128,-1,33
 373 171 373 171 373 139 c 0,34,35
 373 109 373 109 360 81.5 c 128,-1,36
 347 54 347 54 325 34 c 128,-1,37
 303 14 303 14 273 2 c 128,-1,38
 243 -10 243 -10 210 -10 c 0,0,1
80 477 m 0,39,40
 83 477 83 477 92.5 491.5 c 128,-1,41
 102 506 102 506 115 523.5 c 128,-1,42
 128 541 128 541 143 556.5 c 128,-1,43
 158 572 158 572 173 573 c 0,44,45
 178 574 178 574 182.5 576.5 c 128,-1,46
 187 579 187 579 186 582 c 0,47,48
 186 592 186 592 173 590 c 0,49,50
 156 589 156 589 138.5 576 c 128,-1,51
 121 563 121 563 106.5 545.5 c 128,-1,52
 92 528 92 528 83 510 c 128,-1,53
 74 492 74 492 75 481 c 0,54,55
 77 474 77 474 80 477 c 0,39,40
133 315 m 0,56,57
 136 311 136 311 147 311 c 0,58,59
 173 311 173 311 197 324 c 128,-1,60
 221 337 221 337 239 357 c 128,-1,61
 257 377 257 377 268 403 c 128,-1,62
 279 429 279 429 279 454 c 0,63,64
 279 486 279 486 263.5 507 c 128,-1,65
 248 528 248 528 225 528 c 0,66,67
 208 528 208 528 193.5 513.5 c 128,-1,68
 179 499 179 499 167.5 477.5 c 128,-1,69
 156 456 156 456 148 429.5 c 128,-1,70
 140 403 140 403 135.5 379.5 c 128,-1,71
 131 356 131 356 130 338 c 128,-1,72
 129 320 129 320 133 315 c 0,56,57
67 467 m 0,73,74
 62 466 62 466 59 459.5 c 128,-1,75
 56 453 56 453 57 445 c 0,76,77
 59 436 59 436 61 437 c 0,78,79
 66 437 66 437 70 446 c 128,-1,80
 74 455 74 455 72 462 c 0,81,82
 70 468 70 468 67 467 c 0,73,74
EndSplineSet
EndChar

StartChar: f
Encoding: 102 102 35
Width: 281
GlyphClass: 2
Flags: W
LayerCount: 2
Fore
SplineSet
92 0 m 2,0,1
 77 0 77 0 69 10 c 128,-1,2
 61 20 61 20 56.5 36.5 c 128,-1,3
 52 53 52 53 51 75 c 128,-1,4
 50 97 50 97 50 121 c 2,5,-1
 50 312 l 1,6,-1
 34 312 l 2,7,8
 23 312 23 312 16 326 c 128,-1,9
 9 340 9 340 9 362 c 256,10,11
 9 384 9 384 16 393 c 128,-1,12
 23 402 23 402 34 402 c 2,13,-1
 50 402 l 1,14,-1
 50 450 l 2,15,16
 50 631 50 631 190 631 c 0,17,18
 211 631 211 631 227.5 625 c 128,-1,19
 244 619 244 619 255.5 610 c 128,-1,20
 267 601 267 601 272.5 590 c 128,-1,21
 278 579 278 579 278 570 c 0,22,23
 278 552 278 552 265.5 533 c 128,-1,24
 253 514 253 514 236 514 c 0,25,26
 227 514 227 514 223 518.5 c 128,-1,27
 219 523 219 523 215 528 c 128,-1,28
 211 533 211 533 206 537.5 c 128,-1,29
 201 542 201 542 190 542 c 0,30,31
 184 542 184 542 178 539 c 128,-1,32
 172 536 172 536 167.5 526 c 128,-1,33
 163 516 163 516 160.5 497 c 128,-1,34
 158 478 158 478 158 445 c 2,35,-1
 158 402 l 1,36,-1
 220 402 l 2,37,38
 237 402 237 402 242.5 387.5 c 128,-1,39
 248 373 248 373 248 360 c 0,40,41
 248 346 248 346 242 329 c 128,-1,42
 236 312 236 312 219 312 c 2,43,-1
 159 312 l 1,44,-1
 159 109 l 2,45,46
 159 75 159 75 153 54 c 128,-1,47
 147 33 147 33 138 21 c 128,-1,48
 129 9 129 9 117.5 4.5 c 128,-1,49
 106 0 106 0 94 0 c 2,50,-1
 92 0 l 2,0,1
77 471 m 0,51,52
 80 471 80 471 81.5 475 c 128,-1,53
 83 479 83 479 83.5 484 c 128,-1,54
 84 489 84 489 84.5 494 c 128,-1,55
 85 499 85 499 85 500 c 0,56,57
 89 528 89 528 103 550.5 c 128,-1,58
 117 573 117 573 136 591 c 0,59,60
 138 593 138 593 136.5 596 c 128,-1,61
 135 599 135 599 133 599 c 0,62,63
 122 599 122 599 111 588 c 128,-1,64
 100 577 100 577 91 560.5 c 128,-1,65
 82 544 82 544 76.5 525.5 c 128,-1,66
 71 507 71 507 71 491 c 0,67,68
 71 486 71 486 71.5 478.5 c 128,-1,69
 72 471 72 471 77 471 c 0,51,52
90 29 m 0,70,71
 90 40 90 40 81 51 c 128,-1,72
 72 62 72 62 71 74 c 0,73,74
 71 77 71 77 70.5 86.5 c 128,-1,75
 70 96 70 96 65 96 c 256,76,77
 60 96 60 96 60.5 89.5 c 128,-1,78
 61 83 61 83 61 78 c 0,79,80
 61 74 61 74 62.5 63.5 c 128,-1,81
 64 53 64 53 66.5 42.5 c 128,-1,82
 69 32 69 32 73 23.5 c 128,-1,83
 77 15 77 15 82 16 c 0,84,85
 86 17 86 17 88 21.5 c 128,-1,86
 90 26 90 26 90 29 c 0,70,71
EndSplineSet
EndChar

StartChar: g
Encoding: 103 103 36
Width: 443
GlyphClass: 2
Flags: W
LayerCount: 2
Fore
SplineSet
221 -5 m 0,0,1
 158 -5 158 -5 117.5 28 c 128,-1,2
 77 61 77 61 54 111 c 128,-1,3
 31 161 31 161 22.5 219 c 128,-1,4
 14 277 14 277 14 328 c 0,5,6
 14 384 14 384 27.5 437.5 c 128,-1,7
 41 491 41 491 69.5 532.5 c 128,-1,8
 98 574 98 574 143.5 599.5 c 128,-1,9
 189 625 189 625 253 625 c 0,10,11
 280 625 280 625 309.5 619 c 128,-1,12
 339 613 339 613 363.5 596.5 c 128,-1,13
 388 580 388 580 404.5 552 c 128,-1,14
 421 524 421 524 421 480 c 0,15,16
 421 464 421 464 414.5 454.5 c 128,-1,17
 408 445 408 445 398.5 439.5 c 128,-1,18
 389 434 389 434 379 432.5 c 128,-1,19
 369 431 369 431 363 431 c 0,20,21
 349 431 349 431 336.5 441 c 128,-1,22
 324 451 324 451 324 480 c 0,23,24
 324 503 324 503 316 515 c 128,-1,25
 308 527 308 527 297 532.5 c 128,-1,26
 286 538 286 538 275.5 539 c 128,-1,27
 265 540 265 540 259 540 c 0,28,29
 233 540 233 540 210 524.5 c 128,-1,30
 187 509 187 509 169.5 480 c 128,-1,31
 152 451 152 451 142 409 c 128,-1,32
 132 367 132 367 132 314 c 0,33,34
 132 285 132 285 135.5 245 c 128,-1,35
 139 205 139 205 151 169 c 128,-1,36
 163 133 163 133 185 107.5 c 128,-1,37
 207 82 207 82 243 82 c 0,38,39
 266 82 266 82 283 97 c 128,-1,40
 300 112 300 112 311.5 134 c 128,-1,41
 323 156 323 156 329 180.5 c 128,-1,42
 335 205 335 205 334 224 c 0,43,44
 333 240 333 240 314.5 241.5 c 128,-1,45
 296 243 296 243 273 243 c 2,46,-1
 211 243 l 2,47,48
 205 243 205 243 200 249 c 128,-1,49
 195 255 195 255 192 263.5 c 128,-1,50
 189 272 189 272 187 281 c 128,-1,51
 185 290 185 290 185 296 c 0,52,53
 185 312 185 312 195.5 324.5 c 128,-1,54
 206 337 206 337 229 337 c 2,55,-1
 354 336 l 2,56,57
 367 336 367 336 380.5 330.5 c 128,-1,58
 394 325 394 325 404.5 314.5 c 128,-1,59
 415 304 415 304 422 287.5 c 128,-1,60
 429 271 429 271 429 248 c 0,61,62
 429 213 429 213 429.5 183 c 128,-1,63
 430 153 430 153 430 109 c 0,64,65
 430 75 430 75 427.5 54 c 128,-1,66
 425 33 425 33 419 21 c 128,-1,67
 413 9 413 9 404.5 4.5 c 128,-1,68
 396 0 396 0 384 0 c 0,69,70
 367 0 367 0 359 12.5 c 128,-1,71
 351 25 351 25 347.5 40 c 128,-1,72
 344 55 344 55 343 67.5 c 128,-1,73
 342 80 342 80 339 80 c 256,74,75
 336 80 336 80 330 66.5 c 128,-1,76
 324 53 324 53 311 37.5 c 128,-1,77
 298 22 298 22 277 8.5 c 128,-1,78
 256 -5 256 -5 221 -5 c 0,0,1
126 76 m 0,79,80
 126 81 126 81 110 104 c 0,81,82
 103 115 103 115 96 129.5 c 128,-1,83
 89 144 89 144 84 158 c 128,-1,84
 79 172 79 172 76 184 c 128,-1,85
 73 196 73 196 74 200 c 0,86,87
 75 205 75 205 72 207.5 c 128,-1,88
 69 210 69 210 68 210 c 0,89,90
 60 210 60 210 58 199 c 256,91,92
 56 188 56 188 61.5 167 c 128,-1,93
 67 146 67 146 76.5 125 c 128,-1,94
 86 104 86 104 97.5 88 c 128,-1,95
 109 72 109 72 118 71 c 0,96,97
 125 69 125 69 126 76 c 0,79,80
389 25 m 0,98,99
 389 33 389 33 381 38.5 c 128,-1,100
 373 44 373 44 372 56 c 0,101,102
 372 59 372 59 371.5 67 c 128,-1,103
 371 75 371 75 366 75 c 256,104,105
 361 75 361 75 360 68.5 c 128,-1,106
 359 62 359 62 359 57 c 256,107,108
 359 52 359 52 360.5 44.5 c 128,-1,109
 362 37 362 37 365 30.5 c 128,-1,110
 368 24 368 24 372 19 c 128,-1,111
 376 14 376 14 381 14 c 256,112,113
 386 14 386 14 387.5 18 c 128,-1,114
 389 22 389 22 389 25 c 0,98,99
146 59 m 0,115,116
 147 62 147 62 144.5 64.5 c 128,-1,117
 142 67 142 67 140 67 c 0,118,119
 136 68 136 68 134.5 65 c 128,-1,120
 133 62 133 62 132 60 c 0,121,122
 131 55 131 55 133.5 53.5 c 128,-1,123
 136 52 136 52 138 52 c 0,124,125
 144 52 144 52 146 59 c 0,115,116
EndSplineSet
EndChar

StartChar: h
Encoding: 104 104 37
Width: 392
GlyphClass: 2
Flags: W
LayerCount: 2
Fore
SplineSet
315 0 m 256,0,1
 298 0 298 0 288 9.5 c 128,-1,2
 278 19 278 19 273 33 c 128,-1,3
 268 47 268 47 266.5 63 c 128,-1,4
 265 79 265 79 265 92 c 2,5,-1
 265 238 l 2,6,7
 265 242 265 242 265 247 c 128,-1,8
 265 252 265 252 264 256.5 c 128,-1,9
 263 261 263 261 260 263.5 c 128,-1,10
 257 266 257 266 252 264 c 2,11,-1
 145 233 l 2,12,13
 136 231 136 231 131.5 229 c 128,-1,14
 127 227 127 227 127 217 c 2,15,-1
 127 105 l 2,16,17
 127 93 127 93 125 75 c 128,-1,18
 123 57 123 57 117.5 40.5 c 128,-1,19
 112 24 112 24 102 12 c 128,-1,20
 92 0 92 0 75 0 c 0,21,22
 54 0 54 0 42 10.5 c 128,-1,23
 30 21 30 21 24 37 c 128,-1,24
 18 53 18 53 16.5 71 c 128,-1,25
 15 89 15 89 15 105 c 2,26,-1
 15 542 l 2,27,28
 15 567 15 567 29.5 589.5 c 128,-1,29
 44 612 44 612 72 612 c 0,30,31
 86 612 86 612 96.5 605.5 c 128,-1,32
 107 599 107 599 114 588.5 c 128,-1,33
 121 578 121 578 124 565 c 128,-1,34
 127 552 127 552 127 540 c 2,35,-1
 127 339 l 2,36,37
 127 332 127 332 129 324.5 c 128,-1,38
 131 317 131 317 140 319 c 2,39,-1
 254 349 l 2,40,41
 263 351 263 351 264 356 c 128,-1,42
 265 361 265 361 265 368 c 2,43,-1
 265 540 l 2,44,45
 265 551 265 551 266.5 564 c 128,-1,46
 268 577 268 577 273 588.5 c 128,-1,47
 278 600 278 600 287 608 c 128,-1,48
 296 616 296 616 310 616 c 0,49,50
 343 616 343 616 360 591.5 c 128,-1,51
 377 567 377 567 377 537 c 2,52,-1
 377 91 l 2,53,54
 377 78 377 78 373.5 62 c 128,-1,55
 370 46 370 46 362.5 32 c 128,-1,56
 355 18 355 18 343.5 9 c 128,-1,57
 332 0 332 0 315 0 c 256,0,1
286 552 m 256,58,59
 289 552 289 552 293.5 558 c 128,-1,60
 298 564 298 564 302 571.5 c 128,-1,61
 306 579 306 579 308.5 586.5 c 128,-1,62
 311 594 311 594 311 597 c 256,63,64
 311 600 311 600 307 600 c 0,65,66
 295 600 295 600 288 586 c 128,-1,67
 281 572 281 572 281 562 c 0,68,69
 281 560 281 560 282 556 c 128,-1,70
 283 552 283 552 286 552 c 256,58,59
57 30 m 1,71,72
 56 36 56 36 54 40.5 c 128,-1,73
 52 45 52 45 49.5 50.5 c 128,-1,74
 47 56 47 56 45.5 64.5 c 128,-1,75
 44 73 44 73 44 86 c 0,76,77
 44 90 44 90 43 96.5 c 128,-1,78
 42 103 42 103 37 103 c 0,79,80
 33 103 33 103 32 96 c 128,-1,81
 31 89 31 89 31 86 c 0,82,83
 31 82 31 82 32 72 c 128,-1,84
 33 62 33 62 35 52 c 128,-1,85
 37 42 37 42 41 34.5 c 128,-1,86
 45 27 45 27 51 27 c 2,87,-1
 57 30 l 1,71,72
306 20 m 0,88,89
 306 22 306 22 305 23 c 128,-1,90
 304 24 304 24 303 26 c 0,91,92
 296 35 296 35 292 50.5 c 128,-1,93
 288 66 288 66 288 77 c 1,94,-1
 286 81 l 1,95,96
 281 81 281 81 280 71 c 128,-1,97
 279 61 279 61 279 58 c 0,98,99
 279 47 279 47 283.5 32 c 128,-1,100
 288 17 288 17 303 17 c 0,101,102
 306 17 306 17 306 20 c 0,88,89
EndSplineSet
EndChar

StartChar: i
Encoding: 105 105 38
Width: 156
GlyphClass: 2
Flags: W
LayerCount: 2
Fore
SplineSet
76 559 m 256,0,1
 50 559 50 559 34 574.5 c 128,-1,2
 18 590 18 590 18 616 c 0,3,4
 18 643 18 643 34.5 660 c 128,-1,5
 51 677 51 677 78 677 c 256,6,7
 105 677 105 677 122 661.5 c 128,-1,8
 139 646 139 646 139 621 c 0,9,10
 139 595 139 595 120.5 577 c 128,-1,11
 102 559 102 559 76 559 c 256,0,1
44 618 m 0,12,13
 46 627 46 627 49.5 631.5 c 128,-1,14
 53 636 53 636 57 638.5 c 128,-1,15
 61 641 61 641 64 643.5 c 128,-1,16
 67 646 67 646 67 650 c 0,17,18
 67 660 67 660 57 660 c 0,19,20
 45 660 45 660 37 646.5 c 128,-1,21
 29 633 29 633 29 618 c 0,22,23
 29 611 29 611 30.5 601.5 c 128,-1,24
 32 592 32 592 38 592 c 0,25,26
 43 592 43 592 43 603.5 c 128,-1,27
 43 615 43 615 44 618 c 0,12,13
75 -4 m 256,28,29
 51 -4 51 -4 38 6.5 c 128,-1,30
 25 17 25 17 25 32 c 2,31,-1
 25 470 l 2,32,33
 25 479 25 479 27.5 491 c 128,-1,34
 30 503 30 503 35.5 513 c 128,-1,35
 41 523 41 523 50.5 530 c 128,-1,36
 60 537 60 537 75 537 c 256,37,38
 90 537 90 537 100.5 531 c 128,-1,39
 111 525 111 525 117.5 516 c 128,-1,40
 124 507 124 507 127.5 496 c 128,-1,41
 131 485 131 485 131 475 c 2,42,-1
 131 32 l 2,43,44
 131 16 131 16 115 6 c 128,-1,45
 99 -4 99 -4 75 -4 c 256,28,29
43 440 m 0,46,47
 46 440 46 440 47 446 c 128,-1,48
 48 452 48 452 48 460.5 c 128,-1,49
 48 469 48 469 48.5 478.5 c 128,-1,50
 49 488 49 488 51 494 c 0,51,52
 52 498 52 498 54 505 c 128,-1,53
 56 512 56 512 53 512 c 0,54,55
 48 512 48 512 44.5 506.5 c 128,-1,56
 41 501 41 501 38.5 493.5 c 128,-1,57
 36 486 36 486 35 478.5 c 128,-1,58
 34 471 34 471 34 466 c 0,59,60
 34 457 34 457 36 448.5 c 128,-1,61
 38 440 38 440 43 440 c 0,46,47
EndSplineSet
EndChar

StartChar: j
Encoding: 106 106 39
Width: 156
GlyphClass: 2
Flags: W
LayerCount: 2
Fore
SplineSet
76 559 m 256,0,1
 50 559 50 559 34 574.5 c 128,-1,2
 18 590 18 590 18 616 c 0,3,4
 18 643 18 643 34.5 660 c 128,-1,5
 51 677 51 677 78 677 c 256,6,7
 105 677 105 677 122 661.5 c 128,-1,8
 139 646 139 646 139 621 c 0,9,10
 139 595 139 595 120.5 577 c 128,-1,11
 102 559 102 559 76 559 c 256,0,1
44 618 m 0,12,13
 46 627 46 627 49.5 631.5 c 128,-1,14
 53 636 53 636 57 638.5 c 128,-1,15
 61 641 61 641 64 643.5 c 128,-1,16
 67 646 67 646 67 650 c 0,17,18
 67 660 67 660 57 660 c 0,19,20
 45 660 45 660 37 646.5 c 128,-1,21
 29 633 29 633 29 618 c 0,22,23
 29 611 29 611 30.5 601.5 c 128,-1,24
 32 592 32 592 38 592 c 0,25,26
 43 592 43 592 43 603.5 c 128,-1,27
 43 615 43 615 44 618 c 0,12,13
131 82 m 2,28,29
 131 35 131 35 124.5 -3.5 c 128,-1,30
 118 -42 118 -42 103 -69.5 c 128,-1,31
 88 -97 88 -97 62.5 -112 c 128,-1,32
 37 -127 37 -127 -2 -127 c 0,33,34
 -33 -127 -33 -127 -46 -113.5 c 128,-1,35
 -59 -100 -59 -100 -59 -72 c 0,36,37
 -59 -56 -59 -56 -54 -38.5 c 128,-1,38
 -49 -21 -49 -21 -35 -21 c 0,39,40
 -28 -21 -28 -21 -21.5 -23.5 c 128,-1,41
 -15 -26 -15 -26 -7 -26 c 0,42,43
 9 -26 9 -26 17 -3 c 128,-1,44
 25 20 25 20 25 82 c 2,45,-1
 25 470 l 2,46,47
 25 479 25 479 27.5 491 c 128,-1,48
 30 503 30 503 35.5 513 c 128,-1,49
 41 523 41 523 50.5 530 c 128,-1,50
 60 537 60 537 75 537 c 256,51,52
 90 537 90 537 100.5 531 c 128,-1,53
 111 525 111 525 117.5 516 c 128,-1,54
 124 507 124 507 127.5 496 c 128,-1,55
 131 485 131 485 131 475 c 2,56,-1
 131 82 l 2,28,29
43 440 m 0,57,58
 46 440 46 440 47 446 c 128,-1,59
 48 452 48 452 48 460.5 c 128,-1,60
 48 469 48 469 48.5 478.5 c 128,-1,61
 49 488 49 488 51 494 c 0,62,63
 52 498 52 498 54 505 c 128,-1,64
 56 512 56 512 53 512 c 0,65,66
 48 512 48 512 44.5 506.5 c 128,-1,67
 41 501 41 501 38.5 493.5 c 128,-1,68
 36 486 36 486 35 478.5 c 128,-1,69
 34 471 34 471 34 466 c 0,70,71
 34 457 34 457 36 448.5 c 128,-1,72
 38 440 38 440 43 440 c 0,57,58
-15 -103 m 0,73,74
 -15 -91 -15 -91 -23.5 -83 c 128,-1,75
 -32 -75 -32 -75 -32 -66 c 0,76,77
 -32 -52 -32 -52 -34.5 -47.5 c 128,-1,78
 -37 -43 -37 -43 -41 -43 c 0,79,80
 -44 -43 -44 -43 -45.5 -49.5 c 128,-1,81
 -47 -56 -47 -56 -47 -64 c 0,82,83
 -47 -83 -47 -83 -40 -97 c 128,-1,84
 -33 -111 -33 -111 -25 -111 c 0,85,86
 -22 -111 -22 -111 -18.5 -109.5 c 128,-1,87
 -15 -108 -15 -108 -15 -103 c 0,73,74
EndSplineSet
EndChar

StartChar: k
Encoding: 107 107 40
Width: 398
GlyphClass: 2
Flags: W
LayerCount: 2
Fore
SplineSet
68 0 m 0,0,1
 47 0 47 0 37 11 c 128,-1,2
 27 22 27 22 23.5 38.5 c 128,-1,3
 20 55 20 55 20 73 c 128,-1,4
 20 91 20 91 20 105 c 2,5,-1
 20 204 l 1,6,-1
 19 402 l 1,7,-1
 19 501 l 2,8,9
 19 528 19 528 21 549 c 128,-1,10
 23 570 23 570 29 585 c 128,-1,11
 35 600 35 600 46.5 608 c 128,-1,12
 58 616 58 616 78 616 c 0,13,14
 101 616 101 616 118.5 597.5 c 128,-1,15
 136 579 136 579 136 549 c 0,16,17
 136 544 136 544 135.5 528 c 128,-1,18
 135 512 135 512 135 491 c 128,-1,19
 135 470 135 470 135 446.5 c 128,-1,20
 135 423 135 423 135 403.5 c 128,-1,21
 135 384 135 384 136.5 371 c 128,-1,22
 138 358 138 358 140 358 c 0,23,24
 144 358 144 358 156 377 c 128,-1,25
 168 396 168 396 184 425 c 128,-1,26
 200 454 200 454 219 487 c 128,-1,27
 238 520 238 520 257 549 c 128,-1,28
 276 578 276 578 292.5 597 c 128,-1,29
 309 616 309 616 320 616 c 0,30,31
 329 616 329 616 340 613 c 128,-1,32
 351 610 351 610 360 604 c 128,-1,33
 369 598 369 598 375 589 c 128,-1,34
 381 580 381 580 381 567 c 0,35,36
 381 559 381 559 370 538.5 c 128,-1,37
 359 518 359 518 343 492 c 128,-1,38
 327 466 327 466 307.5 437.5 c 128,-1,39
 288 409 288 409 272 385 c 128,-1,40
 256 361 256 361 245 344 c 128,-1,41
 234 327 234 327 234 324 c 0,42,43
 234 320 234 320 246.5 300.5 c 128,-1,44
 259 281 259 281 278 253.5 c 128,-1,45
 297 226 297 226 318.5 194 c 128,-1,46
 340 162 340 162 359 133 c 128,-1,47
 378 104 378 104 390.5 81 c 128,-1,48
 403 58 403 58 403 48 c 0,49,50
 403 35 403 35 394.5 26 c 128,-1,51
 386 17 386 17 374 11 c 128,-1,52
 362 5 362 5 350 2 c 128,-1,53
 338 -1 338 -1 330 -1 c 0,54,55
 316 -1 316 -1 301 17.5 c 128,-1,56
 286 36 286 36 274 57 c 0,57,58
 270 65 270 65 256 87.5 c 128,-1,59
 242 110 242 110 226 136 c 128,-1,60
 210 162 210 162 194 186.5 c 128,-1,61
 178 211 178 211 169 223 c 0,62,63
 166 228 166 228 161.5 228.5 c 128,-1,64
 157 229 157 229 152 223 c 2,65,-1
 142 210 l 2,66,67
 134 199 134 199 134 178 c 2,68,-1
 134 155 l 1,69,-1
 135 125 l 1,70,-1
 135 102 l 2,71,72
 135 51 135 51 119 25.5 c 128,-1,73
 103 0 103 0 68 0 c 0,0,1
38 561 m 0,74,75
 43 560 43 560 48 563.5 c 128,-1,76
 53 567 53 567 57.5 572.5 c 128,-1,77
 62 578 62 578 65.5 584 c 128,-1,78
 69 590 69 590 70 594 c 0,79,80
 71 597 71 597 68 599.5 c 128,-1,81
 65 602 65 602 62 602 c 0,82,83
 58 602 58 602 53.5 597.5 c 128,-1,84
 49 593 49 593 44.5 586.5 c 128,-1,85
 40 580 40 580 37.5 574 c 128,-1,86
 35 568 35 568 35 565 c 0,87,88
 35 561 35 561 38 561 c 0,74,75
294 558 m 0,89,90
 297 558 297 558 302.5 562.5 c 128,-1,91
 308 567 308 567 313 573.5 c 128,-1,92
 318 580 318 580 321.5 586.5 c 128,-1,93
 325 593 325 593 324 597 c 0,94,95
 324 601 324 601 320 601 c 0,96,97
 317 602 317 602 311 597.5 c 128,-1,98
 305 593 305 593 299.5 586.5 c 128,-1,99
 294 580 294 580 290 573.5 c 128,-1,100
 286 567 286 567 287 564 c 0,101,102
 289 559 289 559 294 558 c 0,89,90
53 81 m 0,103,104
 53 85 53 85 53 97.5 c 128,-1,105
 53 110 53 110 52 123.5 c 128,-1,106
 51 137 51 137 49 147.5 c 128,-1,107
 47 158 47 158 43 158 c 0,108,109
 40 158 40 158 37.5 153 c 128,-1,110
 35 148 35 148 34 141 c 128,-1,111
 33 134 33 134 32.5 127.5 c 128,-1,112
 32 121 32 121 32 119 c 0,113,114
 32 115 32 115 32 104.5 c 128,-1,115
 32 94 32 94 33.5 83 c 128,-1,116
 35 72 35 72 38 63 c 128,-1,117
 41 54 41 54 47 54 c 0,118,119
 49 54 49 54 50.5 58 c 128,-1,120
 52 62 52 62 52.5 66.5 c 128,-1,121
 53 71 53 71 53 75.5 c 128,-1,122
 53 80 53 80 53 81 c 0,103,104
333 21 m 0,123,124
 333 24 333 24 330 30.5 c 128,-1,125
 327 37 327 37 322.5 43 c 128,-1,126
 318 49 318 49 313 54 c 128,-1,127
 308 59 308 59 305 59 c 0,128,129
 303 59 303 59 302 55.5 c 128,-1,130
 301 52 301 52 301 50 c 0,131,132
 301 47 301 47 303.5 41 c 128,-1,133
 306 35 306 35 309.5 29 c 128,-1,134
 313 23 313 23 318 19 c 128,-1,135
 323 15 323 15 327 15 c 0,136,137
 333 15 333 15 333 21 c 0,123,124
62 31 m 0,138,139
 64 36 64 36 60 41 c 128,-1,140
 56 46 56 46 51 46 c 0,141,142
 45 46 45 46 41.5 41 c 128,-1,143
 38 36 38 36 40 31 c 0,144,145
 44 21 44 21 51 21 c 256,146,147
 58 21 58 21 62 31 c 0,138,139
EndSplineSet
EndChar

StartChar: l
Encoding: 108 108 41
Width: 192
GlyphClass: 2
Flags: W
LayerCount: 2
Fore
SplineSet
90 0 m 2,0,1
 65 0 65 0 50.5 8.5 c 128,-1,2
 36 17 36 17 28.5 32 c 128,-1,3
 21 47 21 47 19.5 67.5 c 128,-1,4
 18 88 18 88 18 113 c 2,5,-1
 18 563 l 2,6,7
 18 585 18 585 30 601.5 c 128,-1,8
 42 618 42 618 71 618 c 0,9,10
 86 618 86 618 96 612.5 c 128,-1,11
 106 607 106 607 112 599 c 128,-1,12
 118 591 118 591 120.5 582 c 128,-1,13
 123 573 123 573 123 566 c 2,14,-1
 123 137 l 2,15,16
 123 117 123 117 125 105.5 c 128,-1,17
 127 94 127 94 136 94 c 2,18,-1
 147 94 l 2,19,20
 162 94 162 94 170 80 c 128,-1,21
 178 66 178 66 178 47 c 0,22,23
 178 21 178 21 166 10.5 c 128,-1,24
 154 0 154 0 134 0 c 2,25,-1
 90 0 l 2,0,1
38 523 m 0,26,27
 41 523 41 523 43 529.5 c 128,-1,28
 45 536 45 536 47 545 c 128,-1,29
 49 554 49 554 51.5 564 c 128,-1,30
 54 574 54 574 58 580 c 0,31,32
 63 589 63 589 66 598 c 128,-1,33
 69 607 69 607 61 607 c 0,34,35
 50 607 50 607 40 592.5 c 128,-1,36
 30 578 30 578 30 551 c 0,37,38
 30 536 30 536 33 529.5 c 128,-1,39
 36 523 36 523 38 523 c 0,26,27
EndSplineSet
EndChar

StartChar: m
Encoding: 109 109 42
Width: 584
GlyphClass: 2
Flags: W
LayerCount: 2
Fore
SplineSet
67 0 m 0,0,1
 52 0 52 0 43 5.5 c 128,-1,2
 34 11 34 11 29.5 20 c 128,-1,3
 25 29 25 29 23.5 40.5 c 128,-1,4
 22 52 22 52 22 65 c 2,5,-1
 22 542 l 2,6,7
 22 553 22 553 22.5 566 c 128,-1,8
 23 579 23 579 27 590 c 128,-1,9
 31 601 31 601 40 608.5 c 128,-1,10
 49 616 49 616 65 616 c 0,11,12
 85 616 85 616 95 601.5 c 128,-1,13
 105 587 105 587 109.5 569 c 128,-1,14
 114 551 114 551 115 536.5 c 128,-1,15
 116 522 116 522 118 522 c 256,16,17
 120 522 120 522 124 537.5 c 128,-1,18
 128 553 128 553 138.5 571 c 128,-1,19
 149 589 149 589 168 604.5 c 128,-1,20
 187 620 187 620 220 620 c 0,21,22
 248 620 248 620 266 605 c 128,-1,23
 284 590 284 590 295 571.5 c 128,-1,24
 306 553 306 553 312 538 c 128,-1,25
 318 523 318 523 321 523 c 256,26,27
 324 523 324 523 329.5 538 c 128,-1,28
 335 553 335 553 346 571.5 c 128,-1,29
 357 590 357 590 376.5 605 c 128,-1,30
 396 620 396 620 428 620 c 0,31,32
 469 620 469 620 495 600 c 128,-1,33
 521 580 521 580 535.5 544.5 c 128,-1,34
 550 509 550 509 555.5 460.5 c 128,-1,35
 561 412 561 412 561 356 c 2,36,-1
 561 27 l 2,37,38
 561 13 561 13 542 6.5 c 128,-1,39
 523 0 523 0 503 0 c 256,40,41
 483 0 483 0 472 5.5 c 128,-1,42
 461 11 461 11 461 26 c 2,43,-1
 461 347 l 2,44,45
 461 359 461 359 461 387.5 c 128,-1,46
 461 416 461 416 456.5 446 c 128,-1,47
 452 476 452 476 441.5 498.5 c 128,-1,48
 431 521 431 521 410 521 c 0,49,50
 392 521 392 521 380.5 507 c 128,-1,51
 369 493 369 493 362 468.5 c 128,-1,52
 355 444 355 444 351.5 409.5 c 128,-1,53
 348 375 348 375 346 333 c 0,54,55
 343 284 343 284 342 234 c 128,-1,56
 341 184 341 184 341.5 141.5 c 128,-1,57
 342 99 342 99 342.5 69.5 c 128,-1,58
 343 40 343 40 343 31 c 0,59,60
 343 17 343 17 326.5 8.5 c 128,-1,61
 310 0 310 0 286 0 c 256,62,63
 262 0 262 0 252 7 c 128,-1,64
 242 14 242 14 242 38 c 2,65,-1
 242 347 l 2,66,67
 242 358 242 358 242 387 c 128,-1,68
 242 416 242 416 238 446 c 128,-1,69
 234 476 234 476 224 499 c 128,-1,70
 214 522 214 522 194 522 c 0,71,72
 176 522 176 522 163.5 506.5 c 128,-1,73
 151 491 151 491 143 467 c 128,-1,74
 135 443 135 443 130.5 413 c 128,-1,75
 126 383 126 383 124 355 c 128,-1,76
 122 327 122 327 121.5 303 c 128,-1,77
 121 279 121 279 121 267 c 2,78,-1
 121 45 l 2,79,80
 121 26 121 26 105 13 c 128,-1,81
 89 0 89 0 67 0 c 0,0,1
46 522 m 0,82,83
 52 523 52 523 52.5 533.5 c 128,-1,84
 53 544 53 544 53 552 c 0,85,86
 53 559 53 559 55 567.5 c 128,-1,87
 57 576 57 576 58.5 583 c 128,-1,88
 60 590 60 590 60 595 c 128,-1,89
 60 600 60 600 56 600 c 0,90,91
 49 600 49 600 44.5 593.5 c 128,-1,92
 40 587 40 587 38 578 c 128,-1,93
 36 569 36 569 35 561 c 128,-1,94
 34 553 34 553 34 550 c 0,95,96
 34 542 34 542 36 531.5 c 128,-1,97
 38 521 38 521 46 522 c 0,82,83
277 23 m 0,98,99
 277 33 277 33 270.5 36.5 c 128,-1,100
 264 40 264 40 264 51 c 0,101,102
 264 53 264 53 264 58.5 c 128,-1,103
 264 64 264 64 263.5 69.5 c 128,-1,104
 263 75 263 75 261 79.5 c 128,-1,105
 259 84 259 84 256 84 c 0,106,107
 254 84 254 84 253 79.5 c 128,-1,108
 252 75 252 75 251.5 69 c 128,-1,109
 251 63 251 63 251 57.5 c 128,-1,110
 251 52 251 52 251 50 c 0,111,112
 251 38 251 38 254.5 24.5 c 128,-1,113
 258 11 258 11 268 11 c 0,114,115
 277 11 277 11 277 23 c 0,98,99
493 24 m 0,116,117
 493 34 493 34 487.5 41.5 c 128,-1,118
 482 49 482 49 482 60 c 0,119,120
 482 64 482 64 481.5 74 c 128,-1,121
 481 84 481 84 475 84 c 0,122,123
 470 84 470 84 469.5 73 c 128,-1,124
 469 62 469 62 469 59 c 256,125,126
 469 56 469 56 469.5 48 c 128,-1,127
 470 40 470 40 472 32.5 c 128,-1,128
 474 25 474 25 477 19 c 128,-1,129
 480 13 480 13 485 13 c 0,130,131
 489 13 489 13 491 17.5 c 128,-1,132
 493 22 493 22 493 24 c 0,116,117
65 24 m 0,133,134
 65 35 65 35 60.5 36 c 128,-1,135
 56 37 56 37 51 44 c 0,136,137
 50 46 50 46 49.5 51.5 c 128,-1,138
 49 57 49 57 49 62.5 c 128,-1,139
 49 68 49 68 47.5 72.5 c 128,-1,140
 46 77 46 77 43 77 c 0,141,142
 38 77 38 77 37.5 67.5 c 128,-1,143
 37 58 37 58 37 51 c 0,144,145
 37 47 37 47 38 41 c 128,-1,146
 39 35 39 35 41.5 29 c 128,-1,147
 44 23 44 23 47.5 18.5 c 128,-1,148
 51 14 51 14 56 14 c 0,149,150
 65 14 65 14 65 24 c 0,133,134
EndSplineSet
EndChar

StartChar: n
Encoding: 110 110 43
Width: 391
GlyphClass: 2
Flags: W
LayerCount: 2
Fore
SplineSet
67 0 m 0,0,1
 42 0 42 0 32 14.5 c 128,-1,2
 22 29 22 29 22 65 c 2,3,-1
 22 542 l 2,4,5
 22 586 22 586 31.5 601 c 128,-1,6
 41 616 41 616 70 616 c 0,7,8
 89 616 89 616 107 606.5 c 128,-1,9
 125 597 125 597 125 571 c 2,10,-1
 125 557 l 2,11,12
 125 517 125 517 129 517 c 256,13,14
 133 517 133 517 138 533 c 128,-1,15
 143 549 143 549 155 568.5 c 128,-1,16
 167 588 167 588 189 604 c 128,-1,17
 211 620 211 620 247 620 c 0,18,19
 311 620 311 620 340 557 c 128,-1,20
 369 494 369 494 369 356 c 2,21,-1
 369 31 l 2,22,23
 369 0 369 0 313 0 c 0,24,25
 286 0 286 0 274 11.5 c 128,-1,26
 262 23 262 23 262 34 c 2,27,-1
 262 347 l 2,28,29
 262 399 262 399 259 431 c 128,-1,30
 256 463 256 463 250 481 c 128,-1,31
 244 499 244 499 234.5 505.5 c 128,-1,32
 225 512 225 512 211 512 c 0,33,34
 190 512 190 512 174.5 492.5 c 128,-1,35
 159 473 159 473 149 440 c 128,-1,36
 139 407 139 407 134.5 362.5 c 128,-1,37
 130 318 130 318 130 267 c 2,38,-1
 130 45 l 2,39,40
 130 30 130 30 122.5 21 c 128,-1,41
 115 12 115 12 105 7.5 c 128,-1,42
 95 3 95 3 84.5 1.5 c 128,-1,43
 74 0 74 0 67 0 c 0,0,1
42 515 m 0,44,45
 45 515 45 515 47 527 c 128,-1,46
 49 539 49 539 51 554 c 128,-1,47
 53 569 53 569 54 581.5 c 128,-1,48
 55 594 55 594 55 595 c 0,49,50
 55 597 55 597 54.5 600 c 128,-1,51
 54 603 54 603 52 603 c 0,52,53
 47 603 47 603 43.5 595.5 c 128,-1,54
 40 588 40 588 38 578.5 c 128,-1,55
 36 569 36 569 35 559.5 c 128,-1,56
 34 550 34 550 34 547 c 0,57,58
 34 539 34 539 36 527 c 128,-1,59
 38 515 38 515 42 515 c 0,44,45
299 29 m 0,60,61
 299 35 299 35 297 38 c 128,-1,62
 295 41 295 41 292.5 43 c 128,-1,63
 290 45 290 45 288 49 c 128,-1,64
 286 53 286 53 286 60 c 0,65,66
 286 76 286 76 284.5 80 c 128,-1,67
 283 84 283 84 278 84 c 256,68,69
 273 84 273 84 271.5 76.5 c 128,-1,70
 270 69 270 69 270 59 c 0,71,72
 270 39 270 39 276 27 c 128,-1,73
 282 15 282 15 290 15 c 0,74,75
 293 15 293 15 296 18.5 c 128,-1,76
 299 22 299 22 299 29 c 0,60,61
66 26 m 0,77,78
 66 31 66 31 63.5 33.5 c 128,-1,79
 61 36 61 36 58 38.5 c 128,-1,80
 55 41 55 41 52.5 45 c 128,-1,81
 50 49 50 49 50 56 c 0,82,83
 50 77 50 77 43 77 c 0,84,85
 41 77 41 77 39 69.5 c 128,-1,86
 37 62 37 62 37 51 c 0,87,88
 37 36 37 36 43.5 24 c 128,-1,89
 50 12 50 12 58 12 c 0,90,91
 60 12 60 12 63 16 c 128,-1,92
 66 20 66 20 66 26 c 0,77,78
EndSplineSet
EndChar

StartChar: o
Encoding: 111 111 44
Width: 392
GlyphClass: 2
Flags: W
LayerCount: 2
Fore
SplineSet
197 -7 m 0,0,1
 145 -7 145 -7 110 20 c 128,-1,2
 75 47 75 47 54 90.5 c 128,-1,3
 33 134 33 134 24 188.5 c 128,-1,4
 15 243 15 243 15 298 c 256,5,6
 15 353 15 353 23.5 410.5 c 128,-1,7
 32 468 32 468 53 515.5 c 128,-1,8
 74 563 74 563 109 593 c 128,-1,9
 144 623 144 623 197 623 c 256,10,11
 250 623 250 623 284.5 596.5 c 128,-1,12
 319 570 319 570 339.5 525.5 c 128,-1,13
 360 481 360 481 368.5 424 c 128,-1,14
 377 367 377 367 377 307 c 256,15,16
 377 247 377 247 368.5 190 c 128,-1,17
 360 133 360 133 339.5 89.5 c 128,-1,18
 319 46 319 46 284.5 19.5 c 128,-1,19
 250 -7 250 -7 197 -7 c 0,0,1
85 505 m 0,20,21
 90 516 90 516 101 533.5 c 128,-1,22
 112 551 112 551 124 561 c 0,23,24
 130 566 130 566 125.5 571.5 c 128,-1,25
 121 577 121 577 119 577 c 0,26,27
 113 577 113 577 104.5 567 c 128,-1,28
 96 557 96 557 87.5 543.5 c 128,-1,29
 79 530 79 530 73 515 c 128,-1,30
 67 500 67 500 67 491 c 0,31,32
 67 483 67 483 72 483 c 0,33,34
 76 483 76 483 85 505 c 0,20,21
197 56 m 0,35,36
 222 56 222 56 237.5 83.5 c 128,-1,37
 253 111 253 111 261.5 150.5 c 128,-1,38
 270 190 270 190 273 233.5 c 128,-1,39
 276 277 276 277 276 308 c 0,40,41
 276 323 276 323 274.5 347 c 128,-1,42
 273 371 273 371 269.5 399 c 128,-1,43
 266 427 266 427 260.5 456 c 128,-1,44
 255 485 255 485 246 508.5 c 128,-1,45
 237 532 237 532 225 546.5 c 128,-1,46
 213 561 213 561 197 561 c 256,47,48
 181 561 181 561 169 546 c 128,-1,49
 157 531 157 531 148.5 507 c 128,-1,50
 140 483 140 483 134.5 454 c 128,-1,51
 129 425 129 425 126 397 c 128,-1,52
 123 369 123 369 122 345 c 128,-1,53
 121 321 121 321 121 307 c 0,54,55
 121 276 121 276 124 232.5 c 128,-1,56
 127 189 127 189 135.5 150 c 128,-1,57
 144 111 144 111 158.5 83.5 c 128,-1,58
 173 56 173 56 197 56 c 0,35,36
71 461 m 0,59,60
 71 471 71 471 69 473.5 c 128,-1,61
 67 476 67 476 62 476 c 256,62,63
 57 476 57 476 54.5 470.5 c 128,-1,64
 52 465 52 465 52 459 c 0,65,66
 52 451 52 451 55.5 448 c 128,-1,67
 59 445 59 445 62 445 c 0,68,69
 64 445 64 445 67.5 449 c 128,-1,70
 71 453 71 453 71 461 c 0,59,60
EndSplineSet
Substitution2: "Single Substitution lookup 5 subtable" ordmasculine
EndChar

StartChar: p
Encoding: 112 112 45
Width: 388
GlyphClass: 2
Flags: W
LayerCount: 2
Fore
SplineSet
17 531 m 2,0,1
 17 574 17 574 30 595 c 128,-1,2
 43 616 43 616 77 616 c 0,3,4
 96 616 96 616 106.5 605.5 c 128,-1,5
 117 595 117 595 117 586 c 0,6,7
 117 552 117 552 123 552 c 0,8,9
 126 552 126 552 132 563 c 128,-1,10
 138 574 138 574 150 587.5 c 128,-1,11
 162 601 162 601 180 612 c 128,-1,12
 198 623 198 623 225 623 c 0,13,14
 258 623 258 623 285 607.5 c 128,-1,15
 312 592 312 592 331.5 563.5 c 128,-1,16
 351 535 351 535 362 495 c 128,-1,17
 373 455 373 455 373 405 c 0,18,19
 373 289 373 289 326 220.5 c 128,-1,20
 279 152 279 152 196 150 c 2,21,-1
 151 149 l 2,22,23
 136 149 136 149 133.5 131 c 128,-1,24
 131 113 131 113 131 94 c 2,25,-1
 131 65 l 2,26,27
 131 47 131 47 125.5 35 c 128,-1,28
 120 23 120 23 111 15 c 128,-1,29
 102 7 102 7 91.5 3.5 c 128,-1,30
 81 0 81 0 71 0 c 0,31,32
 51 0 51 0 34 15 c 128,-1,33
 17 30 17 30 17 69 c 2,34,-1
 17 531 l 2,0,1
53 535 m 0,35,36
 52 537 52 537 51 539 c 0,37,38
 48 544 48 544 48 552 c 0,39,40
 48 561 48 561 52.5 568.5 c 128,-1,41
 57 576 57 576 62.5 582 c 128,-1,42
 68 588 68 588 72.5 592 c 128,-1,43
 77 596 77 596 77 598 c 0,44,45
 77 603 77 603 67 603 c 0,46,47
 53 603 53 603 42 586.5 c 128,-1,48
 31 570 31 570 31 545 c 0,49,50
 31 534 31 534 34 526.5 c 128,-1,51
 37 519 37 519 42 519 c 0,52,53
 45 519 45 519 49 523.5 c 128,-1,54
 53 528 53 528 53 535 c 0,35,36
180 241 m 2,55,56
 214 241 214 241 236 284.5 c 128,-1,57
 258 328 258 328 258 400 c 0,58,59
 258 460 258 460 245 493 c 128,-1,60
 232 526 232 526 205 526 c 0,61,62
 187 526 187 526 173 519 c 128,-1,63
 159 512 159 512 150 500.5 c 128,-1,64
 141 489 141 489 136 474.5 c 128,-1,65
 131 460 131 460 131 445 c 2,66,-1
 131 273 l 2,67,68
 131 259 131 259 136.5 250 c 128,-1,69
 142 241 142 241 150 241 c 2,70,-1
 180 241 l 2,55,56
57 35 m 256,71,72
 52 40 52 40 48.5 53 c 128,-1,73
 45 66 45 66 45 80 c 0,74,75
 45 105 45 105 38 105 c 0,76,77
 33 105 33 105 31.5 96.5 c 128,-1,78
 30 88 30 88 30 76 c 0,79,80
 30 52 30 52 37 36 c 128,-1,81
 44 20 44 20 54 20 c 0,82,83
 56 20 56 20 59 22 c 128,-1,84
 62 24 62 24 62 26 c 0,85,86
 62 30 62 30 57 35 c 256,71,72
EndSplineSet
EndChar

StartChar: q
Encoding: 113 113 46
Width: 392
GlyphClass: 2
Flags: W
LayerCount: 2
Fore
SplineSet
246 0 m 0,0,1
 243 -2 243 -2 242.5 -10 c 128,-1,2
 242 -18 242 -18 242.5 -30 c 128,-1,3
 243 -42 243 -42 244.5 -56 c 128,-1,4
 246 -70 246 -70 246 -83 c 0,5,6
 246 -95 246 -95 237 -109.5 c 128,-1,7
 228 -124 228 -124 203 -124 c 256,8,9
 178 -124 178 -124 169.5 -108.5 c 128,-1,10
 161 -93 161 -93 161 -75 c 0,11,12
 161 -61 161 -61 161.5 -48 c 128,-1,13
 162 -35 162 -35 162 -22 c 0,14,15
 162 -5 162 -5 157 -2 c 0,16,17
 118 14 118 14 90.5 44 c 128,-1,18
 63 74 63 74 46.5 114 c 128,-1,19
 30 154 30 154 22.5 201.5 c 128,-1,20
 15 249 15 249 15 298 c 0,21,22
 15 353 15 353 23.5 410.5 c 128,-1,23
 32 468 32 468 53 515.5 c 128,-1,24
 74 563 74 563 109 593 c 128,-1,25
 144 623 144 623 197 623 c 256,26,27
 250 623 250 623 284.5 596.5 c 128,-1,28
 319 570 319 570 339.5 525.5 c 128,-1,29
 360 481 360 481 368.5 424 c 128,-1,30
 377 367 377 367 377 307 c 0,31,32
 377 255 377 255 370 206.5 c 128,-1,33
 363 158 363 158 347 117.5 c 128,-1,34
 331 77 331 77 306 47 c 128,-1,35
 281 17 281 17 246 0 c 0,0,1
85 505 m 0,36,37
 90 516 90 516 101 533.5 c 128,-1,38
 112 551 112 551 124 561 c 0,39,40
 130 566 130 566 125.5 571.5 c 128,-1,41
 121 577 121 577 119 577 c 0,42,43
 113 577 113 577 104.5 567 c 128,-1,44
 96 557 96 557 87.5 543.5 c 128,-1,45
 79 530 79 530 73 515 c 128,-1,46
 67 500 67 500 67 491 c 0,47,48
 67 483 67 483 72 483 c 0,49,50
 76 483 76 483 85 505 c 0,36,37
197 56 m 0,51,52
 222 56 222 56 237.5 83.5 c 128,-1,53
 253 111 253 111 261.5 150.5 c 128,-1,54
 270 190 270 190 273 233.5 c 128,-1,55
 276 277 276 277 276 308 c 0,56,57
 276 323 276 323 274.5 347 c 128,-1,58
 273 371 273 371 269.5 399 c 128,-1,59
 266 427 266 427 260.5 456 c 128,-1,60
 255 485 255 485 246 508.5 c 128,-1,61
 237 532 237 532 225 546.5 c 128,-1,62
 213 561 213 561 197 561 c 256,63,64
 181 561 181 561 169 546 c 128,-1,65
 157 531 157 531 148.5 507 c 128,-1,66
 140 483 140 483 134.5 454 c 128,-1,67
 129 425 129 425 126 397 c 128,-1,68
 123 369 123 369 122 345 c 128,-1,69
 121 321 121 321 121 307 c 0,70,71
 121 276 121 276 124 232.5 c 128,-1,72
 127 189 127 189 135.5 150 c 128,-1,73
 144 111 144 111 158.5 83.5 c 128,-1,74
 173 56 173 56 197 56 c 0,51,52
71 461 m 0,75,76
 71 471 71 471 69 473.5 c 128,-1,77
 67 476 67 476 62 476 c 256,78,79
 57 476 57 476 54.5 470.5 c 128,-1,80
 52 465 52 465 52 459 c 0,81,82
 52 451 52 451 55.5 448 c 128,-1,83
 59 445 59 445 62 445 c 0,84,85
 64 445 64 445 67.5 449 c 128,-1,86
 71 453 71 453 71 461 c 0,75,76
208 -97 m 0,87,88
 208 -91 208 -91 205 -87.5 c 128,-1,89
 202 -84 202 -84 198.5 -81 c 128,-1,90
 195 -78 195 -78 192 -75.5 c 128,-1,91
 189 -73 189 -73 189 -68 c 0,92,93
 189 -50 189 -50 180 -50 c 0,94,95
 175 -50 175 -50 175 -70 c 0,96,97
 175 -80 175 -80 180.5 -94.5 c 128,-1,98
 186 -109 186 -109 197 -109 c 0,99,100
 201 -109 201 -109 204.5 -106.5 c 128,-1,101
 208 -104 208 -104 208 -97 c 0,87,88
EndSplineSet
EndChar

StartChar: r
Encoding: 114 114 47
Width: 260
GlyphClass: 2
Flags: W
LayerCount: 2
Fore
SplineSet
59 0 m 0,0,1
 34 0 34 0 24 17 c 128,-1,2
 14 34 14 34 14 64 c 2,3,-1
 14 524 l 2,4,5
 14 578 14 578 25 598 c 128,-1,6
 36 618 36 618 62 618 c 0,7,8
 85 618 85 618 98.5 599.5 c 128,-1,9
 112 581 112 581 112 546 c 0,10,11
 112 535 112 535 112 529.5 c 128,-1,12
 112 524 112 524 115 524 c 0,13,14
 117 524 117 524 117.5 527 c 128,-1,15
 118 530 118 530 120 534 c 0,16,17
 123 541 123 541 128.5 555 c 128,-1,18
 134 569 134 569 144.5 583 c 128,-1,19
 155 597 155 597 171 607.5 c 128,-1,20
 187 618 187 618 209 618 c 0,21,22
 229 618 229 618 241 606 c 128,-1,23
 253 594 253 594 253 575 c 0,24,25
 253 555 253 555 244.5 537.5 c 128,-1,26
 236 520 236 520 216 520 c 256,27,28
 196 520 196 520 178.5 501.5 c 128,-1,29
 161 483 161 483 148.5 454.5 c 128,-1,30
 136 426 136 426 128.5 392 c 128,-1,31
 121 358 121 358 121 327 c 2,32,-1
 121 55 l 2,33,34
 121 25 121 25 101 12.5 c 128,-1,35
 81 0 81 0 59 0 c 0,0,1
41 576 m 256,36,37
 42 580 42 580 43.5 584.5 c 128,-1,38
 45 589 45 589 46 593 c 128,-1,39
 47 597 47 597 46.5 599.5 c 128,-1,40
 46 602 46 602 42 602 c 0,41,42
 37 602 37 602 32 591.5 c 128,-1,43
 27 581 27 581 27 570 c 0,44,45
 27 549 27 549 34 549 c 0,46,47
 39 549 39 549 39.5 560.5 c 128,-1,48
 40 572 40 572 41 576 c 256,36,37
41 50 m 0,49,50
 38 62 38 62 36.5 71.5 c 128,-1,51
 35 81 35 81 32 81 c 0,52,53
 27 81 27 81 27 64 c 0,54,55
 27 46 27 46 32 32 c 128,-1,56
 37 18 37 18 44 18 c 0,57,58
 46 18 46 18 48.5 19 c 128,-1,59
 51 20 51 20 51 25 c 0,60,61
 51 28 51 28 47 34 c 128,-1,62
 43 40 43 40 41 50 c 0,49,50
EndSplineSet
EndChar

StartChar: s
Encoding: 115 115 48
Width: 360
GlyphClass: 2
Flags: W
LayerCount: 2
Fore
SplineSet
175 -9 m 0,0,1
 144 -9 144 -9 113 4.5 c 128,-1,2
 82 18 82 18 57.5 43 c 128,-1,3
 33 68 33 68 18 105 c 128,-1,4
 3 142 3 142 3 188 c 0,5,6
 3 219 3 219 21 239 c 128,-1,7
 39 259 39 259 66 257 c 0,8,9
 83 256 83 256 90.5 244.5 c 128,-1,10
 98 233 98 233 98 207 c 0,11,12
 98 189 98 189 102.5 166 c 128,-1,13
 107 143 107 143 116 123 c 128,-1,14
 125 103 125 103 137.5 89.5 c 128,-1,15
 150 76 150 76 165 76 c 0,16,17
 229 76 229 76 229 141 c 0,18,19
 229 162 229 162 222.5 180 c 128,-1,20
 216 198 216 198 205.5 213 c 128,-1,21
 195 228 195 228 182 242 c 128,-1,22
 169 256 169 256 155 269 c 0,23,24
 83 341 83 341 52.5 389 c 128,-1,25
 22 437 22 437 22 477 c 0,26,27
 22 546 22 546 64.5 585 c 128,-1,28
 107 624 107 624 181 624 c 0,29,30
 215 624 215 624 243 609 c 128,-1,31
 271 594 271 594 291.5 570 c 128,-1,32
 312 546 312 546 323 516.5 c 128,-1,33
 334 487 334 487 334 459 c 0,34,35
 334 429 334 429 316.5 404.5 c 128,-1,36
 299 380 299 380 273 380 c 0,37,38
 261 380 261 380 247 390 c 128,-1,39
 233 400 233 400 233 417 c 0,40,41
 233 476 233 476 216 503.5 c 128,-1,42
 199 531 199 531 177 531 c 0,43,44
 135 531 135 531 135 483 c 0,45,46
 135 468 135 468 139 453.5 c 128,-1,47
 143 439 143 439 153.5 422 c 128,-1,48
 164 405 164 405 181.5 384.5 c 128,-1,49
 199 364 199 364 226 337 c 0,50,51
 259 304 259 304 281 278 c 128,-1,52
 303 252 303 252 316.5 230 c 128,-1,53
 330 208 330 208 335.5 189 c 128,-1,54
 341 170 341 170 341 151 c 0,55,56
 341 116 341 116 328.5 86.5 c 128,-1,57
 316 57 316 57 294 36 c 128,-1,58
 272 15 272 15 241.5 3 c 128,-1,59
 211 -9 211 -9 175 -9 c 0,0,1
80 543 m 0,60,61
 84 550 84 550 91 559.5 c 128,-1,62
 98 569 98 569 106 575 c 0,63,64
 114 580 114 580 116.5 586.5 c 128,-1,65
 119 593 119 593 116 593 c 0,66,67
 110 594 110 594 100 586.5 c 128,-1,68
 90 579 90 579 81 568 c 128,-1,69
 72 557 72 557 65 545 c 128,-1,70
 58 533 58 533 57 524 c 0,71,72
 57 518 57 518 63 518 c 0,73,74
 68 517 68 517 71 525 c 128,-1,75
 74 533 74 533 80 543 c 0,60,61
64 498 m 0,76,77
 64 505 64 505 58 505 c 0,78,79
 55 505 55 505 52.5 502 c 128,-1,80
 50 499 50 499 50 497 c 0,81,82
 50 492 50 492 57 491 c 0,83,84
 62 491 62 491 64 498 c 0,76,77
40 190 m 256,85,86
 45 204 45 204 50.5 213 c 128,-1,87
 56 222 56 222 57 230 c 0,88,89
 57 235 57 235 54 235 c 0,90,91
 46 236 46 236 39 229.5 c 128,-1,92
 32 223 32 223 27.5 213 c 128,-1,93
 23 203 23 203 22 190.5 c 128,-1,94
 21 178 21 178 25 166 c 0,95,96
 29 156 29 156 33 156 c 0,97,98
 38 156 38 156 36.5 166 c 128,-1,99
 35 176 35 176 40 190 c 256,85,86
EndSplineSet
EndChar

StartChar: t
Encoding: 116 116 49
Width: 233
GlyphClass: 2
Flags: W
LayerCount: 2
Fore
SplineSet
146 0 m 0,0,1
 108 0 108 0 87 17.5 c 128,-1,2
 66 35 66 35 56.5 64 c 128,-1,3
 47 93 47 93 45.5 130 c 128,-1,4
 44 167 44 167 44 206 c 2,5,-1
 44 378 l 1,6,-1
 33 378 l 2,7,8
 18 378 18 378 10 389 c 128,-1,9
 2 400 2 400 2 417 c 256,10,11
 2 434 2 434 8.5 444 c 128,-1,12
 15 454 15 454 33 454 c 2,13,-1
 44 454 l 1,14,-1
 44 552 l 2,15,16
 44 590 44 590 56.5 604 c 128,-1,17
 69 618 69 618 92 618 c 256,18,19
 115 618 115 618 131 602.5 c 128,-1,20
 147 587 147 587 147 549 c 2,21,-1
 147 454 l 1,22,-1
 178 454 l 2,23,24
 196 454 196 454 203.5 445.5 c 128,-1,25
 211 437 211 437 211 423 c 0,26,27
 211 403 211 403 204.5 390.5 c 128,-1,28
 198 378 198 378 182 378 c 2,29,-1
 147 378 l 1,30,-1
 147 190 l 2,31,32
 147 135 147 135 149.5 112 c 128,-1,33
 152 89 152 89 163 89 c 2,34,-1
 171 89 l 1,35,-1
 187 92 l 2,36,37
 208 92 208 92 216 79 c 128,-1,38
 224 66 224 66 224 46 c 0,39,40
 224 39 224 39 222 30.5 c 128,-1,41
 220 22 220 22 212 15.5 c 128,-1,42
 204 9 204 9 188.5 4.5 c 128,-1,43
 173 0 173 0 146 0 c 0,0,1
70 573 m 0,44,45
 74 584 74 584 79.5 594 c 128,-1,46
 85 604 85 604 77 604 c 0,47,48
 72 604 72 604 68 599.5 c 128,-1,49
 64 595 64 595 61.5 588.5 c 128,-1,50
 59 582 59 582 57.5 575.5 c 128,-1,51
 56 569 56 569 56 565 c 0,52,53
 56 544 56 544 61 544 c 0,54,55
 65 544 65 544 66.5 555 c 128,-1,56
 68 566 68 566 70 573 c 0,44,45
22 424 m 0,57,58
 22 429 22 429 23.5 435.5 c 128,-1,59
 25 442 25 442 23 442 c 0,60,61
 18 442 18 442 14.5 434.5 c 128,-1,62
 11 427 11 427 11 416 c 0,63,64
 11 409 11 409 13.5 401.5 c 128,-1,65
 16 394 16 394 21 394 c 256,66,67
 26 394 26 394 24 404.5 c 128,-1,68
 22 415 22 415 22 424 c 0,57,58
99 50 m 0,69,70
 99 54 99 54 90.5 70 c 128,-1,71
 82 86 82 86 81 100 c 0,72,73
 80 108 80 108 76 112.5 c 128,-1,74
 72 117 72 117 69 117 c 0,75,76
 63 117 63 117 62.5 108.5 c 128,-1,77
 62 100 62 100 62 95 c 0,78,79
 62 91 62 91 64.5 81.5 c 128,-1,80
 67 72 67 72 71 62.5 c 128,-1,81
 75 53 75 53 80 46 c 128,-1,82
 85 39 85 39 90 39 c 0,83,84
 93 39 93 39 96 43 c 128,-1,85
 99 47 99 47 99 50 c 0,69,70
EndSplineSet
EndChar

StartChar: u
Encoding: 117 117 50
Width: 385
GlyphClass: 2
Flags: W
LayerCount: 2
Fore
SplineSet
312 0 m 0,0,1
 291 0 291 0 282.5 17 c 128,-1,2
 274 34 274 34 274 59 c 256,3,4
 274 84 274 84 270 84 c 0,5,6
 267 84 267 84 264 78.5 c 128,-1,7
 261 73 261 73 254 65 c 0,8,9
 247 56 247 56 237.5 44.5 c 128,-1,10
 228 33 228 33 215.5 23.5 c 128,-1,11
 203 14 203 14 187.5 7 c 128,-1,12
 172 0 172 0 153 0 c 0,13,14
 88 0 88 0 50.5 43.5 c 128,-1,15
 13 87 13 87 13 164 c 2,16,-1
 13 569 l 2,17,18
 13 592 13 592 27 604.5 c 128,-1,19
 41 617 41 617 61 617 c 0,20,21
 83 617 83 617 101.5 602.5 c 128,-1,22
 120 588 120 588 120 566 c 2,23,-1
 120 174 l 2,24,25
 120 140 120 140 133.5 118.5 c 128,-1,26
 147 97 147 97 169 97 c 0,27,28
 187 97 187 97 204 110.5 c 128,-1,29
 221 124 221 124 234.5 145 c 128,-1,30
 248 166 248 166 256 190 c 128,-1,31
 264 214 264 214 264 235 c 2,32,-1
 264 554 l 2,33,34
 264 617 264 617 311 617 c 0,35,36
 334 617 334 617 352 601 c 128,-1,37
 370 585 370 585 370 542 c 2,38,-1
 370 75 l 2,39,40
 370 51 370 51 365 36.5 c 128,-1,41
 360 22 360 22 352 13.5 c 128,-1,42
 344 5 344 5 333.5 2.5 c 128,-1,43
 323 0 323 0 312 0 c 0,0,1
299 588 m 256,44,45
 307 596 307 596 304.5 600.5 c 128,-1,46
 302 605 302 605 296 605 c 0,47,48
 288 605 288 605 281 591.5 c 128,-1,49
 274 578 274 578 274 567 c 0,50,51
 274 560 274 560 276 558.5 c 128,-1,52
 278 557 278 557 281 557 c 0,53,54
 285 557 285 557 288 568.5 c 128,-1,55
 291 580 291 580 299 588 c 256,44,45
53 597 m 0,56,57
 53 604 53 604 49 604 c 0,58,59
 44 604 44 604 34 591.5 c 128,-1,60
 24 579 24 579 24 568 c 0,61,62
 24 558 24 558 29 558 c 0,63,64
 32 558 32 558 36 563 c 128,-1,65
 40 568 40 568 44 575 c 128,-1,66
 48 582 48 582 50.5 588 c 128,-1,67
 53 594 53 594 53 597 c 0,56,57
95 52 m 0,68,69
 95 57 95 57 91 60.5 c 128,-1,70
 87 64 87 64 81.5 68 c 128,-1,71
 76 72 76 72 70.5 77.5 c 128,-1,72
 65 83 65 83 62 92 c 0,73,74
 58 103 58 103 55.5 109.5 c 128,-1,75
 53 116 53 116 49 116 c 0,76,77
 41 116 41 116 41 103 c 0,78,79
 41 96 41 96 46 85 c 128,-1,80
 51 74 51 74 58.5 64 c 128,-1,81
 66 54 66 54 73.5 47 c 128,-1,82
 81 40 81 40 87 40 c 0,83,84
 95 40 95 40 95 52 c 0,68,69
300 52 m 0,85,86
 299 62 299 62 299 69 c 128,-1,87
 299 76 299 76 295 76 c 256,88,89
 291 76 291 76 289.5 69.5 c 128,-1,90
 288 63 288 63 288 55 c 0,91,92
 288 42 288 42 294 27 c 128,-1,93
 300 12 300 12 307 12 c 0,94,95
 309 12 309 12 308.5 15.5 c 128,-1,96
 308 19 308 19 306 25 c 128,-1,97
 304 31 304 31 302 38 c 128,-1,98
 300 45 300 45 300 52 c 0,85,86
EndSplineSet
EndChar

StartChar: v
Encoding: 118 118 51
Width: 540
GlyphClass: 2
Flags: W
LayerCount: 2
Fore
SplineSet
107 290 m 1,0,-1
 107 368 l 1,1,-1
 441 368 l 1,2,-1
 441 290 l 1,3,-1
 107 290 l 1,0,-1
433 0 m 0,4,5
 101 0 l 0,6,7
 83 0 83 0 71 8.5 c 128,-1,8
 59 17 59 17 52.5 31 c 128,-1,9
 46 45 46 45 43.5 64 c 128,-1,10
 41 83 41 83 41 105 c 2,11,-1
 41 546 l 2,12,13
 41 552 41 552 43.5 563.5 c 128,-1,14
 46 575 46 575 52 587 c 128,-1,15
 58 599 58 599 69 607.5 c 128,-1,16
 80 616 80 616 98 616 c 0,17,18
 113 616 113 616 123.5 609 c 128,-1,19
 134 602 134 602 140.5 591 c 128,-1,20
 147 580 147 580 150 567.5 c 128,-1,21
 153 555 153 555 153 544 c 2,22,-1
 153 115 l 2,23,24
 153 107 153 107 155.5 101 c 128,-1,25
 157.983785975 95.0389136603 157.983785975 95.0389136603 166 95 c 2,26,-1
 372 94 l 2,27,28
 377 94 377 94 380 96.5 c 128,-1,29
 383 99 383 99 383 113 c 2,30,-1
 383 540 l 2,31,32
 383 578 383 578 395 597 c 128,-1,33
 407 616 407 616 428 616 c 0,34,35
 439 616 439 616 450.5 612 c 128,-1,36
 462 608 462 608 472 598.5 c 128,-1,37
 482 589 482 589 488.5 574 c 128,-1,38
 495 559 495 559 495 537 c 2,39,-1
 495 91 l 2,40,41
 495 77 495 77 491.5 61 c 128,-1,42
 488 45 488 45 480.5 31.5 c 128,-1,43
 473 18 473 18 461 9 c 128,-1,44
 449 0 449 0 433 0 c 0,4,5
58 555 m 0,45,46
 61 555 61 555 65.5 559.5 c 128,-1,47
 70 564 70 564 74.5 570.5 c 128,-1,48
 79 577 79 577 83 583.5 c 128,-1,49
 87 590 87 590 88 593 c 256,50,51
 89 596 89 596 88.5 600.5 c 128,-1,52
 88 605 88 605 85 604 c 0,53,54
 78 603 78 603 73 597.5 c 128,-1,55
 68 592 68 592 64 585 c 128,-1,56
 60 578 60 578 58 572 c 128,-1,57
 56 566 56 566 56 563 c 0,58,59
 56 561 56 561 56 558.5 c 128,-1,60
 56 556 56 556 58 555 c 0,45,46
420 575 m 0,61,62
 421 583 421 583 426.5 591 c 128,-1,63
 432 599 432 599 426 600 c 0,64,65
 418 601 418 601 409.5 591.5 c 0,66,67
 400 581 400 581 399 568 c 0,68,69
 398 553 398 553 404 552 c 0,70,71
 412 551 412 551 415.5 561 c 128,-1,72
 419 571 419 571 420 575 c 0,61,62
83 30 m 0,73,74
 83 35 83 35 79 39 c 0,75,76
 74 44 74 44 72 59.5 c 128,-1,77
 70 75 70 75 70 86 c 0,78,79
 70 103 70 103 63 103 c 0,80,81
 59 103 59 103 58 96 c 128,-1,82
 57 89 57 89 57 86 c 0,83,84
 57 82 57 82 58 72 c 128,-1,85
 59 62 59 62 61 52 c 128,-1,86
 63 42 63 42 67 34.5 c 128,-1,87
 71 27 71 27 77 27 c 256,88,89
 83 27 83 27 83 30 c 0,73,74
EndSplineSet
EndChar

StartChar: w
Encoding: 119 119 52
Width: 568
GlyphClass: 2
Flags: W
LayerCount: 2
Fore
SplineSet
177 -2 m 0,0,1
 142 -2 142 -2 119.5 5 c 128,-1,2
 97 12 97 12 88 29 c 0,3,4
 82 39 82 39 74 77.5 c 128,-1,5
 66 116 66 116 57 169.5 c 128,-1,6
 48 223 48 223 39 284.5 c 128,-1,7
 30 346 30 346 23 402.5 c 128,-1,8
 16 459 16 459 11.5 503.5 c 128,-1,9
 7 548 7 548 7 567 c 0,10,11
 7 588 7 588 21 603 c 128,-1,12
 35 618 35 618 56 618 c 256,13,14
 77 618 77 618 94.5 608 c 128,-1,15
 112 598 112 598 117 569 c 0,16,17
 119 560 119 560 122.5 520.5 c 128,-1,18
 126 481 126 481 131 428 c 128,-1,19
 136 375 136 375 142 315.5 c 128,-1,20
 148 256 148 256 154 206.5 c 128,-1,21
 160 157 160 157 165.5 124 c 128,-1,22
 171 91 171 91 175 91 c 0,23,24
 176 91 176 91 181 125 c 128,-1,25
 186 159 186 159 193.5 210.5 c 128,-1,26
 201 262 201 262 209 323 c 128,-1,27
 217 384 217 384 224.5 438.5 c 128,-1,28
 232 493 232 493 238 533 c 128,-1,29
 244 573 244 573 246 582 c 0,30,31
 251 605 251 605 262.5 611.5 c 128,-1,32
 274 618 274 618 294 618 c 0,33,34
 315 618 315 618 333 608 c 128,-1,35
 351 598 351 598 356 569 c 0,36,37
 357 562 357 562 359.5 537.5 c 128,-1,38
 362 513 362 513 365 478 c 128,-1,39
 368 443 368 443 371.5 400.5 c 128,-1,40
 375 358 375 358 379 314.5 c 128,-1,41
 383 271 383 271 387 230 c 128,-1,42
 391 189 391 189 395 157.5 c 128,-1,43
 399 126 399 126 403 107 c 128,-1,44
 407 88 407 88 410 88 c 0,45,46
 411 88 411 88 416 122 c 128,-1,47
 421 156 421 156 428.5 208 c 128,-1,48
 436 260 436 260 444 321.5 c 128,-1,49
 452 383 452 383 459.5 438 c 128,-1,50
 467 493 467 493 473 533 c 128,-1,51
 479 573 479 573 481 582 c 0,52,53
 485 599 485 599 493.5 608 c 128,-1,54
 502 617 502 617 512 617 c 0,55,56
 518 617 518 617 527.5 615 c 128,-1,57
 537 613 537 613 545.5 609 c 128,-1,58
 554 605 554 605 560.5 599 c 128,-1,59
 567 593 567 593 567 585 c 0,60,61
 567 579 567 579 562.5 541 c 128,-1,62
 558 503 558 503 550.5 449 c 128,-1,63
 543 395 543 395 533.5 331 c 128,-1,64
 524 267 524 267 514.5 208.5 c 128,-1,65
 505 150 505 150 496.5 104.5 c 128,-1,66
 488 59 488 59 482 40 c 0,67,68
 478 27 478 27 469 19 c 128,-1,69
 460 11 460 11 450 6.5 c 128,-1,70
 440 2 440 2 429.5 0 c 128,-1,71
 419 -2 419 -2 412 -2 c 0,72,73
 377 -2 377 -2 355 5 c 128,-1,74
 333 12 333 12 323 29 c 0,75,76
 321 33 321 33 317.5 54.5 c 128,-1,77
 314 76 314 76 310.5 105 c 128,-1,78
 307 134 307 134 303 167 c 128,-1,79
 299 200 299 200 295.5 228 c 128,-1,80
 292 256 292 256 289.5 274.5 c 128,-1,81
 287 293 287 293 285 293 c 256,82,83
 283 293 283 293 279.5 276 c 128,-1,84
 276 259 276 259 272 233.5 c 128,-1,85
 268 208 268 208 264.5 177 c 128,-1,86
 261 146 261 146 257.5 117.5 c 128,-1,87
 254 89 254 89 250.5 68 c 128,-1,88
 247 47 247 47 245 40 c 0,89,90
 241 27 241 27 232.5 19 c 128,-1,91
 224 11 224 11 214 6.5 c 128,-1,92
 204 2 204 2 194 0 c 128,-1,93
 184 -2 184 -2 177 -2 c 0,0,1
508 584 m 0,94,95
 508 597 508 597 504 597 c 0,96,97
 499 597 499 597 495.5 586 c 128,-1,98
 492 575 492 575 492 564 c 0,99,100
 492 559 492 559 493 554 c 128,-1,101
 494 549 494 549 496 549 c 256,102,103
 498 549 498 549 500.5 553.5 c 128,-1,104
 503 558 503 558 504.5 564 c 128,-1,105
 506 570 506 570 507 576 c 128,-1,106
 508 582 508 582 508 584 c 0,94,95
273 584 m 0,107,108
 273 597 273 597 269 597 c 0,109,110
 264 597 264 597 260.5 586 c 128,-1,111
 257 575 257 575 257 564 c 0,112,113
 257 559 257 559 258 554 c 128,-1,114
 259 549 259 549 261 549 c 256,115,116
 263 549 263 549 265.5 553.5 c 128,-1,117
 268 558 268 558 269.5 564 c 128,-1,118
 271 570 271 570 272 576 c 128,-1,119
 273 582 273 582 273 584 c 0,107,108
39 579 m 0,120,121
 44 587 44 587 41.5 591.5 c 128,-1,122
 39 596 39 596 35 596 c 0,123,124
 29 596 29 596 24.5 580.5 c 128,-1,125
 20 565 20 565 20 545 c 0,126,127
 20 522 20 522 25 522 c 0,128,129
 28 522 28 522 29 529.5 c 128,-1,130
 30 537 30 537 31.5 546.5 c 128,-1,131
 33 556 33 556 34.5 565.5 c 128,-1,132
 36 575 36 575 39 579 c 0,120,121
350 40 m 0,133,134
 343 52 343 52 339.5 67.5 c 128,-1,135
 336 83 336 83 330 83 c 0,136,137
 327 83 327 83 326.5 78.5 c 128,-1,138
 326 74 326 74 326 71 c 256,139,140
 326 68 326 68 327.5 60 c 128,-1,141
 329 52 329 52 332 44 c 128,-1,142
 335 36 335 36 338.5 29.5 c 128,-1,143
 342 23 342 23 346 23 c 0,144,145
 351 23 351 23 353 27.5 c 128,-1,146
 355 32 355 32 350 40 c 0,133,134
115 40 m 0,147,148
 108 52 108 52 104.5 67.5 c 128,-1,149
 101 83 101 83 95 83 c 0,150,151
 92 83 92 83 91.5 78.5 c 128,-1,152
 91 74 91 74 91 71 c 256,153,154
 91 68 91 68 92.5 60 c 128,-1,155
 94 52 94 52 97 44 c 128,-1,156
 100 36 100 36 103.5 29.5 c 128,-1,157
 107 23 107 23 111 23 c 0,158,159
 116 23 116 23 118 27.5 c 128,-1,160
 120 32 120 32 115 40 c 0,147,148
EndSplineSet
EndChar

StartChar: x
Encoding: 120 120 53
Width: 416
GlyphClass: 2
Flags: W
LayerCount: 2
Fore
SplineSet
42 -3 m 0,0,1
 27 -3 27 -3 15.5 7.5 c 128,-1,2
 4 18 4 18 4 29 c 0,3,4
 4 36 4 36 8 43 c 2,5,-1
 130 282 l 2,6,7
 146 312 146 312 146 321 c 0,8,9
 146 327 146 327 142 335.5 c 128,-1,10
 138 344 138 344 133 352 c 2,11,-1
 28 526 l 2,12,13
 23 535 23 535 18.5 547 c 128,-1,14
 14 559 14 559 14 574 c 0,15,16
 14 588 14 588 28.5 602 c 128,-1,17
 43 616 43 616 70 616 c 0,18,19
 76 616 76 616 81.5 614 c 128,-1,20
 87 612 87 612 93 606 c 128,-1,21
 99 600 99 600 106 589.5 c 128,-1,22
 113 579 113 579 123 562 c 2,23,-1
 194 439 l 2,24,25
 200 429 200 429 203.5 423 c 128,-1,26
 207 417 207 417 209 417 c 256,27,28
 211 417 211 417 213 422.5 c 128,-1,29
 215 428 215 428 223 439 c 2,30,-1
 325 602 l 2,31,32
 330 610 330 610 336.5 613 c 128,-1,33
 343 616 343 616 350 616 c 256,34,35
 357 616 357 616 369 613 c 128,-1,36
 381 610 381 610 391 603 c 128,-1,37
 401 596 401 596 405.5 586 c 128,-1,38
 410 576 410 576 401 561 c 2,39,-1
 281 370 l 2,40,41
 272 355 272 355 268.5 346 c 128,-1,42
 265 337 265 337 265 333 c 256,43,44
 265 329 265 329 271.5 318.5 c 128,-1,45
 278 308 278 308 292 282 c 2,46,-1
 422 43 l 2,47,48
 424 39 424 39 420 31.5 c 128,-1,49
 416 24 416 24 407.5 17 c 128,-1,50
 399 10 399 10 386 5 c 128,-1,51
 373 0 373 0 358 0 c 0,52,53
 353 0 353 0 345.5 2 c 128,-1,54
 338 4 338 4 334 11 c 2,55,-1
 227 201 l 2,56,57
 222 210 222 210 217.5 217.5 c 128,-1,58
 213 225 213 225 209 225 c 256,59,60
 205 225 205 225 201 219 c 128,-1,61
 197 213 197 213 189 198 c 2,62,-1
 100 34 l 2,63,64
 89 13 89 13 74 5 c 128,-1,65
 59 -3 59 -3 42 -3 c 0,0,1
337 568 m 4,66,67
 337 577 337 577 352 590 c 4,68,69
 366 604 366 604 358 604 c 0,70,71
 352 604 352 604 343.5 601 c 132,-1,72
 335 598 335 598 329 587 c 4,73,74
 321 573 321 573 322.5 567.5 c 128,-1,75
 324 562 324 562 329 562 c 4,76,77
 337 562 337 562 337 568 c 4,66,67
45 563 m 0,78,79
 45 575 45 575 50.5 579.5 c 128,-1,80
 56 584 56 584 55 588 c 0,81,82
 53 596 53 596 46 596 c 0,83,84
 42 596 42 596 38 590.5 c 128,-1,85
 34 585 34 585 32 577 c 128,-1,86
 30 569 30 569 30.5 560 c 128,-1,87
 31 551 31 551 35 544 c 0,88,89
 39 538 39 538 43 539 c 0,90,91
 48 541 48 541 46.5 549.5 c 128,-1,92
 45 558 45 558 45 563 c 0,78,79
365 13 m 0,93,94
 368 18 368 18 354 27 c 0,95,96
 351 29 351 29 347 34.5 c 128,-1,97
 343 40 343 40 340 46 c 128,-1,98
 337 52 337 52 334 57 c 128,-1,99
 331 62 331 62 329 62 c 0,100,101
 324 62 324 62 324 56 c 0,102,103
 324 52 324 52 326.5 45 c 128,-1,104
 329 38 329 38 333.5 30.5 c 128,-1,105
 338 23 338 23 343.5 17 c 128,-1,106
 349 11 349 11 355 10 c 0,107,108
 358 10 358 10 361.5 10 c 128,-1,109
 365 10 365 10 365 13 c 0,93,94
50 19 m 0,110,111
 47 22 47 22 39.5 29 c 128,-1,112
 32 36 32 36 34 41 c 0,113,114
 37 49 37 49 32.5 49 c 128,-1,115
 28 49 28 49 22 43 c 0,116,117
 15 35 15 35 21 24.5 c 128,-1,118
 27 14 27 14 37 12 c 0,119,120
 45 10 45 10 50 11 c 128,-1,121
 55 12 55 12 50 19 c 0,110,111
EndSplineSet
EndChar

StartChar: y
Encoding: 121 121 54
Width: 383
GlyphClass: 2
Flags: W
LayerCount: 2
Fore
SplineSet
188 -6 m 0,0,1
 159 -6 159 -6 133.5 2.5 c 128,-1,2
 108 11 108 11 89 26 c 128,-1,3
 70 41 70 41 59 62.5 c 128,-1,4
 48 84 48 84 48 110 c 0,5,6
 48 133 48 133 57.5 149 c 128,-1,7
 67 165 67 165 82 165 c 256,8,9
 97 165 97 165 109 157 c 128,-1,10
 121 149 121 149 121 135 c 0,11,12
 121 108 121 108 141 93.5 c 128,-1,13
 161 79 161 79 188 79 c 0,14,15
 229 79 229 79 245 140.5 c 128,-1,16
 261 202 261 202 261 260 c 6,17,-1
 261 304 l 6,18,19
 261 315 261 315 261 329.5 c 132,-1,20
 261 344 261 344 259 344 c 6,21,22
 252.5 331.5 l 4,23,24
 246 319 246 319 232.5 304.5 c 132,-1,25
 219 290 219 290 198 277.5 c 132,-1,26
 177 265 177 265 148 265 c 4,27,28
 124 265 124 265 99 275 c 132,-1,29
 74 285 74 285 54 309.5 c 132,-1,30
 34 334 34 334 21 375.5 c 132,-1,31
 8 417 8 417 8 481 c 6,32,-1
 8 574 l 2,33,34
 8 592 8 592 19 605.5 c 128,-1,35
 30 619 30 619 53 619 c 0,36,37
 82 619 82 619 98.5 606 c 128,-1,38
 115 593 115 593 115 571 c 2,39,-1
 115 471 l 6,40,41
 115 434 115 434 118.5 412.5 c 132,-1,42
 122 391 122 391 128.5 379.5 c 132,-1,43
 135 368 135 368 144 365 c 132,-1,44
 153 362 153 362 164 362 c 4,45,46
 182 362 182 362 199 375.5 c 132,-1,47
 216 389 216 389 229.5 411 c 132,-1,48
 243 433 243 433 251 461 c 132,-1,49
 259 489 259 489 259 519 c 6,50,-1
 259 559 l 2,51,52
 259 591 259 591 272.5 606 c 128,-1,53
 286 621 286 621 307 621 c 0,54,55
 315 621 315 621 325.5 617.5 c 128,-1,56
 336 614 336 614 345.5 605.5 c 128,-1,57
 355 597 355 597 361.5 582.5 c 128,-1,58
 368 568 368 568 368 547 c 2,59,-1
 368 176 l 2,60,61
 368 88 368 88 320 41 c 128,-1,62
 272 -6 272 -6 188 -6 c 0,0,1
47 599 m 0,63,64
 51 602 51 602 49 606.5 c 128,-1,65
 47 611 47 611 43 611 c 0,66,67
 38 611 38 611 33.5 605.5 c 128,-1,68
 29 600 29 600 26 593.5 c 128,-1,69
 23 587 23 587 21.5 580.5 c 128,-1,70
 20 574 20 574 20 571 c 0,71,72
 20 563 20 563 21.5 560.5 c 128,-1,73
 23 558 23 558 25 558 c 0,74,75
 28 558 28 558 31 563.5 c 128,-1,76
 34 569 34 569 36.5 576 c 128,-1,77
 39 583 39 583 41.5 590 c 128,-1,78
 44 597 44 597 47 599 c 0,63,64
288 584 m 256,79,80
 293 592 293 592 298 601.5 c 128,-1,81
 303 611 303 611 297 611 c 0,82,83
 293 611 293 611 288 606.5 c 128,-1,84
 283 602 283 602 279 595 c 128,-1,85
 275 588 275 588 272.5 581 c 128,-1,86
 270 574 270 574 270 568 c 0,87,88
 270 564 270 564 272.5 560.5 c 128,-1,89
 275 557 275 557 277 557 c 0,90,91
 281 557 281 557 282 566.5 c 128,-1,92
 283 576 283 576 288 584 c 256,79,80
69 338 m 4,93,94
 63 344 63 344 58.5 351.5 c 132,-1,95
 54 359 54 359 51 367 c 4,96,97
 47 378 47 378 46 385 c 132,-1,98
 45 392 45 392 43 392 c 4,99,100
 38 392 38 392 38 373 c 4,101,102
 38 367 38 367 42 356.5 c 132,-1,103
 46 346 46 346 51.5 336 c 132,-1,104
 57 326 57 326 63 318.5 c 132,-1,105
 69 311 69 311 72 311 c 4,106,107
 74 311 74 311 76.5 313.5 c 132,-1,108
 79 316 79 316 79 321 c 260,109,110
 79 326 79 326 75.5 330.5 c 132,-1,111
 72 335 72 335 69 338 c 4,93,94
64 80 m 0,112,113
 69 80 69 80 70.5 84.5 c 128,-1,114
 72 89 72 89 73 96.5 c 128,-1,115
 74 104 74 104 75.5 112.5 c 128,-1,116
 77 121 77 121 81 130 c 0,117,118
 83 133 83 133 84.5 143 c 128,-1,119
 86 153 86 153 81 153 c 0,120,121
 73 153 73 153 66.5 137 c 128,-1,122
 60 121 60 121 60 105 c 0,123,124
 60 94 60 94 61 87 c 128,-1,125
 62 80 62 80 64 80 c 0,112,113
EndSplineSet
EndChar

StartChar: z
Encoding: 122 122 55
Width: 361
GlyphClass: 2
Flags: W
LayerCount: 2
Fore
SplineSet
78 0 m 2,0,1
 67 0 67 0 54.5 2.5 c 128,-1,2
 42 5 42 5 32 11.5 c 128,-1,3
 22 18 22 18 15.5 28.5 c 128,-1,4
 9 39 9 39 9 55 c 0,5,6
 9 65 9 65 10.5 76 c 128,-1,7
 12 87 12 87 20 102 c 2,8,-1
 101 262 l 1,9,-1
 77 262 l 2,10,11
 62 262 62 262 54 273 c 128,-1,12
 46 284 46 284 46 301 c 256,13,14
 46 318 46 318 52.5 328 c 128,-1,15
 59 338 59 338 77 338 c 2,16,-1
 139 338 l 1,17,-1
 228 513 l 2,18,19
 231 519 231 519 231 525 c 0,20,21
 230 531 230 531 220 531 c 2,22,-1
 42 533 l 2,23,24
 29 533 29 533 20.5 543.5 c 128,-1,25
 12 554 12 554 12 569 c 0,26,27
 12 598 12 598 26.5 608 c 128,-1,28
 41 618 41 618 60 618 c 2,29,-1
 306 616 l 2,30,31
 318 616 318 616 326 609.5 c 128,-1,32
 334 603 334 603 338.5 593.5 c 128,-1,33
 343 584 343 584 345 572 c 128,-1,34
 347 560 347 560 347 548 c 0,35,36
 347 518 347 518 332 488 c 2,37,-1
 253 338 l 1,38,-1
 283 338 l 2,39,40
 301 338 301 338 308.5 329.5 c 128,-1,41
 316 321 316 321 316 307 c 0,42,43
 316 287 316 287 309.5 274.5 c 128,-1,44
 303 262 303 262 287 262 c 2,45,-1
 213 262 l 1,46,-1
 158 158 l 2,47,48
 146 135 146 135 139.5 121.5 c 128,-1,49
 133 108 133 108 133 100 c 0,50,51
 133 87 133 87 161 87 c 2,52,-1
 309 86 l 2,53,54
 329 86 329 86 338.5 72 c 128,-1,55
 348 58 348 58 348 35 c 0,56,57
 348 21 348 21 338.5 10.5 c 128,-1,58
 329 0 329 0 321 0 c 2,59,-1
 78 0 l 2,0,1
42 574 m 0,60,61
 44 578 44 578 48 585 c 128,-1,62
 52 592 52 592 51 595 c 0,63,64
 51 597 51 597 47.5 599.5 c 128,-1,65
 44 602 44 602 42 602 c 0,66,67
 31 600 31 600 28 586 c 128,-1,68
 25 572 25 572 27 560 c 0,69,70
 27 558 27 558 29 555 c 128,-1,71
 31 552 31 552 33 552 c 0,72,73
 37 553 37 553 39 562.5 c 128,-1,74
 41 572 41 572 42 574 c 0,60,61
69 306 m 0,75,76
 69 311 69 311 72 318.5 c 128,-1,77
 75 326 75 326 70 326 c 256,78,79
 65 326 65 326 60 318.5 c 128,-1,80
 55 311 55 311 55 300 c 0,81,82
 55 293 55 293 57.5 285.5 c 128,-1,83
 60 278 60 278 65 278 c 256,84,85
 70 278 70 278 69.5 287.5 c 128,-1,86
 69 297 69 297 69 306 c 0,75,76
35 49 m 0,87,88
 39 49 39 49 43 57.5 c 128,-1,89
 47 66 47 66 51 77.5 c 128,-1,90
 55 89 55 89 57.5 100.5 c 128,-1,91
 60 112 60 112 60 117 c 0,92,93
 60 121 60 121 56 121 c 0,94,95
 51 121 51 121 46 114 c 128,-1,96
 41 107 41 107 36.5 99 c 128,-1,97
 32 91 32 91 29 82.5 c 128,-1,98
 26 74 26 74 26 71 c 0,99,100
 25 63 25 63 27.5 56 c 128,-1,101
 30 49 30 49 35 49 c 0,87,88
50 27 m 0,102,103
 50 34 50 34 45 34 c 0,104,105
 36 34 36 34 36 25 c 0,106,107
 36 19 36 19 41 19 c 0,108,109
 44 19 44 19 47 21.5 c 128,-1,110
 50 24 50 24 50 27 c 0,102,103
EndSplineSet
EndChar

StartChar: zero
Encoding: 48 48 56
Width: 396
GlyphClass: 2
Flags: W
LayerCount: 2
Fore
SplineSet
203 -17 m 0,0,1
 151 -17 151 -17 116.5 11.5 c 128,-1,2
 82 40 82 40 61 86 c 128,-1,3
 40 132 40 132 31.5 190 c 128,-1,4
 23 248 23 248 23 307 c 256,5,6
 23 366 23 366 33 422.5 c 128,-1,7
 43 479 43 479 65.5 523 c 128,-1,8
 88 567 88 567 124 594 c 128,-1,9
 160 621 160 621 211 621 c 0,10,11
 245 621 245 621 270 604 c 128,-1,12
 295 587 295 587 313 560 c 128,-1,13
 331 533 331 533 343 499 c 128,-1,14
 355 465 355 465 361.5 430 c 128,-1,15
 368 395 368 395 370.5 362.5 c 128,-1,16
 373 330 373 330 373 307 c 0,17,18
 373 258 373 258 364 201 c 128,-1,19
 355 144 355 144 335 95.5 c 128,-1,20
 315 47 315 47 282.5 15 c 128,-1,21
 250 -17 250 -17 203 -17 c 0,0,1
96 512 m 0,22,23
 105 531 105 531 110 540.5 c 128,-1,24
 115 550 115 550 115 553 c 0,25,26
 115 555 115 555 111 555.5 c 128,-1,27
 107 556 107 556 102 549 c 0,28,29
 98 543 98 543 91 530.5 c 128,-1,30
 84 518 84 518 77 504 c 128,-1,31
 70 490 70 490 65.5 476.5 c 128,-1,32
 61 463 61 463 61 456 c 256,33,34
 61 449 61 449 66 451 c 128,-1,35
 71 453 71 453 74 460 c 0,36,37
 77 468 77 468 82 481 c 128,-1,38
 87 494 87 494 96 512 c 0,22,23
204 59 m 0,39,40
 235 59 235 59 253 85 c 128,-1,41
 271 111 271 111 280.5 150 c 128,-1,42
 290 189 290 189 292.5 234 c 128,-1,43
 295 279 295 279 295 316 c 0,44,45
 295 339 295 339 292 377 c 128,-1,46
 289 415 289 415 280 451.5 c 128,-1,47
 271 488 271 488 254.5 514.5 c 128,-1,48
 238 541 238 541 211 541 c 0,49,50
 189 541 189 541 173 514 c 128,-1,51
 157 487 157 487 146.5 449.5 c 128,-1,52
 136 412 136 412 131 371 c 128,-1,53
 126 330 126 330 126 301 c 0,54,55
 126 286 126 286 126 262.5 c 128,-1,56
 126 239 126 239 128 212 c 128,-1,57
 130 185 130 185 134.5 158 c 128,-1,58
 139 131 139 131 147.5 109 c 128,-1,59
 156 87 156 87 170 73 c 128,-1,60
 184 59 184 59 204 59 c 0,39,40
EndSplineSet
EndChar

StartChar: one
Encoding: 49 49 57
Width: 245
GlyphClass: 2
Flags: W
LayerCount: 2
Fore
SplineSet
159 0 m 0,0,1
 114 0 114 0 114 47 c 2,2,-1
 114 450 l 2,3,4
 114 459 114 459 113.5 466 c 128,-1,5
 113 473 113 473 111 473 c 0,6,7
 108 473 108 473 102 465.5 c 128,-1,8
 96 458 96 458 88.5 448.5 c 128,-1,9
 81 439 81 439 72.5 429.5 c 128,-1,10
 64 420 64 420 56 416 c 0,11,12
 47 411 47 411 37 411 c 0,13,14
 23 411 23 411 14 421 c 128,-1,15
 5 431 5 431 5 445 c 0,16,17
 5 450 5 450 14.5 463 c 128,-1,18
 24 476 24 476 31 486 c 0,19,20
 40 499 40 499 58 521 c 128,-1,21
 76 543 76 543 96.5 564 c 128,-1,22
 117 585 117 585 136 600.5 c 128,-1,23
 155 616 155 616 167 616 c 0,24,25
 173 616 173 616 181 615 c 128,-1,26
 189 614 189 614 196.5 611 c 128,-1,27
 204 608 204 608 209 602.5 c 128,-1,28
 214 597 214 597 214 587 c 2,29,-1
 214 48 l 2,30,31
 214 30 214 30 197.5 15 c 128,-1,32
 181 0 181 0 159 0 c 0,0,1
158 592 m 0,33,34
 163 600 163 600 166 602.5 c 128,-1,35
 169 605 169 605 166 606 c 0,36,37
 164 606 164 606 157 603.5 c 128,-1,38
 150 601 150 601 144 595 c 0,39,40
 139 590 139 590 131 583 c 128,-1,41
 123 576 123 576 123 572 c 0,42,43
 123 569 123 569 127 568 c 0,44,45
 134 567 134 567 144 577 c 128,-1,46
 154 587 154 587 158 592 c 0,33,34
147 45 m 0,47,48
 147 53 147 53 144.5 58 c 128,-1,49
 142 63 142 63 142 74 c 0,50,51
 142 79 142 79 141.5 83 c 128,-1,52
 141 87 141 87 136 87 c 0,53,54
 132 87 132 87 130 77.5 c 128,-1,55
 128 68 128 68 128 57 c 128,-1,56
 128 46 128 46 130 36.5 c 128,-1,57
 132 27 132 27 136 27 c 0,58,59
 147 27 147 27 147 45 c 0,47,48
EndSplineSet
Substitution2: "'sups' Superscript lookup 1 subtable" onesuperior
Substitution2: "'aalt' Access All Alternates lookup 0 subtable" onesuperior
EndChar

StartChar: two
Encoding: 50 50 58
Width: 344
GlyphClass: 2
Flags: W
LayerCount: 2
Fore
SplineSet
45 0 m 2,0,1
 36 0 36 0 28.5 13 c 128,-1,2
 21 26 21 26 23 38 c 256,3,4
 25 50 25 50 39 68 c 128,-1,5
 53 86 53 86 69 106 c 0,6,7
 105 151 105 151 134 198.5 c 128,-1,8
 163 246 163 246 183.5 292.5 c 128,-1,9
 204 339 204 339 215 383 c 128,-1,10
 226 427 226 427 226 465 c 0,11,12
 226 506 226 506 208.5 520 c 128,-1,13
 191 534 191 534 171 534 c 256,14,15
 151 534 151 534 136 517.5 c 128,-1,16
 121 501 121 501 121 464 c 0,17,18
 121 442 121 442 126 430.5 c 128,-1,19
 131 419 131 419 131 403 c 0,20,21
 131 389 131 389 115.5 383 c 128,-1,22
 100 377 100 377 89 377 c 0,23,24
 63 377 63 377 45.5 403.5 c 128,-1,25
 28 430 28 430 28 470 c 0,26,27
 28 502 28 502 38.5 529.5 c 128,-1,28
 49 557 49 557 68.5 577.5 c 128,-1,29
 88 598 88 598 114.5 610 c 128,-1,30
 141 622 141 622 172 622 c 0,31,32
 202 622 202 622 230.5 610.5 c 128,-1,33
 259 599 259 599 281 577.5 c 128,-1,34
 303 556 303 556 316 525.5 c 128,-1,35
 329 495 329 495 329 457 c 0,36,37
 329 410 329 410 317 364 c 128,-1,38
 305 318 305 318 286.5 277 c 128,-1,39
 268 236 268 236 247 201 c 128,-1,40
 226 166 226 166 207.5 140 c 128,-1,41
 189 114 189 114 177 98 c 128,-1,42
 165 82 165 82 165 79 c 1,43,44
 168 79 168 79 173 79 c 2,45,-1
 197 79 l 1,46,-1
 284 82 l 2,47,48
 302 83 302 83 311 79 c 128,-1,49
 320 75 320 75 324 67.5 c 128,-1,50
 328 60 328 60 328 50 c 128,-1,51
 328 40 328 40 328 29 c 0,52,53
 328 11 328 11 317.5 5.5 c 128,-1,54
 307 0 307 0 275 0 c 2,55,-1
 45 0 l 2,0,1
61 488 m 0,56,57
 62 500 62 500 60 507 c 128,-1,58
 58 514 58 514 55 513 c 0,59,60
 51 513 51 513 48.5 506.5 c 128,-1,61
 46 500 46 500 45.5 491.5 c 128,-1,62
 45 483 45 483 45 475.5 c 128,-1,63
 45 468 45 468 45 465 c 0,64,65
 47 452 47 452 50 450 c 0,66,67
 55 445 55 445 57 452 c 128,-1,68
 59 459 59 459 61 488 c 0,56,57
63 424 m 0,69,70
 63 431 63 431 56 431 c 256,71,72
 49 431 49 431 49 423 c 0,73,74
 49 421 49 421 51 418 c 128,-1,75
 53 415 53 415 55 415 c 0,76,77
 59 415 59 415 61 418 c 128,-1,78
 63 421 63 421 63 424 c 0,69,70
62 50 m 0,79,80
 70 69 70 69 67 69 c 0,81,82
 60 69 60 69 52.5 60 c 128,-1,83
 45 51 45 51 45 40 c 0,84,85
 45 32 45 32 49 32 c 0,86,87
 54 32 54 32 62 50 c 0,79,80
EndSplineSet
Substitution2: "'sups' Superscript lookup 1 subtable" twosuperior
Substitution2: "'aalt' Access All Alternates lookup 0 subtable" twosuperior
EndChar

StartChar: three
Encoding: 51 51 59
Width: 347
GlyphClass: 2
Flags: W
LayerCount: 2
Fore
SplineSet
223 486 m 0,0,1
 223 515 223 515 209 527.5 c 128,-1,2
 195 540 195 540 167 540 c 0,3,4
 134 540 134 540 118 514.5 c 128,-1,5
 102 489 102 489 102 430 c 0,6,7
 102 416 102 416 91.5 410 c 128,-1,8
 81 404 81 404 70 404 c 0,9,10
 9 404 9 404 9 493 c 0,11,12
 9 520 9 520 22.5 543.5 c 128,-1,13
 36 567 36 567 57.5 584.5 c 128,-1,14
 79 602 79 602 107 612 c 128,-1,15
 135 622 135 622 163 622 c 0,16,17
 207 622 207 622 238.5 611 c 128,-1,18
 270 600 270 600 290 581 c 128,-1,19
 310 562 310 562 320 537.5 c 128,-1,20
 330 513 330 513 330 487 c 0,21,22
 330 447 330 447 312.5 418 c 128,-1,23
 295 389 295 389 273.5 368.5 c 128,-1,24
 252 348 252 348 234.5 336 c 128,-1,25
 217 324 217 324 217 318 c 256,26,27
 217 312 217 312 235 305.5 c 128,-1,28
 253 299 253 299 275 284 c 128,-1,29
 297 269 297 269 315 241.5 c 128,-1,30
 333 214 333 214 333 167 c 0,31,32
 333 121 333 121 315.5 88.5 c 128,-1,33
 298 56 298 56 269.5 35 c 128,-1,34
 241 14 241 14 205 4 c 128,-1,35
 169 -6 169 -6 132 -6 c 0,36,37
 116 -6 116 -6 96 -1.5 c 128,-1,38
 76 3 76 3 58.5 12.5 c 128,-1,39
 41 22 41 22 29 36.5 c 128,-1,40
 17 51 17 51 17 71 c 0,41,42
 17 86 17 86 23 95.5 c 128,-1,43
 29 105 29 105 40 105 c 0,44,45
 53 105 53 105 63.5 100.5 c 128,-1,46
 74 96 74 96 84.5 90.5 c 128,-1,47
 95 85 95 85 107 80.5 c 128,-1,48
 119 76 119 76 134 76 c 0,49,50
 161 76 161 76 179 84 c 128,-1,51
 197 92 197 92 207.5 105 c 128,-1,52
 218 118 218 118 222 134 c 128,-1,53
 226 150 226 150 226 166 c 0,54,55
 226 198 226 198 208 220 c 128,-1,56
 190 242 190 242 161 242 c 0,57,58
 119 242 119 242 102 257 c 128,-1,59
 85 272 85 272 85 292 c 0,60,61
 85 311 85 311 106.5 334.5 c 128,-1,62
 128 358 128 358 154 383 c 128,-1,63
 180 408 180 408 201.5 434.5 c 128,-1,64
 223 461 223 461 223 486 c 0,0,1
50 515 m 0,65,66
 51 527 51 527 49 534 c 128,-1,67
 47 541 47 541 44 540 c 0,68,69
 40 540 40 540 36.5 534 c 128,-1,70
 33 528 33 528 30.5 520 c 128,-1,71
 28 512 28 512 26.5 504 c 128,-1,72
 25 496 25 496 26 492 c 0,73,74
 28 479 28 479 31 477 c 0,75,76
 36 472 36 472 42 479 c 128,-1,77
 48 486 48 486 50 515 c 0,65,66
44 451 m 0,78,79
 44 458 44 458 37 458 c 256,80,81
 30 458 30 458 30 450 c 0,82,83
 30 448 30 448 32 445 c 128,-1,84
 34 442 34 442 36 442 c 0,85,86
 40 442 40 442 42 445 c 128,-1,87
 44 448 44 448 44 451 c 0,78,79
118 291 m 0,88,89
 120 296 120 296 124 304 c 128,-1,90
 128 312 128 312 133 319 c 0,91,92
 137 325 137 325 138 330 c 128,-1,93
 139 335 139 335 137 335 c 0,94,95
 133 335 133 335 127 329 c 128,-1,96
 121 323 121 323 115.5 315 c 128,-1,97
 110 307 110 307 106 298.5 c 128,-1,98
 102 290 102 290 102 284 c 0,99,100
 102 275 102 275 107 275 c 256,101,102
 112 275 112 275 118 291 c 0,88,89
48 80 m 0,103,104
 48 101 48 101 39 92 c 0,105,106
 34 87 34 87 32 78 c 128,-1,107
 30 69 30 69 31 62 c 0,108,109
 32 58 32 58 34 56.5 c 128,-1,110
 36 55 36 55 38 55 c 256,111,112
 40 55 40 55 44 63.5 c 128,-1,113
 48 72 48 72 48 80 c 0,103,104
EndSplineSet
Substitution2: "'sups' Superscript lookup 1 subtable" threesuperior
Substitution2: "'aalt' Access All Alternates lookup 0 subtable" threesuperior
EndChar

StartChar: four
Encoding: 52 52 60
Width: 387
GlyphClass: 2
Flags: W
LayerCount: 2
Fore
SplineSet
299 0 m 0,0,1
 275 0 275 0 266.5 19.5 c 128,-1,2
 258 39 258 39 258 62 c 2,3,-1
 258 130 l 2,4,5
 258 142 258 142 245 142 c 2,6,-1
 64 142 l 2,7,8
 42 142 42 142 31.5 152 c 128,-1,9
 21 162 21 162 21 173 c 0,10,11
 21 178 21 178 29.5 209.5 c 128,-1,12
 38 241 38 241 50.5 286 c 128,-1,13
 63 331 63 331 78 382 c 128,-1,14
 93 433 93 433 106.5 478 c 128,-1,15
 120 523 120 523 130 555 c 128,-1,16
 140 587 140 587 143 592 c 0,17,18
 151 607 151 607 161 610.5 c 128,-1,19
 171 614 171 614 181 614 c 0,20,21
 186 614 186 614 195 612 c 128,-1,22
 204 610 204 610 212.5 606.5 c 128,-1,23
 221 603 221 603 227.5 598 c 128,-1,24
 234 593 234 593 234 587 c 256,25,26
 234 581 234 581 229 558.5 c 128,-1,27
 224 536 224 536 216 503.5 c 128,-1,28
 208 471 208 471 198 433 c 128,-1,29
 188 395 188 395 178 358.5 c 128,-1,30
 168 322 168 322 159 291.5 c 128,-1,31
 150 261 150 261 144 243 c 0,32,33
 142 238 142 238 141 235 c 128,-1,34
 140 232 140 232 140 229 c 0,35,36
 140 224 140 224 148 224 c 2,37,-1
 245 224 l 2,38,39
 253 224 253 224 255.5 226.5 c 128,-1,40
 258 229 258 229 258 235 c 2,41,-1
 258 536 l 2,42,43
 258 561 258 561 262.5 576.5 c 128,-1,44
 267 592 267 592 274 601 c 128,-1,45
 281 610 281 610 290 613 c 128,-1,46
 299 616 299 616 309 616 c 0,47,48
 336 616 336 616 349 597 c 128,-1,49
 362 578 362 578 362 550 c 2,50,-1
 362 70 l 2,51,52
 362 49 362 49 357 35 c 128,-1,53
 352 21 352 21 343 13.5 c 128,-1,54
 334 6 334 6 322.5 3 c 128,-1,55
 311 0 311 0 299 0 c 0,0,1
278 541 m 256,56,57
 282 541 282 541 285.5 547 c 128,-1,58
 289 553 289 553 291.5 561 c 128,-1,59
 294 569 294 569 295.5 577.5 c 128,-1,60
 297 586 297 586 297 591 c 0,61,62
 297 598 297 598 290 598 c 0,63,64
 287 598 287 598 284 593.5 c 128,-1,65
 281 589 281 589 278.5 582.5 c 128,-1,66
 276 576 276 576 274 569.5 c 128,-1,67
 272 563 272 563 272 558 c 0,68,69
 272 552 272 552 273 546.5 c 128,-1,70
 274 541 274 541 278 541 c 256,56,57
65 215 m 0,71,72
 69 228 69 228 71.5 235 c 128,-1,73
 74 242 74 242 73 251 c 0,74,75
 73 259 73 259 68 259 c 0,76,77
 65 259 65 259 61.5 251.5 c 128,-1,78
 58 244 58 244 54.5 234 c 128,-1,79
 51 224 51 224 49 214 c 128,-1,80
 47 204 47 204 47 199 c 0,81,82
 47 188 47 188 52 188 c 0,83,84
 59 189 59 189 65 215 c 0,71,72
55 169 m 0,85,86
 55 179 55 179 47 179 c 256,87,88
 39 179 39 179 39 169 c 0,89,90
 39 167 39 167 40 166 c 0,91,92
 44 162 44 162 47 162 c 0,93,94
 49 162 49 162 52 164 c 128,-1,95
 55 166 55 166 55 169 c 0,85,86
291 29 m 0,96,97
 288 35 288 35 285 37.5 c 128,-1,98
 282 40 282 40 282 45 c 0,99,100
 282 49 282 49 281 53 c 0,101,102
 281 61 281 61 276 61 c 0,103,104
 270 61 270 61 270 50 c 0,105,106
 270 42 270 42 274.5 28.5 c 128,-1,107
 279 15 279 15 285 15 c 0,108,109
 288 15 288 15 291 19.5 c 128,-1,110
 294 24 294 24 291 29 c 0,96,97
EndSplineSet
EndChar

StartChar: five
Encoding: 53 53 61
Width: 376
GlyphClass: 2
Flags: W
LayerCount: 2
Fore
SplineSet
88 -8 m 0,0,1
 66 -8 66 -8 53.5 -1.5 c 128,-1,2
 41 5 41 5 35 14 c 128,-1,3
 29 23 29 23 27.5 32.5 c 128,-1,4
 26 42 26 42 26 48 c 0,5,6
 26 62 26 62 31.5 70 c 128,-1,7
 37 78 37 78 46 81.5 c 128,-1,8
 55 85 55 85 66 85.5 c 128,-1,9
 77 86 77 86 88 86 c 0,10,11
 175 86 175 86 211.5 112.5 c 128,-1,12
 248 139 248 139 248 196 c 0,13,14
 248 251 248 251 222 277 c 128,-1,15
 196 303 196 303 147 303 c 0,16,17
 128 303 128 303 116 300 c 128,-1,18
 104 297 104 297 95 293.5 c 128,-1,19
 86 290 86 290 78 287 c 128,-1,20
 70 284 70 284 60 284 c 256,21,22
 50 284 50 284 44 293 c 128,-1,23
 38 302 38 302 35 314.5 c 128,-1,24
 32 327 32 327 31.5 341.5 c 128,-1,25
 31 356 31 356 31 366 c 2,26,-1
 31 568 l 2,27,28
 31 595 31 595 44.5 605.5 c 128,-1,29
 58 616 58 616 77 616 c 2,30,-1
 310 616 l 2,31,32
 318 616 318 616 325 608.5 c 128,-1,33
 332 601 332 601 332 587 c 0,34,35
 332 569 332 569 324.5 552.5 c 128,-1,36
 317 536 317 536 308 536 c 2,37,-1
 140 535 l 2,38,39
 135 535 135 535 133 530.5 c 128,-1,40
 131 526 131 526 131 521 c 2,41,-1
 131 399 l 2,42,43
 131 383 131 383 134 381 c 128,-1,44
 137 379 137 379 144 379 c 2,45,-1
 168 380 l 2,46,47
 208 382 208 382 241.5 371.5 c 128,-1,48
 275 361 275 361 299 338 c 128,-1,49
 323 315 323 315 336.5 280 c 128,-1,50
 350 245 350 245 350 197 c 0,51,52
 350 158 350 158 334 121.5 c 128,-1,53
 318 85 318 85 285.5 56 c 128,-1,54
 253 27 253 27 204 9.5 c 128,-1,55
 155 -8 155 -8 88 -8 c 0,0,1
59 403 m 0,56,57
 59 422 59 422 58 432 c 128,-1,58
 57 442 57 442 51 436 c 0,59,60
 48 433 48 433 46 421 c 128,-1,61
 44 409 44 409 44 395 c 128,-1,62
 44 381 44 381 46 369 c 128,-1,63
 48 357 48 357 51 354 c 256,64,65
 54 351 54 351 55 351 c 0,66,67
 59 351 59 351 59 403 c 0,56,57
67 326 m 0,68,69
 67 336 67 336 62 336 c 0,70,71
 51 336 51 336 51 322 c 0,72,73
 51 315 51 315 59 315 c 0,74,75
 64 315 64 315 65.5 319.5 c 128,-1,76
 67 324 67 324 67 326 c 0,68,69
58 48 m 0,77,78
 57 50 57 50 57.5 54 c 128,-1,79
 58 58 58 58 58.5 61.5 c 128,-1,80
 59 65 59 65 58 67.5 c 128,-1,81
 57 70 57 70 53 70 c 0,82,83
 48 70 48 70 46 61.5 c 128,-1,84
 44 53 44 53 45 42 c 256,85,86
 46 31 46 31 49 21.5 c 128,-1,87
 52 12 52 12 58 12 c 0,88,89
 60 12 60 12 61.5 23 c 128,-1,90
 63 34 63 34 58 48 c 0,77,78
EndSplineSet
EndChar

StartChar: six
Encoding: 54 54 62
Width: 407
GlyphClass: 2
Flags: W
LayerCount: 2
Fore
SplineSet
207 -11 m 0,0,1
 155 -11 155 -11 118.5 8.5 c 128,-1,2
 82 28 82 28 59 61 c 128,-1,3
 36 94 36 94 25.5 136.5 c 128,-1,4
 15 179 15 179 15 225 c 0,5,6
 15 276 15 276 23 328.5 c 128,-1,7
 31 381 31 381 48 429 c 128,-1,8
 65 477 65 477 92.5 518 c 128,-1,9
 120 559 120 559 159 587 c 0,10,11
 187 607 187 607 215 613.5 c 128,-1,12
 243 620 243 620 265 620 c 0,13,14
 270 620 270 620 277.5 618.5 c 128,-1,15
 285 617 285 617 292 614 c 128,-1,16
 299 611 299 611 304.5 606 c 128,-1,17
 310 601 310 601 310 593 c 0,18,19
 310 579 310 579 305 567.5 c 128,-1,20
 300 556 300 556 273 547 c 0,21,22
 247 538 247 538 226 521 c 128,-1,23
 205 504 205 504 188.5 482.5 c 128,-1,24
 172 461 172 461 160 435.5 c 128,-1,25
 148 410 148 410 139 385 c 0,26,27
 134 373 134 373 130 354.5 c 128,-1,28
 126 336 126 336 126 325 c 0,29,30
 126 315 126 315 130 315 c 0,31,32
 133 315 133 315 140 324.5 c 128,-1,33
 147 334 147 334 160 345 c 128,-1,34
 173 356 173 356 192 365.5 c 128,-1,35
 211 375 211 375 238 375 c 0,36,37
 315 375 315 375 355.5 323 c 128,-1,38
 396 271 396 271 396 187 c 0,39,40
 396 146 396 146 381 110 c 128,-1,41
 366 74 366 74 340 47 c 128,-1,42
 314 20 314 20 279.5 4.5 c 128,-1,43
 245 -11 245 -11 207 -11 c 0,0,1
202 80 m 0,44,45
 244 80 244 80 269.5 106.5 c 128,-1,46
 295 133 295 133 295 190 c 0,47,48
 295 207 295 207 292 224 c 128,-1,49
 289 241 289 241 281 255 c 128,-1,50
 273 269 273 269 259.5 277.5 c 128,-1,51
 246 286 246 286 225 286 c 0,52,53
 206 286 206 286 186.5 276 c 128,-1,54
 167 266 167 266 152 250.5 c 128,-1,55
 137 235 137 235 127.5 215.5 c 128,-1,56
 118 196 118 196 118 178 c 0,57,58
 118 137 118 137 135.5 108.5 c 128,-1,59
 153 80 153 80 202 80 c 0,44,45
76 107 m 0,60,61
 73 118 73 118 69 127.5 c 128,-1,62
 65 137 65 137 62 148 c 0,63,64
 60 154 60 154 58.5 159 c 128,-1,65
 57 164 57 164 53 163 c 0,66,67
 50 163 50 163 48 155 c 0,68,69
 47 148 47 148 50.5 135 c 128,-1,70
 54 122 54 122 59 110 c 128,-1,71
 64 98 64 98 69.5 89.5 c 128,-1,72
 75 81 75 81 77 81 c 0,73,74
 82 81 82 81 82 86 c 0,75,76
 82 90 82 90 80 95 c 128,-1,77
 78 100 78 100 76 107 c 0,60,61
EndSplineSet
EndChar

StartChar: seven
Encoding: 55 55 63
Width: 318
GlyphClass: 2
Flags: W
LayerCount: 2
Fore
SplineSet
87 -2 m 0,0,1
 73 -2 73 -2 63.5 6.5 c 128,-1,2
 54 15 54 15 54 25 c 0,3,4
 54 34 54 34 64 70 c 128,-1,5
 74 106 74 106 89 156 c 128,-1,6
 104 206 104 206 122 263 c 128,-1,7
 140 320 140 320 156.5 371 c 128,-1,8
 173 422 173 422 186 461 c 128,-1,9
 199 500 199 500 204 514 c 0,10,11
 209 529 209 529 197 529 c 2,12,-1
 67 529 l 2,13,14
 40 529 40 529 25 537.5 c 128,-1,15
 10 546 10 546 10 573 c 256,16,17
 10 600 10 600 26.5 608 c 128,-1,18
 43 616 43 616 69 616 c 2,19,-1
 280 616 l 2,20,21
 297 616 297 616 309 605.5 c 128,-1,22
 321 595 321 595 321 581 c 0,23,24
 321 571 321 571 310 529 c 128,-1,25
 299 487 299 487 281.5 429 c 128,-1,26
 264 371 264 371 242.5 303.5 c 128,-1,27
 221 236 221 236 201 176 c 128,-1,28
 181 116 181 116 165 71 c 128,-1,29
 149 26 149 26 141 11 c 0,30,31
 139 6 139 6 124.5 2 c 128,-1,32
 110 -2 110 -2 87 -2 c 0,0,1
42 594 m 0,33,34
 42 602 42 602 37 602 c 256,35,36
 32 602 32 602 25.5 594.5 c 128,-1,37
 19 587 19 587 19 576 c 0,38,39
 19 556 19 556 27 556 c 0,40,41
 30 556 30 556 33 560.5 c 128,-1,42
 36 565 36 565 38 571 c 128,-1,43
 40 577 40 577 41 583.5 c 128,-1,44
 42 590 42 590 42 594 c 0,33,34
87 38 m 0,45,46
 89 48 89 48 91 58.5 c 128,-1,47
 93 69 93 69 95 73 c 0,48,49
 99 78 99 78 97.5 83 c 128,-1,50
 96 88 96 88 91 88 c 0,51,52
 88 88 88 88 84.5 81 c 128,-1,53
 81 74 81 74 78.5 64.5 c 128,-1,54
 76 55 76 55 74 45.5 c 128,-1,55
 72 36 72 36 72 31 c 0,56,57
 72 19 72 19 77 19 c 256,58,59
 82 19 82 19 87 38 c 0,45,46
EndSplineSet
EndChar

StartChar: eight
Encoding: 56 56 64
Width: 407
GlyphClass: 2
Flags: W
LayerCount: 2
Fore
SplineSet
195 -6 m 0,0,1
 155 -6 155 -6 121.5 8.5 c 128,-1,2
 88 23 88 23 64.5 46.5 c 128,-1,3
 41 70 41 70 28 100.5 c 128,-1,4
 15 131 15 131 15 163 c 0,5,6
 15 201 15 201 32 228 c 128,-1,7
 49 255 49 255 69.5 274 c 128,-1,8
 90 293 90 293 107 305.5 c 128,-1,9
 124 318 124 318 124 325 c 0,10,11
 124 333 124 333 108.5 342 c 128,-1,12
 93 351 93 351 74 367 c 128,-1,13
 55 383 55 383 39.5 407.5 c 128,-1,14
 24 432 24 432 24 471 c 0,15,16
 24 503 24 503 38.5 531 c 128,-1,17
 53 559 53 559 78 580 c 128,-1,18
 103 601 103 601 135 613 c 128,-1,19
 167 625 167 625 202 625 c 0,20,21
 228 625 228 625 258 614.5 c 128,-1,22
 288 604 288 604 313.5 584.5 c 128,-1,23
 339 565 339 565 355.5 536 c 128,-1,24
 372 507 372 507 372 469 c 0,25,26
 372 432 372 432 358 409.5 c 128,-1,27
 344 387 344 387 327.5 373.5 c 128,-1,28
 311 360 311 360 297 353 c 128,-1,29
 283 346 283 346 283 340 c 0,30,31
 283 331 283 331 300 319.5 c 128,-1,32
 317 308 317 308 337.5 289.5 c 128,-1,33
 358 271 358 271 375 242 c 128,-1,34
 392 213 392 213 392 169 c 0,35,36
 392 136 392 136 376.5 104.5 c 128,-1,37
 361 73 361 73 334 48 c 128,-1,38
 307 23 307 23 271.5 8.5 c 128,-1,39
 236 -6 236 -6 195 -6 c 0,0,1
67 512 m 0,40,41
 68 518 68 518 73 525 c 128,-1,42
 78 532 78 532 84 538.5 c 128,-1,43
 90 545 90 545 95.5 550.5 c 128,-1,44
 101 556 101 556 104 559 c 0,45,46
 115 571 115 571 115 578 c 0,47,48
 115 582 115 582 111 582 c 0,49,50
 102 582 102 582 91.5 572.5 c 128,-1,51
 81 563 81 563 72 549.5 c 128,-1,52
 63 536 63 536 57 522.5 c 128,-1,53
 51 509 51 509 51 501 c 256,54,55
 51 493 51 493 55 493 c 0,56,57
 62 493 62 493 67 512 c 0,40,41
202 371 m 0,58,59
 215 371 215 371 227.5 379.5 c 128,-1,60
 240 388 240 388 250 402 c 128,-1,61
 260 416 260 416 266.5 433.5 c 128,-1,62
 273 451 273 451 273 469 c 0,63,64
 273 504 273 504 253 529.5 c 128,-1,65
 233 555 233 555 201 555 c 256,66,67
 169 555 169 555 146 533 c 128,-1,68
 123 511 123 511 123 473 c 0,69,70
 123 459 123 459 128 441.5 c 128,-1,71
 133 424 133 424 143 408 c 128,-1,72
 153 392 153 392 168 381.5 c 128,-1,73
 183 371 183 371 202 371 c 0,58,59
57 469 m 0,74,75
 57 478 57 478 50 478 c 0,76,77
 45 478 45 478 43.5 475 c 128,-1,78
 42 472 42 472 42 469 c 0,79,80
 42 467 42 467 43 465 c 0,81,82
 45 461 45 461 49 461 c 0,83,84
 51 461 51 461 54 463 c 128,-1,85
 57 465 57 465 57 469 c 0,74,75
197 73 m 0,86,87
 245 73 245 73 262.5 98 c 128,-1,88
 280 123 280 123 280 169 c 0,89,90
 280 188 280 188 272.5 208.5 c 128,-1,91
 265 229 265 229 253.5 246 c 128,-1,92
 242 263 242 263 229 274 c 128,-1,93
 216 285 216 285 205 285 c 0,94,95
 190 285 190 285 175 273.5 c 128,-1,96
 160 262 160 262 148 244.5 c 128,-1,97
 136 227 136 227 128.5 205.5 c 128,-1,98
 121 184 121 184 121 163 c 0,99,100
 121 147 121 147 126.5 131 c 128,-1,101
 132 115 132 115 141.5 102 c 128,-1,102
 151 89 151 89 165 81 c 128,-1,103
 179 73 179 73 197 73 c 0,86,87
61 222 m 256,104,105
 64 230 64 230 61 233 c 128,-1,106
 58 236 58 236 51 229 c 0,107,108
 48 226 48 226 43 218.5 c 128,-1,109
 38 211 38 211 33.5 202 c 128,-1,110
 29 193 29 193 25.5 183.5 c 128,-1,111
 22 174 22 174 22 166 c 0,112,113
 21 158 21 158 24.5 150.5 c 128,-1,114
 28 143 28 143 35 143 c 0,115,116
 43 143 43 143 42 155.5 c 128,-1,117
 41 168 41 168 43 179 c 0,118,119
 46 194 46 194 52 204 c 128,-1,120
 58 214 58 214 61 222 c 256,104,105
EndSplineSet
EndChar

StartChar: nine
Encoding: 57 57 65
Width: 402
GlyphClass: 2
Flags: W
LayerCount: 2
Fore
SplineSet
200 623 m 0,0,1
 255 623 255 623 292 601.5 c 128,-1,2
 329 580 329 580 351 546 c 128,-1,3
 373 512 373 512 382.5 470 c 128,-1,4
 392 428 392 428 392 387 c 0,5,6
 392 336 392 336 380.5 284 c 128,-1,7
 369 232 369 232 348.5 185 c 128,-1,8
 328 138 328 138 300 99 c 128,-1,9
 272 60 272 60 239 34 c 0,10,11
 212 13 212 13 183.5 2.5 c 128,-1,12
 155 -8 155 -8 133 -8 c 0,13,14
 115 -8 115 -8 102.5 -1.5 c 128,-1,15
 90 5 90 5 90 21 c 0,16,17
 90 36 90 36 98 51.5 c 128,-1,18
 106 67 106 67 133 76 c 0,19,20
 159 85 159 85 179.5 100 c 128,-1,21
 200 115 200 115 216 135 c 128,-1,22
 232 155 232 155 243.5 178.5 c 128,-1,23
 255 202 255 202 264 227 c 0,24,25
 269 239 269 239 273 257.5 c 128,-1,26
 277 276 277 276 277 287 c 0,27,28
 277 297 277 297 273 297 c 0,29,30
 270 297 270 297 263.5 289 c 128,-1,31
 257 281 257 281 244 272 c 128,-1,32
 231 263 231 263 211 255 c 128,-1,33
 191 247 191 247 161 247 c 0,34,35
 91 247 91 247 51.5 295 c 128,-1,36
 12 343 12 343 12 425 c 0,37,38
 12 463 12 463 24 499 c 128,-1,39
 36 535 36 535 60 562.5 c 128,-1,40
 84 590 84 590 119 606.5 c 128,-1,41
 154 623 154 623 200 623 c 0,0,1
205 535 m 0,42,43
 163 535 163 535 137.5 508 c 128,-1,44
 112 481 112 481 112 432 c 0,45,46
 112 390 112 390 130.5 364.5 c 128,-1,47
 149 339 149 339 182 339 c 0,48,49
 202 339 202 339 220.5 347 c 128,-1,50
 239 355 239 355 253 368 c 128,-1,51
 267 381 267 381 276 398.5 c 128,-1,52
 285 416 285 416 285 434 c 0,53,54
 285 455 285 455 281.5 473 c 128,-1,55
 278 491 278 491 269 505 c 128,-1,56
 260 519 260 519 244.5 527 c 128,-1,57
 229 535 229 535 205 535 c 0,42,43
62 486 m 0,58,59
 64 496 64 496 66.5 503.5 c 128,-1,60
 69 511 69 511 69 517 c 0,61,62
 69 524 69 524 62 524 c 0,63,64
 59 524 59 524 53.5 511 c 128,-1,65
 48 498 48 498 43.5 480 c 128,-1,66
 39 462 39 462 36 444 c 128,-1,67
 33 426 33 426 35 415 c 0,68,69
 38 403 38 403 43 403 c 256,70,71
 48 403 48 403 50.5 410.5 c 128,-1,72
 53 418 53 418 55 426 c 0,73,74
 59 443 59 443 59 457 c 128,-1,75
 59 471 59 471 62 486 c 0,58,59
58 380 m 0,76,77
 58 385 58 385 56.5 388.5 c 128,-1,78
 55 392 55 392 52 392 c 0,79,80
 47 392 47 392 43 389 c 128,-1,81
 39 386 39 386 39 376 c 0,82,83
 39 373 39 373 41.5 370 c 128,-1,84
 44 367 44 367 48 367 c 0,85,86
 54 367 54 367 56 372.5 c 128,-1,87
 58 378 58 378 58 380 c 0,76,77
130 58 m 2,88,89
 130 61 130 61 125.5 60 c 128,-1,90
 121 59 121 59 116 55 c 128,-1,91
 111 51 111 51 107 44 c 128,-1,92
 103 37 103 37 103 28 c 0,93,94
 103 26 103 26 104.5 20 c 128,-1,95
 106 14 106 14 110 14 c 0,96,97
 113 14 113 14 116.5 20.5 c 128,-1,98
 120 27 120 27 123 35.5 c 128,-1,99
 126 44 126 44 128 51 c 128,-1,100
 130 58 130 58 130 58 c 2,88,89
EndSplineSet
EndChar

StartChar: percent
Encoding: 37 37 66
Width: 482
GlyphClass: 2
Flags: W
LayerCount: 2
Fore
SplineSet
105 -6 m 0,0,1
 101 -6 101 -6 93.5 -4 c 128,-1,2
 86 -2 86 -2 79 2 c 128,-1,3
 72 6 72 6 67 11.5 c 128,-1,4
 62 17 62 17 62 23 c 0,5,6
 62 30 62 30 66 46.5 c 128,-1,7
 70 63 70 63 82 93 c 128,-1,8
 94 123 94 123 115.5 168.5 c 128,-1,9
 137 214 137 214 172 280 c 0,10,11
 226 383 226 383 259.5 450 c 128,-1,12
 293 517 293 517 314 556 c 0,13,14
 335 596 335 596 352.5 607.5 c 128,-1,15
 370 619 370 619 383 619 c 0,16,17
 400 619 400 619 406.5 607 c 128,-1,18
 413 595 413 595 412 577.5 c 128,-1,19
 411 560 411 560 405.5 541.5 c 128,-1,20
 400 523 400 523 394 510 c 0,21,22
 380 481 380 481 357 434.5 c 128,-1,23
 334 388 334 388 307.5 335.5 c 128,-1,24
 281 283 281 283 253.5 229 c 128,-1,25
 226 175 226 175 203 130.5 c 128,-1,26
 180 86 180 86 164.5 56 c 128,-1,27
 149 26 149 26 146 22 c 0,28,29
 135 5 135 5 124.5 -0.5 c 128,-1,30
 114 -6 114 -6 105 -6 c 0,0,1
111 393 m 0,31,32
 88 393 88 393 70.5 402.5 c 128,-1,33
 53 412 53 412 41 428 c 128,-1,34
 29 444 29 444 23 465 c 128,-1,35
 17 486 17 486 17 510 c 0,36,37
 17 529 17 529 23.5 548 c 128,-1,38
 30 567 30 567 42 582.5 c 128,-1,39
 54 598 54 598 71 608 c 128,-1,40
 88 618 88 618 109 618 c 0,41,42
 151 618 151 618 175 594.5 c 128,-1,43
 199 571 199 571 199 517 c 0,44,45
 199 490 199 490 192 467.5 c 128,-1,46
 185 445 185 445 173 428.5 c 128,-1,47
 161 412 161 412 145 402.5 c 128,-1,48
 129 393 129 393 111 393 c 0,31,32
111 460 m 0,49,50
 118 460 118 460 123 465.5 c 128,-1,51
 128 471 128 471 131 479.5 c 128,-1,52
 134 488 134 488 135.5 498 c 128,-1,53
 137 508 137 508 137 517 c 0,54,55
 137 534 137 534 130 546 c 128,-1,56
 123 558 123 558 111 558 c 0,57,58
 100 558 100 558 92 543.5 c 128,-1,59
 84 529 84 529 84 512 c 256,60,61
 84 495 84 495 91 477.5 c 128,-1,62
 98 460 98 460 111 460 c 0,49,50
43 512 m 256,63,64
 43 528 43 528 43 535.5 c 128,-1,65
 43 543 43 543 40 543 c 0,66,67
 34 543 34 543 32 530.5 c 128,-1,68
 30 518 30 518 30 514 c 0,69,70
 30 511 30 511 30 505.5 c 128,-1,71
 30 500 30 500 31.5 494.5 c 128,-1,72
 33 489 33 489 35.5 484.5 c 128,-1,73
 38 480 38 480 43 480 c 0,74,75
 47 480 47 480 45 488 c 128,-1,76
 43 496 43 496 43 512 c 256,63,64
68 453 m 0,77,78
 68 464 68 464 59 464 c 0,79,80
 53 464 53 464 53 456 c 0,81,82
 53 454 53 454 55.5 450 c 128,-1,83
 58 446 58 446 61 446 c 0,84,85
 68 446 68 446 68 453 c 0,77,78
380 -6 m 0,86,87
 357 -6 357 -6 339.5 3.5 c 128,-1,88
 322 13 322 13 310 29 c 128,-1,89
 298 45 298 45 292 66 c 128,-1,90
 286 87 286 87 286 111 c 0,91,92
 286 130 286 130 292.5 149 c 128,-1,93
 299 168 299 168 311 183.5 c 128,-1,94
 323 199 323 199 340 209 c 128,-1,95
 357 219 357 219 378 219 c 0,96,97
 420 219 420 219 444 195.5 c 128,-1,98
 468 172 468 172 468 118 c 0,99,100
 468 91 468 91 461 68.5 c 128,-1,101
 454 46 454 46 442 29.5 c 128,-1,102
 430 13 430 13 414 3.5 c 128,-1,103
 398 -6 398 -6 380 -6 c 0,86,87
380 61 m 0,104,105
 387 61 387 61 392 66.5 c 128,-1,106
 397 72 397 72 400 80.5 c 128,-1,107
 403 89 403 89 404.5 99 c 128,-1,108
 406 109 406 109 406 118 c 0,109,110
 406 135 406 135 399 147 c 128,-1,111
 392 159 392 159 380 159 c 0,112,113
 369 159 369 159 361 144.5 c 128,-1,114
 353 130 353 130 353 113 c 256,115,116
 353 96 353 96 360 78.5 c 128,-1,117
 367 61 367 61 380 61 c 0,104,105
312 113 m 256,118,119
 312 129 312 129 312 136.5 c 128,-1,120
 312 144 312 144 309 144 c 0,121,122
 303 144 303 144 301 131.5 c 128,-1,123
 299 119 299 119 299 115 c 0,124,125
 299 112 299 112 299 106.5 c 128,-1,126
 299 101 299 101 300.5 95.5 c 128,-1,127
 302 90 302 90 304.5 85.5 c 128,-1,128
 307 81 307 81 312 81 c 0,129,130
 316 81 316 81 314 89 c 128,-1,131
 312 97 312 97 312 113 c 256,118,119
103 82 m 0,132,133
 98 87 98 87 92.5 82 c 128,-1,134
 87 77 87 77 84 69 c 256,135,136
 81 61 81 61 78 50 c 128,-1,137
 75 39 75 39 75 34 c 0,138,139
 76 23 76 23 79.5 23 c 128,-1,140
 83 23 83 23 90 40 c 0,141,142
 95 52 95 52 100 66 c 128,-1,143
 105 80 105 80 103 82 c 0,132,133
337 54 m 0,144,145
 337 65 337 65 328 65 c 0,146,147
 322 65 322 65 322 57 c 0,148,149
 322 55 322 55 324.5 51 c 128,-1,150
 327 47 327 47 330 47 c 0,151,152
 337 47 337 47 337 54 c 0,144,145
EndSplineSet
EndChar

StartChar: Euro
Encoding: 8364 8364 67
Width: 454
GlyphClass: 2
Flags: W
LayerCount: 2
Fore
SplineSet
358 -13 m 0,0,1
 298 -13 298 -13 254.5 0 c 128,-1,2
 211 13 211 13 180.5 38.5 c 128,-1,3
 150 64 150 64 131 102 c 128,-1,4
 112 140 112 140 101 189 c 1,5,6
 94 189 94 189 82 189 c 128,-1,7
 70 189 70 189 58.5 191 c 128,-1,8
 47 193 47 193 38.5 198 c 128,-1,9
 30 203 30 203 30 214 c 0,10,11
 30 227 30 227 36 233.5 c 128,-1,12
 42 240 42 240 51 242 c 128,-1,13
 60 244 60 244 71 244 c 128,-1,14
 82 244 82 244 92 244 c 1,15,16
 90 267 90 267 91 289.5 c 128,-1,17
 92 312 92 312 96 335 c 1,18,19
 89 335 89 335 79.5 335 c 128,-1,20
 70 335 70 335 61 336.5 c 128,-1,21
 52 338 52 338 45.5 342.5 c 128,-1,22
 39 347 39 347 39 357 c 0,23,24
 39 368 39 368 47 374 c 128,-1,25
 55 380 55 380 66 382.5 c 128,-1,26
 77 385 77 385 89 385.5 c 128,-1,27
 101 386 101 386 109 386 c 1,28,29
 123 428 123 428 146.5 467 c 128,-1,30
 170 506 170 506 202 536 c 128,-1,31
 234 566 234 566 275.5 584 c 128,-1,32
 317 602 317 602 367 602 c 0,33,34
 373 602 373 602 383 600.5 c 128,-1,35
 393 599 393 599 402.5 595 c 128,-1,36
 412 591 412 591 419 585.5 c 128,-1,37
 426 580 426 580 426 572 c 0,38,39
 426 550 426 550 414.5 545.5 c 128,-1,40
 403 541 403 541 384 538 c 0,41,42
 319 527 319 527 278 486 c 128,-1,43
 237 445 237 445 212 386 c 1,44,-1
 341 386 l 2,45,46
 354 386 354 386 368 382 c 128,-1,47
 382 378 382 378 382 362 c 0,48,49
 382 342 382 342 365 338.5 c 128,-1,50
 348 335 348 335 332 335 c 2,51,-1
 197 335 l 1,52,53
 191 301 191 301 191 267 c 2,54,-1
 192 252 l 1,55,-1
 192 245 l 1,56,-1
 323 247 l 2,57,58
 337 247 337 247 349.5 245.5 c 128,-1,59
 362 244 362 244 362 225 c 0,60,61
 362 202 362 202 349.5 196.5 c 128,-1,62
 337 191 337 191 316 191 c 2,63,-1
 198 190 l 1,64,65
 215 124 215 124 263.5 88.5 c 128,-1,66
 312 53 312 53 373 53 c 0,67,68
 393 53 393 53 410 45.5 c 128,-1,69
 427 38 427 38 427 21 c 0,70,71
 427 9 427 9 419.5 2 c 128,-1,72
 412 -5 412 -5 401.5 -8.5 c 128,-1,73
 391 -12 391 -12 379 -12.5 c 128,-1,74
 367 -13 367 -13 358 -13 c 0,0,1
194 491 m 256,75,76
 196 491 196 491 210.5 502.5 c 128,-1,77
 225 514 225 514 242 528.5 c 128,-1,78
 259 543 259 543 272.5 556 c 128,-1,79
 286 569 286 569 286 572 c 0,80,81
 286 574 286 574 283 574 c 0,82,83
 276 574 276 574 260.5 564 c 128,-1,84
 245 554 245 554 229 540.5 c 128,-1,85
 213 527 213 527 200.5 514 c 128,-1,86
 188 501 188 501 188 494 c 0,87,88
 188 492 188 492 190 491.5 c 128,-1,89
 192 491 192 491 194 491 c 256,75,76
180 463 m 0,90,91
 180 467 180 467 177.5 471 c 128,-1,92
 175 475 175 475 171 475 c 0,93,94
 162 475 162 475 162 465 c 0,95,96
 162 457 162 457 170 454 c 0,97,98
 173 454 173 454 176.5 457 c 128,-1,99
 180 460 180 460 180 463 c 0,90,91
EndSplineSet
EndChar

StartChar: dollar
Encoding: 36 36 68
Width: 354
GlyphClass: 2
Flags: W
LayerCount: 2
Fore
SplineSet
173 -41 m 256,0,1
 162 -41 162 -41 156 -32.5 c 128,-1,2
 150 -24 150 -24 147.5 -12 c 128,-1,3
 145 0 145 0 145 13.5 c 128,-1,4
 145 27 145 27 145 37 c 2,5,-1
 145 95 l 1,6,7
 101 95 101 95 71 114.5 c 128,-1,8
 41 134 41 134 41 163 c 0,9,10
 41 181 41 181 51.5 187.5 c 128,-1,11
 62 194 62 194 73 194 c 0,12,13
 95 194 95 194 117 186 c 128,-1,14
 139 178 139 178 169 178 c 0,15,16
 178 178 178 178 189.5 181 c 128,-1,17
 201 184 201 184 211 190 c 128,-1,18
 221 196 221 196 228 204.5 c 128,-1,19
 235 213 235 213 235 225 c 0,20,21
 235 248 235 248 216 260 c 128,-1,22
 197 272 197 272 167 272 c 0,23,24
 107 272 107 272 72.5 303.5 c 128,-1,25
 38 335 38 335 38 401 c 0,26,27
 38 460 38 460 67.5 497 c 128,-1,28
 97 534 97 534 145 542 c 1,29,-1
 145 587 l 2,30,31
 145 594 145 594 144.5 608.5 c 128,-1,32
 144 623 144 623 146 637.5 c 128,-1,33
 148 652 148 652 154.5 663 c 128,-1,34
 161 674 161 674 174 674 c 256,35,36
 187 674 187 674 193 647 c 128,-1,37
 199 620 199 620 199 572 c 0,38,39
 199 552 199 552 201 547 c 128,-1,40
 203 542 203 542 215 542 c 256,41,42
 227 542 227 542 239.5 538 c 128,-1,43
 252 534 252 534 262.5 526.5 c 128,-1,44
 273 519 273 519 279.5 508.5 c 128,-1,45
 286 498 286 498 286 485 c 256,46,47
 286 472 286 472 280 467.5 c 128,-1,48
 274 463 274 463 263.5 462 c 128,-1,49
 253 461 253 461 238 462.5 c 128,-1,50
 223 464 223 464 205 464 c 0,51,52
 167 464 167 464 153 447.5 c 128,-1,53
 139 431 139 431 139 404 c 0,54,55
 139 391 139 391 145 382.5 c 128,-1,56
 151 374 151 374 160 369.5 c 128,-1,57
 169 365 169 365 178.5 362.5 c 128,-1,58
 188 360 188 360 195 359 c 0,59,60
 224 355 224 355 248 346.5 c 128,-1,61
 272 338 272 338 289 323 c 128,-1,62
 306 308 306 308 315.5 285 c 128,-1,63
 325 262 325 262 325 230 c 0,64,65
 325 172 325 172 290 137 c 128,-1,66
 255 102 255 102 199 97 c 1,67,-1
 199 37 l 2,68,69
 199 28 199 28 199 14.5 c 128,-1,70
 199 1 199 1 197 -11.5 c 128,-1,71
 195 -24 195 -24 189.5 -32.5 c 128,-1,72
 184 -41 184 -41 173 -41 c 256,0,1
101 476 m 0,73,74
 107 485 107 485 116 490 c 128,-1,75
 125 495 125 495 125 503 c 0,76,77
 125 509 125 509 118 509 c 0,78,79
 110 509 110 509 102 503 c 128,-1,80
 94 497 94 497 88 488.5 c 128,-1,81
 82 480 82 480 78 470.5 c 128,-1,82
 74 461 74 461 74 453 c 0,83,84
 74 446 74 446 78 446 c 0,85,86
 85 446 85 446 90.5 457 c 128,-1,87
 96 468 96 468 101 476 c 0,73,74
83 425 m 0,88,89
 83 434 83 434 74 434 c 0,90,91
 69 434 69 434 67.5 429.5 c 128,-1,92
 66 425 66 425 68 419 c 256,93,94
 70 413 70 413 75 413 c 256,95,96
 80 413 80 413 81.5 416.5 c 128,-1,97
 83 420 83 420 83 425 c 0,88,89
EndSplineSet
EndChar

StartChar: sterling
Encoding: 163 163 69
Width: 444
GlyphClass: 2
Flags: W
LayerCount: 2
Fore
SplineSet
343 674 m 0,0,1
 363 674 363 674 380 659 c 128,-1,2
 397 644 397 644 397 548 c 2,3,-1
 397 91 l 2,4,5
 397 70 397 70 388.5 53 c 128,-1,6
 380 36 380 36 365.5 24.5 c 128,-1,7
 351 13 351 13 332.5 7 c 128,-1,8
 314 1 314 1 294 1 c 2,9,-1
 235 1 l 2,10,11
 204 1 204 1 168.5 13 c 128,-1,12
 133 25 133 25 103 51 c 128,-1,13
 73 77 73 77 53 119 c 128,-1,14
 33 161 33 161 33 220 c 256,15,16
 33 279 33 279 52.5 325.5 c 128,-1,17
 72 372 72 372 101 403.5 c 128,-1,18
 130 435 130 435 164 451.5 c 128,-1,19
 198 468 198 468 228 468 c 2,20,-1
 257 468 l 2,21,22
 266 468 266 468 274.5 472 c 128,-1,23
 283 476 283 476 283 485 c 2,24,-1
 283 609 l 2,25,26
 283 627 283 627 288.5 639 c 128,-1,27
 294 651 294 651 303 659 c 128,-1,28
 312 667 312 667 322.5 670.5 c 128,-1,29
 333 674 333 674 343 674 c 0,0,1
239 379 m 2,30,31
 222 379 222 379 206 371 c 128,-1,32
 190 363 190 363 176.5 345.5 c 128,-1,33
 163 328 163 328 155 300 c 128,-1,34
 147 272 147 272 147 232 c 0,35,36
 147 189 147 189 155 160.5 c 128,-1,37
 163 132 163 132 176 115.5 c 128,-1,38
 189 99 189 99 205 92 c 128,-1,39
 221 85 221 85 236 85 c 2,40,-1
 258 85 l 2,41,42
 283 85 283 85 283 119 c 2,43,-1
 283 356 l 2,44,45
 283 379 283 379 252 379 c 2,46,-1
 239 379 l 2,30,31
357 639 m 256,47,48
 362 634 362 634 365.5 621 c 128,-1,49
 369 608 369 608 369 537 c 0,50,51
 369 512 369 512 376 512 c 0,52,53
 381 512 381 512 382.5 520.5 c 128,-1,54
 384 529 384 529 384 541 c 0,55,56
 384 622 384 622 377 638 c 128,-1,57
 370 654 370 654 360 654 c 0,58,59
 358 654 358 654 355 652 c 128,-1,60
 352 650 352 650 352 648 c 0,61,62
 352 644 352 644 357 639 c 256,47,48
EndSplineSet
EndChar

StartChar: yen
Encoding: 165 165 70
Width: 300
GlyphClass: 2
Flags: W
LayerCount: 2
Fore
SplineSet
104 0 m 2,0,1
 89 0 89 0 81 10 c 128,-1,2
 73 20 73 20 68.5 36.5 c 128,-1,3
 64 53 64 53 63 75 c 128,-1,4
 62 97 62 97 62 121 c 2,5,-1
 62 312 l 1,6,-1
 33 312 l 2,7,8
 22 312 22 312 15 326 c 128,-1,9
 8 340 8 340 8 362 c 256,10,11
 8 384 8 384 15 393 c 128,-1,12
 22 402 22 402 33 402 c 2,13,-1
 62 402 l 1,14,-1
 62 450 l 2,15,16
 62 631 62 631 202 631 c 0,17,18
 223 631 223 631 239.5 625 c 128,-1,19
 256 619 256 619 267.5 610 c 128,-1,20
 279 601 279 601 284.5 590 c 128,-1,21
 290 579 290 579 290 570 c 0,22,23
 290 552 290 552 277.5 533 c 128,-1,24
 265 514 265 514 248 514 c 0,25,26
 239 514 239 514 235 518.5 c 128,-1,27
 231 523 231 523 227 528 c 128,-1,28
 223 533 223 533 218 537.5 c 128,-1,29
 213 542 213 542 202 542 c 0,30,31
 196 542 196 542 190 539 c 128,-1,32
 184 536 184 536 179.5 526 c 128,-1,33
 175 516 175 516 172.5 497 c 128,-1,34
 170 478 170 478 170 445 c 2,35,-1
 170 402 l 1,36,-1
 232 402 l 2,37,38
 249 402 249 402 254.5 387.5 c 128,-1,39
 260 373 260 373 260 360 c 0,40,41
 260 346 260 346 254 329 c 128,-1,42
 248 312 248 312 231 312 c 2,43,-1
 171 312 l 1,44,-1
 171 109 l 2,45,46
 171 75 171 75 165 54 c 128,-1,47
 159 33 159 33 150 21 c 128,-1,48
 141 9 141 9 129.5 4.5 c 128,-1,49
 118 0 118 0 106 0 c 2,50,-1
 104 0 l 2,0,1
89 471 m 0,51,52
 92 471 92 471 93.5 475 c 128,-1,53
 95 479 95 479 95.5 484 c 128,-1,54
 96 489 96 489 96.5 494 c 128,-1,55
 97 499 97 499 97 500 c 0,56,57
 101 528 101 528 115 550.5 c 128,-1,58
 129 573 129 573 148 591 c 0,59,60
 150 593 150 593 148.5 596 c 128,-1,61
 147 599 147 599 145 599 c 0,62,63
 134 599 134 599 123 588 c 128,-1,64
 112 577 112 577 103 560.5 c 128,-1,65
 94 544 94 544 88.5 525.5 c 128,-1,66
 83 507 83 507 83 491 c 0,67,68
 83 486 83 486 83.5 478.5 c 128,-1,69
 84 471 84 471 89 471 c 0,51,52
102 29 m 0,70,71
 102 40 102 40 93 51 c 128,-1,72
 84 62 84 62 83 74 c 0,73,74
 83 77 83 77 82.5 86.5 c 128,-1,75
 82 96 82 96 77 96 c 256,76,77
 72 96 72 96 72.5 89.5 c 128,-1,78
 73 83 73 83 73 78 c 0,79,80
 73 74 73 74 74.5 63.5 c 128,-1,81
 76 53 76 53 78.5 42.5 c 128,-1,82
 81 32 81 32 85 23.5 c 128,-1,83
 89 15 89 15 94 16 c 0,84,85
 98 17 98 17 100 21.5 c 128,-1,86
 102 26 102 26 102 29 c 0,70,71
EndSplineSet
EndChar

StartChar: parenleft
Encoding: 40 40 71
Width: 300
GlyphClass: 2
Flags: W
LayerCount: 2
Fore
SplineSet
206 -72 m 0,0,1
 152 -51 152 -51 115.5 -13 c 128,-1,2
 79 25 79 25 56.5 71.5 c 128,-1,3
 34 118 34 118 24 169.5 c 128,-1,4
 14 221 14 221 14 269 c 0,5,6
 14 315 14 315 22.5 363 c 128,-1,7
 31 411 31 411 46.5 456 c 128,-1,8
 62 501 62 501 85 540.5 c 128,-1,9
 108 580 108 580 136 609 c 0,10,11
 163 636 163 636 188 654 c 128,-1,12
 213 672 213 672 233 672 c 0,13,14
 248 672 248 672 257 660 c 128,-1,15
 266 648 266 648 266 636 c 0,16,17
 266 628 266 628 253.5 617 c 128,-1,18
 241 606 241 606 218 582 c 0,19,20
 188 550 188 550 168 512 c 128,-1,21
 148 474 148 474 136 433.5 c 128,-1,22
 124 393 124 393 119.5 351.5 c 128,-1,23
 115 310 115 310 115 272 c 256,24,25
 115 234 115 234 121 192.5 c 128,-1,26
 127 151 127 151 141 113 c 128,-1,27
 155 75 155 75 178 43.5 c 128,-1,28
 201 12 201 12 235 -7 c 0,29,30
 252 -16 252 -16 260.5 -22.5 c 128,-1,31
 269 -29 269 -29 269 -43 c 0,32,33
 269 -56 269 -56 256 -66 c 128,-1,34
 243 -76 243 -76 226 -76 c 0,35,36
 215 -76 215 -76 206 -72 c 0,0,1
192 620 m 0,37,38
 197 625 197 625 203 630.5 c 128,-1,39
 209 636 209 636 202 636 c 0,40,41
 194 636 194 636 183.5 628.5 c 128,-1,42
 173 621 173 621 163 611 c 128,-1,43
 153 601 153 601 146.5 590.5 c 128,-1,44
 140 580 140 580 140 574 c 0,45,46
 140 569 140 569 144 569 c 0,47,48
 149 569 149 569 153.5 575.5 c 128,-1,49
 158 582 158 582 161 587 c 0,50,51
 165 594 165 594 172 601.5 c 128,-1,52
 179 609 179 609 192 620 c 0,37,38
134 547 m 0,53,54
 134 555 134 555 128 555 c 0,55,56
 116 555 116 555 116 547 c 0,57,58
 116 541 116 541 119 539.5 c 128,-1,59
 122 538 122 538 124 538 c 256,60,61
 126 538 126 538 130 539.5 c 128,-1,62
 134 541 134 541 134 547 c 0,53,54
EndSplineSet
EndChar

StartChar: parenright
Encoding: 41 41 72
Width: 300
GlyphClass: 2
Flags: W
LayerCount: 2
Fore
SplineSet
80 -93 m 0,0,1
 66 -93 66 -93 53.5 -84.5 c 128,-1,2
 41 -76 41 -76 41 -66 c 0,3,4
 41 -57 41 -57 51 -43 c 128,-1,5
 61 -29 61 -29 75.5 -8.5 c 128,-1,6
 90 12 90 12 107.5 41 c 128,-1,7
 125 70 125 70 139.5 108 c 128,-1,8
 154 146 154 146 164 195 c 128,-1,9
 174 244 174 244 174 305 c 0,10,11
 174 352 174 352 166.5 398.5 c 128,-1,12
 159 445 159 445 145 484 c 128,-1,13
 131 523 131 523 111.5 552 c 128,-1,14
 92 581 92 581 68 594 c 0,15,16
 56 601 56 601 42 610.5 c 128,-1,17
 28 620 28 620 28 638 c 0,18,19
 28 653 28 653 41 662.5 c 128,-1,20
 54 672 54 672 75 672 c 0,21,22
 112 672 112 672 148 646 c 128,-1,23
 184 620 184 620 212 572 c 128,-1,24
 240 524 240 524 257 455.5 c 128,-1,25
 274 387 274 387 274 302 c 0,26,27
 274 227 274 227 265.5 175 c 128,-1,28
 257 123 257 123 241.5 85 c 128,-1,29
 226 47 226 47 205 17 c 128,-1,30
 184 -13 184 -13 159 -44 c 0,31,32
 136 -73 136 -73 116.5 -83 c 128,-1,33
 97 -93 97 -93 80 -93 c 0,0,1
48 621 m 0,34,35
 52 621 52 621 55.5 628.5 c 128,-1,36
 59 636 59 636 59 644 c 0,37,38
 59 657 59 657 52 657 c 0,39,40
 48 657 48 657 44.5 649.5 c 128,-1,41
 41 642 41 642 41 634 c 0,42,43
 41 621 41 621 48 621 c 0,34,35
75 -60 m 256,44,45
 80 -50 80 -50 80.5 -40 c 128,-1,46
 81 -30 81 -30 77 -29 c 0,47,48
 75 -29 75 -29 71.5 -33 c 128,-1,49
 68 -37 68 -37 64.5 -43 c 128,-1,50
 61 -49 61 -49 58.5 -55 c 128,-1,51
 56 -61 56 -61 56 -64 c 0,52,53
 56 -72 56 -72 60 -73 c 0,54,55
 63 -74 63 -74 66.5 -72 c 128,-1,56
 70 -70 70 -70 75 -60 c 256,44,45
EndSplineSet
EndChar

StartChar: braceright
Encoding: 125 125 73
Width: 313
GlyphClass: 2
Flags: W
LayerCount: 2
Fore
SplineSet
75 -74 m 0,0,1
 68 -74 68 -74 59 -72.5 c 128,-1,2
 50 -71 50 -71 41.5 -67 c 128,-1,3
 33 -63 33 -63 27 -57 c 128,-1,4
 21 -51 21 -51 21 -42 c 0,5,6
 21 -34 21 -34 26 -29.5 c 128,-1,7
 31 -25 31 -25 37.5 -23 c 128,-1,8
 44 -21 44 -21 52 -21 c 128,-1,9
 60 -21 60 -21 66 -21 c 0,10,11
 93 -21 93 -21 105 -12.5 c 128,-1,12
 117 -4 117 -4 121.5 10.5 c 128,-1,13
 126 25 126 25 126 43 c 128,-1,14
 126 61 126 61 128 80 c 0,15,16
 130 97 130 97 132 122.5 c 128,-1,17
 134 148 134 148 139.5 175 c 128,-1,18
 145 202 145 202 153.5 226.5 c 128,-1,19
 162 251 162 251 175 264 c 0,20,21
 177 267 177 267 185 271.5 c 128,-1,22
 193 276 193 276 193 280 c 0,23,24
 193 286 193 286 181.5 289.5 c 128,-1,25
 170 293 170 293 166 296 c 0,26,27
 150 306 150 306 139.5 334 c 128,-1,28
 129 362 129 362 123.5 395 c 128,-1,29
 118 428 118 428 115.5 459 c 128,-1,30
 113 490 113 490 112 505 c 0,31,32
 111 514 111 514 111.5 529 c 128,-1,33
 112 544 112 544 110.5 558 c 128,-1,34
 109 572 109 572 105.5 583 c 128,-1,35
 102 594 102 594 93 596 c 0,36,37
 75 601 75 601 57 599 c 0,38,39
 28 597 28 597 15.5 605.5 c 128,-1,40
 3 614 3 614 3 631 c 0,41,42
 3 653 3 653 25.5 660.5 c 128,-1,43
 48 668 48 668 81 663 c 0,44,45
 117 659 117 659 140.5 642.5 c 128,-1,46
 164 626 164 626 178 603 c 128,-1,47
 192 580 192 580 198.5 553.5 c 128,-1,48
 205 527 205 527 207 502 c 0,49,50
 209 472 209 472 210 443 c 128,-1,51
 211 414 211 414 215.5 389 c 128,-1,52
 220 364 220 364 230.5 344.5 c 128,-1,53
 241 325 241 325 262 315 c 0,54,55
 271 311 271 311 283 301.5 c 128,-1,56
 295 292 295 292 295 281 c 0,57,58
 295 273 295 273 289 267.5 c 128,-1,59
 283 262 283 262 277 257 c 0,60,61
 257 242 257 242 248 227.5 c 128,-1,62
 239 213 239 213 235.5 197.5 c 128,-1,63
 232 182 232 182 232 164.5 c 128,-1,64
 232 147 232 147 231 126 c 0,65,66
 229 87 229 87 225.5 51 c 128,-1,67
 222 15 222 15 207.5 -12.5 c 128,-1,68
 193 -40 193 -40 162 -57 c 128,-1,69
 131 -74 131 -74 75 -74 c 0,0,1
28 616 m 0,70,71
 31 616 31 616 34.5 620.5 c 128,-1,72
 38 625 38 625 40.5 630.5 c 128,-1,73
 43 636 43 636 44.5 641.5 c 128,-1,74
 46 647 46 647 46 649 c 0,75,76
 46 656 46 656 39 656 c 0,77,78
 33 656 33 656 29 652 c 128,-1,79
 25 648 25 648 22.5 643 c 128,-1,80
 20 638 20 638 19 632.5 c 128,-1,81
 18 627 18 627 19 625 c 0,82,83
 22 616 22 616 28 616 c 0,70,71
EndSplineSet
EndChar

StartChar: braceleft
Encoding: 123 123 74
Width: 322
GlyphClass: 2
Flags: W
LayerCount: 2
Fore
SplineSet
241 -77 m 0,0,1
 188 -77 188 -77 158 -62 c 128,-1,2
 128 -47 128 -47 112.5 -21 c 128,-1,3
 97 5 97 5 92.5 39 c 128,-1,4
 88 73 88 73 86 111 c 0,5,6
 84 156 84 156 73.5 178 c 128,-1,7
 63 200 63 200 51.5 213 c 128,-1,8
 40 226 40 226 31 238 c 128,-1,9
 22 250 22 250 22 276 c 256,10,11
 22 302 22 302 35 315.5 c 128,-1,12
 48 329 48 329 64 345 c 128,-1,13
 80 361 80 361 94 387.5 c 128,-1,14
 108 414 108 414 110 466 c 0,15,16
 112 505 112 505 115 540.5 c 128,-1,17
 118 576 118 576 131.5 602.5 c 128,-1,18
 145 629 145 629 173.5 644.5 c 128,-1,19
 202 660 202 660 256 660 c 0,20,21
 271 660 271 660 281 656 c 128,-1,22
 291 652 291 652 297 646 c 128,-1,23
 303 640 303 640 305 633.5 c 128,-1,24
 307 627 307 627 307 622 c 0,25,26
 307 606 307 606 294.5 602 c 128,-1,27
 282 598 282 598 265 596.5 c 128,-1,28
 248 595 248 595 230 591 c 128,-1,29
 212 587 212 587 200 572 c 0,30,31
 192 562 192 562 193 540.5 c 128,-1,32
 194 519 194 519 197 492.5 c 128,-1,33
 200 466 200 466 201.5 436 c 128,-1,34
 203 406 203 406 197 378 c 0,35,36
 194 364 194 364 180.5 348 c 128,-1,37
 167 332 167 332 153 318 c 128,-1,38
 139 304 139 304 127.5 293 c 128,-1,39
 116 282 116 282 116 277 c 256,40,41
 116 272 116 272 127 260.5 c 128,-1,42
 138 249 138 249 151 232 c 128,-1,43
 164 215 164 215 175 192.5 c 128,-1,44
 186 170 186 170 186 143 c 0,45,46
 186 135 186 135 185 115.5 c 128,-1,47
 184 96 184 96 183.5 74.5 c 128,-1,48
 183 53 183 53 184.5 34 c 128,-1,49
 186 15 186 15 191 9 c 0,50,51
 200 -2 200 -2 213 -10 c 128,-1,52
 226 -18 226 -18 243 -18 c 0,53,54
 251 -18 251 -18 260.5 -18.5 c 128,-1,55
 270 -19 270 -19 277.5 -21.5 c 128,-1,56
 285 -24 285 -24 290 -30 c 128,-1,57
 295 -36 295 -36 295 -47 c 0,58,59
 295 -56 295 -56 289.5 -62 c 128,-1,60
 284 -68 284 -68 276 -71.5 c 128,-1,61
 268 -75 268 -75 258.5 -76 c 128,-1,62
 249 -77 249 -77 241 -77 c 0,0,1
160 584 m 0,63,64
 167 594 167 594 175.5 601.5 c 128,-1,65
 184 609 184 609 191.5 615 c 128,-1,66
 199 621 199 621 203.5 626 c 128,-1,67
 208 631 208 631 208 636 c 0,68,69
 208 640 208 640 203 640 c 0,70,71
 196 640 196 640 185 633 c 128,-1,72
 174 626 174 626 164 616 c 128,-1,73
 154 606 154 606 147 594.5 c 128,-1,74
 140 583 140 583 140 574 c 0,75,76
 140 572 140 572 142 571 c 128,-1,77
 144 570 144 570 145 570 c 0,78,79
 150 570 150 570 153.5 575 c 128,-1,80
 157 580 157 580 160 584 c 0,63,64
EndSplineSet
EndChar

StartChar: bar
Encoding: 124 124 75
Width: 179
GlyphClass: 2
Flags: W
LayerCount: 2
Fore
SplineSet
97 -99 m 256,0,1
 70 -99 70 -99 58.5 -80 c 128,-1,2
 47 -61 47 -61 47 -43 c 2,3,-1
 48 666 l 2,4,5
 48 682 48 682 58.5 694 c 128,-1,6
 69 706 69 706 89 706 c 0,7,8
 113 706 113 706 127 698 c 128,-1,9
 141 690 141 690 143 672 c 2,10,-1
 143 -38 l 2,11,12
 143 -60 143 -60 133.5 -79.5 c 128,-1,13
 124 -99 124 -99 97 -99 c 256,0,1
75 653 m 0,14,15
 75 664 75 664 77.5 671.5 c 128,-1,16
 80 679 80 679 81.5 683.5 c 128,-1,17
 83 688 83 688 83 690 c 128,-1,18
 83 692 83 692 78 692 c 0,19,20
 72 692 72 692 68.5 686.5 c 128,-1,21
 65 681 65 681 63 673.5 c 128,-1,22
 61 666 61 666 60.5 658.5 c 128,-1,23
 60 651 60 651 60 646 c 0,24,25
 60 633 60 633 63 622.5 c 128,-1,26
 66 612 66 612 72 612 c 0,27,28
 75 612 75 612 75.5 616.5 c 128,-1,29
 76 621 76 621 76 628 c 128,-1,30
 76 635 76 635 75.5 642 c 128,-1,31
 75 649 75 649 75 653 c 0,14,15
EndSplineSet
EndChar

StartChar: bracketleft
Encoding: 91 91 76
Width: 260
GlyphClass: 2
Flags: W
LayerCount: 2
Fore
SplineSet
44 -70 m 0,0,1
 41 -67 41 -67 39.5 -56.5 c 128,-1,2
 38 -46 38 -46 37 -12.5 c 128,-1,3
 36 21 36 21 36 86.5 c 128,-1,4
 36 152 36 152 36 266 c 0,5,6
 36 347 36 347 36 405 c 128,-1,7
 36 463 36 463 36 503.5 c 128,-1,8
 36 544 36 544 37 570 c 128,-1,9
 38 596 38 596 40 611.5 c 128,-1,10
 42 627 42 627 45 635 c 128,-1,11
 48 643 48 643 53 649 c 0,12,13
 57 654 57 654 68.5 657 c 128,-1,14
 80 660 80 660 95.5 661.5 c 128,-1,15
 111 663 111 663 130.5 663.5 c 128,-1,16
 150 664 150 664 170 664 c 0,17,18
 211 664 211 664 231.5 650 c 128,-1,19
 252 636 252 636 233 616 c 0,20,21
 228 610 228 610 214 606 c 128,-1,22
 200 602 200 602 170 602 c 0,23,24
 156 602 156 602 148.5 600 c 128,-1,25
 141 598 141 598 138 593 c 128,-1,26
 135 588 135 588 135 579.5 c 128,-1,27
 135 571 135 571 135 557 c 2,28,-1
 135 -20 l 1,29,-1
 153 -20 l 2,30,31
 196 -20 196 -20 210.5 -27.5 c 128,-1,32
 225 -35 225 -35 225 -56 c 0,33,34
 225 -66 225 -66 221.5 -71.5 c 128,-1,35
 218 -77 218 -77 207.5 -79.5 c 128,-1,36
 197 -82 197 -82 179 -82.5 c 128,-1,37
 161 -83 161 -83 131 -83 c 0,38,39
 104 -83 104 -83 88.5 -83 c 128,-1,40
 73 -83 73 -83 64 -81.5 c 128,-1,41
 55 -80 55 -80 51 -77.5 c 128,-1,42
 47 -75 47 -75 44 -70 c 0,0,1
81 616 m 256,43,44
 83 624 83 624 92 630 c 128,-1,45
 101 636 101 636 107 636 c 0,46,47
 116 636 116 636 116 643 c 0,48,49
 116 644 116 644 114.5 644 c 128,-1,50
 113 644 113 644 107 644 c 0,51,52
 92 644 92 644 78 634 c 128,-1,53
 64 624 64 624 64 610 c 0,54,55
 64 598 64 598 68 598 c 256,56,57
 72 598 72 598 75.5 603 c 128,-1,58
 79 608 79 608 81 616 c 256,43,44
EndSplineSet
EndChar

StartChar: bracketright
Encoding: 93 93 77
Width: 239
GlyphClass: 2
Flags: W
LayerCount: 2
Fore
SplineSet
50 -80 m 0,0,1
 35 -80 35 -80 24.5 -71.5 c 128,-1,2
 14 -63 14 -63 14 -55 c 0,3,4
 14 -33 14 -33 27.5 -25 c 128,-1,5
 41 -17 41 -17 61 -17 c 0,6,7
 85 -17 85 -17 98.5 -15 c 128,-1,8
 112 -13 112 -13 118.5 -8.5 c 128,-1,9
 125 -4 125 -4 126.5 3.5 c 128,-1,10
 128 11 128 11 128 21 c 2,11,-1
 128 551 l 2,12,13
 128 580 128 580 116 590 c 128,-1,14
 104 600 104 600 93 600 c 256,15,16
 82 600 82 600 70 598 c 128,-1,17
 58 596 58 596 47 596 c 0,18,19
 33 596 33 596 23.5 603 c 128,-1,20
 14 610 14 610 14 633 c 0,21,22
 14 645 14 645 30.5 653.5 c 128,-1,23
 47 662 47 662 76 662 c 0,24,25
 101 662 101 662 125 662 c 128,-1,26
 149 662 149 662 168.5 660.5 c 128,-1,27
 188 659 188 659 201 656 c 128,-1,28
 214 653 214 653 217 647 c 0,29,30
 220 642 220 642 220.5 625.5 c 128,-1,31
 221 609 221 609 221 570.5 c 128,-1,32
 221 532 221 532 221.5 466 c 128,-1,33
 222 400 222 400 223 295 c 0,34,35
 225 193 225 193 226 127.5 c 128,-1,36
 227 62 227 62 226 21 c 0,37,38
 226 -7 226 -7 222 -25 c 128,-1,39
 218 -43 218 -43 212 -54 c 128,-1,40
 206 -65 206 -65 197.5 -70 c 128,-1,41
 189 -75 189 -75 179 -76 c 0,42,43
 161 -78 161 -78 139.5 -79 c 128,-1,44
 118 -80 118 -80 99 -80 c 128,-1,45
 80 -80 80 -80 66 -80 c 128,-1,46
 52 -80 52 -80 50 -80 c 0,0,1
45 644 m 256,47,48
 41 649 41 649 34 645 c 128,-1,49
 27 641 27 641 27 633 c 0,50,51
 27 623 27 623 31 623 c 256,52,53
 35 623 35 623 35 630 c 0,54,55
 36 634 36 634 42.5 636.5 c 128,-1,56
 49 639 49 639 45 644 c 256,47,48
EndSplineSet
EndChar

StartChar: slash
Encoding: 47 47 78
Width: 399
GlyphClass: 2
Flags: W
LayerCount: 2
Fore
SplineSet
82 -77 m 0,0,1
 78 -77 78 -77 66.5 -75 c 128,-1,2
 55 -73 55 -73 43 -68.5 c 128,-1,3
 31 -64 31 -64 22 -57 c 128,-1,4
 13 -50 13 -50 13 -41 c 0,5,6
 13 -38 13 -38 23.5 -9.5 c 128,-1,7
 34 19 34 19 51 64 c 128,-1,8
 68 109 68 109 90.5 166 c 128,-1,9
 113 223 113 223 137 283 c 128,-1,10
 161 343 161 343 185 402 c 128,-1,11
 209 461 209 461 229 509.5 c 128,-1,12
 249 558 249 558 264 592 c 128,-1,13
 279 626 279 626 285 636 c 0,14,15
 292 647 292 647 303.5 656.5 c 128,-1,16
 315 666 315 666 329 666 c 0,17,18
 336 666 336 666 344.5 663.5 c 128,-1,19
 353 661 353 661 360.5 656.5 c 128,-1,20
 368 652 368 652 373 646 c 128,-1,21
 378 640 378 640 378 633 c 0,22,23
 378 625 378 625 369.5 599.5 c 128,-1,24
 361 574 361 574 349.5 544.5 c 128,-1,25
 338 515 338 515 326.5 487.5 c 128,-1,26
 315 460 315 460 309 447 c 0,27,28
 305 438 305 438 294 410.5 c 128,-1,29
 283 383 283 383 268 344.5 c 128,-1,30
 253 306 253 306 235 259.5 c 128,-1,31
 217 213 217 213 198 166.5 c 128,-1,32
 179 120 179 120 160.5 76 c 128,-1,33
 142 32 142 32 126.5 -2 c 128,-1,34
 111 -36 111 -36 99 -56.5 c 128,-1,35
 87 -77 87 -77 82 -77 c 0,0,1
57 -37 m 0,36,37
 61 -25 61 -25 69 -7 c 128,-1,38
 77 11 77 11 84 27.5 c 128,-1,39
 91 44 91 44 94.5 56.5 c 128,-1,40
 98 69 98 69 93 70 c 0,41,42
 91 71 91 71 86 71 c 128,-1,43
 81 71 81 71 78 66 c 0,44,45
 76 62 76 62 69.5 48.5 c 128,-1,46
 63 35 63 35 56.5 19.5 c 128,-1,47
 50 4 50 4 45 -10.5 c 128,-1,48
 40 -25 40 -25 40 -31 c 0,49,50
 40 -38 40 -38 47.5 -40 c 128,-1,51
 55 -42 55 -42 57 -37 c 0,36,37
EndSplineSet
EndChar

StartChar: backslash
Encoding: 92 92 79
Width: 384
GlyphClass: 2
Flags: W
LayerCount: 2
Fore
SplineSet
82 666 m 0,0,1
 89 666 89 666 107 630.5 c 128,-1,2
 125 595 125 595 148.5 541 c 128,-1,3
 172 487 172 487 198 422.5 c 128,-1,4
 224 358 224 358 247 299.5 c 128,-1,5
 270 241 270 241 286.5 197.5 c 128,-1,6
 303 154 303 154 309 142 c 0,7,8
 315 129 315 129 326.5 101.5 c 128,-1,9
 338 74 338 74 349.5 44.5 c 128,-1,10
 361 15 361 15 369.5 -10.5 c 128,-1,11
 378 -36 378 -36 378 -44 c 0,12,13
 378 -51 378 -51 373 -57 c 128,-1,14
 368 -63 368 -63 360.5 -67.5 c 128,-1,15
 353 -72 353 -72 344.5 -74.5 c 128,-1,16
 336 -77 336 -77 329 -77 c 0,17,18
 315 -77 315 -77 303.5 -67.5 c 128,-1,19
 292 -58 292 -58 285 -47 c 0,20,21
 279 -37 279 -37 264 -3 c 128,-1,22
 249 31 249 31 229 79.5 c 128,-1,23
 209 128 209 128 185 187 c 128,-1,24
 161 246 161 246 137 306 c 128,-1,25
 113 366 113 366 90.5 423 c 128,-1,26
 68 480 68 480 51 525 c 128,-1,27
 34 570 34 570 23.5 598.5 c 128,-1,28
 13 627 13 627 13 630 c 0,29,30
 13 639 13 639 22 646 c 128,-1,31
 31 653 31 653 43 657.5 c 128,-1,32
 55 662 55 662 66.5 664 c 128,-1,33
 78 666 78 666 82 666 c 0,0,1
57 626 m 0,34,35
 55 631 55 631 47.5 629 c 128,-1,36
 40 627 40 627 40 620 c 0,37,38
 40 614 40 614 45 599.5 c 128,-1,39
 50 585 50 585 56.5 569.5 c 128,-1,40
 63 554 63 554 69.5 540.5 c 128,-1,41
 76 527 76 527 78 523 c 0,42,43
 81 518 81 518 86 518 c 128,-1,44
 91 518 91 518 93 519 c 0,45,46
 98 520 98 520 94.5 532.5 c 128,-1,47
 91 545 91 545 84 561.5 c 128,-1,48
 77 578 77 578 69 596 c 128,-1,49
 61 614 61 614 57 626 c 0,34,35
EndSplineSet
EndChar

StartChar: question
Encoding: 63 63 80
Width: 300
GlyphClass: 2
Flags: W
LayerCount: 2
Fore
SplineSet
98 104 m 0,0,1
 86 104 86 104 78 111.5 c 128,-1,2
 70 119 70 119 65 129.5 c 128,-1,3
 60 140 60 140 58 152 c 128,-1,4
 56 164 56 164 56 173 c 0,5,6
 56 225 56 225 74 261 c 128,-1,7
 92 297 92 297 121 320 c 0,8,9
 156 349 156 349 167 379.5 c 128,-1,10
 178 410 178 410 178 443 c 0,11,12
 178 457 178 457 174.5 472 c 128,-1,13
 171 487 171 487 162.5 499.5 c 128,-1,14
 154 512 154 512 141 520 c 128,-1,15
 128 528 128 528 109 528 c 0,16,17
 103 528 103 528 96.5 527 c 128,-1,18
 90 526 90 526 83 524 c 0,19,20
 54 516 54 516 37 531 c 128,-1,21
 20 546 20 546 20 571 c 0,22,23
 20 597 20 597 42.5 609 c 128,-1,24
 65 621 65 621 106 625 c 0,25,26
 141 628 141 628 174 618.5 c 128,-1,27
 207 609 207 609 232.5 587 c 128,-1,28
 258 565 258 565 273.5 530.5 c 128,-1,29
 289 496 289 496 289 449 c 0,30,31
 289 395 289 395 262 352 c 128,-1,32
 235 309 235 309 200 274 c 0,33,34
 185 259 185 259 174.5 251 c 128,-1,35
 164 243 164 243 157.5 234 c 128,-1,36
 151 225 151 225 147.5 211.5 c 128,-1,37
 144 198 144 198 143 172 c 0,38,39
 143 161 143 161 141.5 149 c 128,-1,40
 140 137 140 137 135.5 127 c 128,-1,41
 131 117 131 117 122 110.5 c 128,-1,42
 113 104 113 104 98 104 c 0,0,1
51 583 m 256,43,44
 56 591 56 591 62 595.5 c 128,-1,45
 68 600 68 600 65 602 c 0,46,47
 60 604 60 604 54.5 601.5 c 128,-1,48
 49 599 49 599 44.5 594 c 128,-1,49
 40 589 40 589 37 583 c 128,-1,50
 34 577 34 577 34 572 c 0,51,52
 34 560 34 560 41 560 c 0,53,54
 45 560 45 560 45.5 567.5 c 128,-1,55
 46 575 46 575 51 583 c 256,43,44
99 141 m 0,56,57
 94 151 94 151 92 162.5 c 128,-1,58
 90 174 90 174 90 185 c 2,59,-1
 91 188 l 1,60,-1
 91 189 l 1,61,-1
 93 203 l 1,62,-1
 93 205 l 1,63,-1
 94 208 l 2,64,65
 94 216 94 216 90 216 c 0,66,67
 82 216 82 216 79.5 203.5 c 128,-1,68
 77 191 77 191 77 183 c 0,69,70
 77 176 77 176 78 166 c 128,-1,71
 79 156 79 156 81 147 c 128,-1,72
 83 138 83 138 87.5 131.5 c 128,-1,73
 92 125 92 125 99 125 c 0,74,75
 101 125 101 125 101.5 130 c 128,-1,76
 102 135 102 135 99 141 c 0,56,57
98 -9 m 0,77,78
 60 -9 60 -9 60 27 c 0,79,80
 60 44 60 44 71.5 58 c 128,-1,81
 83 72 83 72 101 72 c 0,82,83
 115 72 115 72 127.5 59.5 c 128,-1,84
 140 47 140 47 140 34 c 0,85,86
 140 16 140 16 129 3.5 c 128,-1,87
 118 -9 118 -9 98 -9 c 0,77,78
89 57 m 0,88,89
 84 57 84 57 80.5 46 c 128,-1,90
 77 35 77 35 77 27 c 0,91,92
 77 18 77 18 80 18 c 256,93,94
 83 18 83 18 86 22 c 128,-1,95
 89 26 89 26 89 34 c 0,96,97
 89 45 89 45 92 51 c 128,-1,98
 95 57 95 57 89 57 c 0,88,89
EndSplineSet
EndChar

StartChar: exclam
Encoding: 33 33 81
Width: 167
GlyphClass: 2
Flags: W
LayerCount: 2
Fore
SplineSet
81 112 m 0,0,1
 65 112 65 112 56 123 c 128,-1,2
 47 134 47 134 42.5 161 c 128,-1,3
 38 188 38 188 37 233.5 c 128,-1,4
 36 279 36 279 36 348 c 0,5,6
 36 445 36 445 37 499 c 128,-1,7
 38 553 38 553 44 579 c 128,-1,8
 50 605 50 605 62.5 610.5 c 128,-1,9
 75 616 75 616 98 616 c 0,10,11
 110 616 110 616 117 609 c 128,-1,12
 124 602 124 602 128.5 579 c 128,-1,13
 133 556 133 556 134.5 511 c 128,-1,14
 136 466 136 466 136 389 c 0,15,16
 136 249 136 249 126 180.5 c 128,-1,17
 116 112 116 112 81 112 c 0,0,1
68 593 m 0,18,19
 64 593 64 593 58 581 c 128,-1,20
 52 569 52 569 52 544 c 0,21,22
 52 531 52 531 53.5 518.5 c 128,-1,23
 55 506 55 506 62 506 c 0,24,25
 68 506 68 506 70 510 c 128,-1,26
 72 514 72 514 72 519.5 c 128,-1,27
 72 525 72 525 71.5 532 c 128,-1,28
 71 539 71 539 71 545 c 0,29,30
 72 562 72 562 74 577.5 c 128,-1,31
 76 593 76 593 68 593 c 0,18,19
82 -8 m 0,32,33
 63 -8 63 -8 51.5 4.5 c 128,-1,34
 40 17 40 17 40 38 c 0,35,36
 40 57 40 57 50 73.5 c 128,-1,37
 60 90 60 90 82 90 c 0,38,39
 105 90 105 90 117 74.5 c 128,-1,40
 129 59 129 59 129 38 c 0,41,42
 129 15 129 15 115.5 3.5 c 128,-1,43
 102 -8 102 -8 82 -8 c 0,32,33
64 44 m 0,44,45
 65 55 65 55 69 64 c 128,-1,46
 73 73 73 73 68 73 c 0,47,48
 61 73 61 73 56.5 58.5 c 128,-1,49
 52 44 52 44 52 33 c 0,50,51
 52 23 52 23 57 23 c 0,52,53
 61 23 61 23 62 30.5 c 128,-1,54
 63 38 63 38 64 44 c 0,44,45
EndSplineSet
EndChar

StartChar: quotesingle
Encoding: 39 39 82
Width: 105
GlyphClass: 2
Flags: W
LayerCount: 2
Fore
SplineSet
52 528 m 256,0,1
 42 528 42 528 34.5 535.5 c 128,-1,2
 27 543 27 543 22 553.5 c 128,-1,3
 17 564 17 564 14 576 c 128,-1,4
 11 588 11 588 10 596 c 0,5,6
 9 605 9 605 9 621 c 128,-1,7
 9 637 9 637 13.5 652 c 128,-1,8
 18 667 18 667 27 678 c 128,-1,9
 36 689 36 689 52 689 c 0,10,11
 69 689 69 689 78 678.5 c 128,-1,12
 87 668 87 668 91.5 653 c 128,-1,13
 96 638 96 638 96 622.5 c 128,-1,14
 96 607 96 607 94 596 c 0,15,16
 93 588 93 588 90 576.5 c 128,-1,17
 87 565 87 565 82 554 c 128,-1,18
 77 543 77 543 69.5 535.5 c 128,-1,19
 62 528 62 528 52 528 c 256,0,1
47 650 m 0,20,21
 53 672 53 672 42 672 c 0,22,23
 39 672 39 672 36.5 667.5 c 128,-1,24
 34 663 34 663 31.5 657.5 c 128,-1,25
 29 652 29 652 27.5 646 c 128,-1,26
 26 640 26 640 26 637 c 0,27,28
 26 622 26 622 33 622 c 256,29,30
 40 622 40 622 47 650 c 0,20,21
EndSplineSet
EndChar

StartChar: quotedbl
Encoding: 34 34 83
Width: 196
GlyphClass: 2
Flags: W
LayerCount: 2
Fore
SplineSet
52 528 m 256,0,1
 42 528 42 528 34.5 535.5 c 128,-1,2
 27 543 27 543 22 553.5 c 128,-1,3
 17 564 17 564 14 576 c 128,-1,4
 11 588 11 588 10 596 c 0,5,6
 9 605 9 605 9 621 c 128,-1,7
 9 637 9 637 13.5 652 c 128,-1,8
 18 667 18 667 27 678 c 128,-1,9
 36 689 36 689 52 689 c 0,10,11
 69 689 69 689 78 678.5 c 128,-1,12
 87 668 87 668 91.5 653 c 128,-1,13
 96 638 96 638 96 622.5 c 128,-1,14
 96 607 96 607 94 596 c 0,15,16
 93 588 93 588 90 576.5 c 128,-1,17
 87 565 87 565 82 554 c 128,-1,18
 77 543 77 543 69.5 535.5 c 128,-1,19
 62 528 62 528 52 528 c 256,0,1
147 528 m 256,20,21
 137 528 137 528 129.5 535.5 c 128,-1,22
 122 543 122 543 117 553.5 c 128,-1,23
 112 564 112 564 109 576 c 128,-1,24
 106 588 106 588 105 596 c 0,25,26
 104 605 104 605 104 621 c 128,-1,27
 104 637 104 637 108.5 652 c 128,-1,28
 113 667 113 667 122 678 c 128,-1,29
 131 689 131 689 147 689 c 0,30,31
 164 689 164 689 173 678.5 c 128,-1,32
 182 668 182 668 186.5 653 c 128,-1,33
 191 638 191 638 191 622.5 c 128,-1,34
 191 607 191 607 189 596 c 0,35,36
 188 588 188 588 185 576.5 c 128,-1,37
 182 565 182 565 177 554 c 128,-1,38
 172 543 172 543 164.5 535.5 c 128,-1,39
 157 528 157 528 147 528 c 256,20,21
47 650 m 0,40,41
 53 672 53 672 42 672 c 0,42,43
 39 672 39 672 36.5 667.5 c 128,-1,44
 34 663 34 663 31.5 657.5 c 128,-1,45
 29 652 29 652 27.5 646 c 128,-1,46
 26 640 26 640 26 637 c 0,47,48
 26 622 26 622 33 622 c 256,49,50
 40 622 40 622 47 650 c 0,40,41
142 650 m 0,51,52
 148 672 148 672 137 672 c 0,53,54
 134 672 134 672 131.5 667.5 c 128,-1,55
 129 663 129 663 126.5 657.5 c 128,-1,56
 124 652 124 652 122.5 646 c 128,-1,57
 121 640 121 640 121 637 c 0,58,59
 121 622 121 622 128 622 c 256,60,61
 135 622 135 622 142 650 c 0,51,52
EndSplineSet
EndChar

StartChar: quoteleft
Encoding: 8216 8216 84
Width: 106
GlyphClass: 2
Flags: W
LayerCount: 2
Fore
SplineSet
52 526 m 256,0,1
 27 526 27 526 16 545.5 c 128,-1,2
 5 565 5 565 5 594 c 0,3,4
 5 607 5 607 9.5 623.5 c 128,-1,5
 14 640 14 640 23 655 c 128,-1,6
 32 670 32 670 45 680 c 128,-1,7
 58 690 58 690 75 690 c 0,8,9
 94 690 94 690 94 673 c 0,10,11
 94 669 94 669 88.5 666 c 128,-1,12
 83 663 83 663 80 661 c 0,13,14
 67 654 67 654 58 643.5 c 128,-1,15
 49 633 49 633 47 618 c 0,16,17
 47 611 47 611 47 611 c 1,18,19
 48 611 48 611 51 616.5 c 128,-1,20
 54 622 54 622 66 622 c 0,21,22
 80 622 80 622 90.5 609.5 c 128,-1,23
 101 597 101 597 101 578 c 0,24,25
 101 555 101 555 89 540.5 c 128,-1,26
 77 526 77 526 52 526 c 256,0,1
31 568 m 0,27,28
 29 576 29 576 27 581.5 c 128,-1,29
 25 587 25 587 21 587 c 0,30,31
 18 587 18 587 18.5 580 c 128,-1,32
 19 573 19 573 22 564 c 128,-1,33
 25 555 25 555 29.5 548 c 128,-1,34
 34 541 34 541 38 541 c 0,35,36
 40 541 40 541 40 544 c 0,37,38
 40 548 40 548 37 554 c 128,-1,39
 34 560 34 560 31 568 c 0,27,28
EndSplineSet
EndChar

StartChar: quoteright
Encoding: 8217 8217 85
Width: 113
GlyphClass: 2
Flags: W
LayerCount: 2
Fore
SplineSet
56 690 m 256,0,1
 81 690 81 690 92 670.5 c 128,-1,2
 103 651 103 651 103 622 c 0,3,4
 103 609 103 609 98.5 592.5 c 128,-1,5
 94 576 94 576 85 561 c 128,-1,6
 76 546 76 546 63 536 c 128,-1,7
 50 526 50 526 33 526 c 0,8,9
 14 526 14 526 14 543 c 0,10,11
 14 547 14 547 19.5 550 c 128,-1,12
 25 553 25 553 28 555 c 0,13,14
 41 562 41 562 50 572.5 c 128,-1,15
 59 583 59 583 61 598 c 0,16,17
 61 605 61 605 61 605 c 1,18,19
 60 605 60 605 57 599.5 c 128,-1,20
 54 594 54 594 42 594 c 0,21,22
 28 594 28 594 17.5 606.5 c 128,-1,23
 7 619 7 619 7 638 c 0,24,25
 7 661 7 661 19 675.5 c 128,-1,26
 31 690 31 690 56 690 c 256,0,1
37 672 m 0,27,28
 37 675 37 675 35 675 c 0,29,30
 31 675 31 675 26.5 668 c 128,-1,31
 22 661 22 661 19 652 c 128,-1,32
 16 643 16 643 15.5 636 c 128,-1,33
 15 629 15 629 18 629 c 0,34,35
 22 629 22 629 24 634.5 c 128,-1,36
 26 640 26 640 28 648 c 0,37,38
 31 656 31 656 34 662 c 128,-1,39
 37 668 37 668 37 672 c 0,27,28
EndSplineSet
EndChar

